<?xml version="1.0" encoding="UTF-8"?>
<svg width="349px" height="112px" viewBox="0 0 349 112" version="1.1" xmlns="http://www.w3.org/2000/svg" xmlns:xlink="http://www.w3.org/1999/xlink">
    <title>Group</title>
    <g id="Page-1" stroke="none" stroke-width="1" fill="none" fill-rule="evenodd">
        <g id="Artboard" transform="translate(-345.000000, -280.000000)" fill="#FFFFFF" fill-rule="nonzero">
            <g id="Group" transform="translate(345.000000, 280.000000)">
                <path d="M4.73926488,39.754192 C5.02341421,39.9714827 5.46635288,39.9965547 6.06808088,39.829408 C6.63637954,39.6956907 7.18796354,39.4700427 7.72283288,39.152464 C8.25770221,38.8348853 8.77585688,38.5089493 9.27729688,38.174656 C9.77873688,37.8403627 10.2718195,37.5144267 10.7565449,37.196848 C11.2412702,36.8792693 11.7343529,36.6369067 12.2357929,36.46976 C12.3695102,36.670336 12.5115849,36.8040533 12.6620169,36.870912 C12.8124489,36.9377707 12.9545235,37.021344 13.0882409,37.121632 C13.2553875,37.22192 13.3891049,37.3389227 13.4893929,37.47264 C13.5896809,37.6063573 13.7066835,37.6899307 13.8404009,37.72336 C14.2081235,37.7902187 14.5257022,37.6565013 14.7931369,37.322208 C15.4282942,36.4864747 15.8210889,35.5003093 15.9715209,34.363712 C16.1219529,33.2271147 16.1219529,32.0487307 15.9715209,30.82856 C15.8210889,29.6083893 15.5536542,28.3798613 15.1692169,27.142976 C14.7847795,25.9060907 14.3752702,24.7527787 13.9406889,23.68304 C13.8069715,23.4490347 13.6565395,23.1983147 13.4893929,22.93088 C13.3222462,22.6634453 13.1216702,22.3960107 12.8876649,22.128576 C12.6202302,21.827712 12.3193662,21.5686347 11.9850729,21.351344 C11.6507795,21.1340533 11.3164862,20.9418347 10.9821929,20.774688 C10.7147582,20.6075413 10.4807529,20.4571093 10.2801769,20.323392 C10.0796009,20.1896747 9.86231021,20.122816 9.62830488,20.122816 C9.46115821,20.122816 9.31908354,20.1311733 9.20208088,20.147888 C9.08507821,20.1646027 8.95971821,20.2063893 8.82600088,20.273248 C7.95683821,20.473824 7.07096088,20.7914027 6.16836888,21.225984 C5.26577688,21.6605653 4.41332888,22.1954347 3.61102488,22.830592 C2.80872088,23.4657493 2.10670488,24.209552 1.50497688,25.062 C0.903248875,25.914448 0.502096875,26.8755413 0.301520875,27.94528 C0.234662209,28.1124267 0.251376875,28.2127147 0.351664875,28.246144 C0.485382209,28.2795733 0.602384875,28.2628587 0.702672875,28.196 C0.769531542,28.1625707 0.844747542,28.1291413 0.928320875,28.095712 C1.01189421,28.0622827 1.08711021,28.0121387 1.15396888,27.94528 C2.42428354,26.6749653 3.73638488,25.6470133 5.09027288,24.861424 C6.44416088,24.0758347 7.97355288,23.68304 9.67844888,23.68304 C10.1130302,23.8501867 10.5643262,24.1677653 11.0323369,24.635776 C11.5003475,25.1037867 11.9182142,25.6302987 12.2859369,26.215312 C12.6536595,26.8003253 12.9294515,27.418768 13.1133129,28.07064 C13.2971742,28.722512 13.3055315,29.3325973 13.1383849,29.900896 L13.1383849,29.900896 L12.3360809,29.249024 C12.1020755,29.048448 11.8429982,28.847872 11.5588489,28.647296 C11.2746995,28.44672 10.9821929,28.2795733 10.6813289,28.145856 C10.3804649,28.0121387 10.0712435,27.920208 9.75366488,27.870064 C9.43608621,27.81992 9.12686488,27.844992 8.82600088,27.94528 C6.25194221,28.8144427 4.54704621,30.5193387 3.71131288,33.059968 C3.41044888,33.9291307 3.21823021,34.789936 3.13465688,35.642384 C3.05108354,36.494832 3.05944088,37.2887787 3.15972888,38.024224 C3.22658754,38.3919467 3.29344621,38.60088 3.36030488,38.651024 C3.42716354,38.701168 3.57759554,38.826528 3.81160088,39.027104 C4.14589421,39.2945387 4.45511554,39.5369013 4.73926488,39.754192 Z M5.41620888,37.322208 C5.21563288,36.8876267 5.10698754,36.4112587 5.09027288,35.893104 C5.07355821,35.3749493 5.11534488,34.8567947 5.21563288,34.33864 C5.31592088,33.8204853 5.46635288,33.3023307 5.66692888,32.784176 C5.86750488,32.2660213 6.06808088,31.7896533 6.26865688,31.355072 C6.90381421,30.853632 7.53061421,30.552768 8.14905688,30.45248 C8.76749954,30.352192 9.34415554,30.3939787 9.87902488,30.57784 C10.4138942,30.7617013 10.8902622,31.0374933 11.3081289,31.405216 C11.7259955,31.7729387 12.0352169,32.1740907 12.2357929,32.608672 C12.2357929,32.809248 12.2775795,32.9763947 12.3611529,33.110112 C12.4447262,33.2438293 12.5115849,33.360832 12.5617289,33.46112 C12.6118729,33.561408 12.6202302,33.6784107 12.5868009,33.812128 C12.5533715,33.9458453 12.4363689,34.112992 12.2357929,34.313568 C11.3666302,34.7481493 10.3303209,35.2495893 9.12686488,35.817888 C7.92340888,36.3861867 6.68652354,36.8876267 5.41620888,37.322208 Z M22.7158889,38.024224 C22.7827475,38.1579413 22.8997502,38.1412267 23.0668969,37.97408 C23.6017662,37.47264 24.0614195,36.9126987 24.4458569,36.294256 C24.8302942,35.6758133 25.1645875,35.040656 25.4487369,34.388784 C25.7328862,33.736912 25.9919635,33.08504 26.2259689,32.433168 C26.4599742,31.781296 26.7106942,31.154496 26.9781289,30.552768 C27.3792809,29.7170347 27.8305769,29.0317333 28.3320169,28.496864 C28.8334569,27.9619947 29.3098249,27.5692 29.7611209,27.31848 C30.2124169,27.06776 30.6135689,26.9591147 30.9645769,26.992544 C31.3155849,27.0259733 31.5245182,27.1596907 31.5913769,27.393696 C31.7919529,28.2628587 31.9590995,29.1153067 32.0928169,29.95104 C32.2265342,30.7867733 32.3769662,31.605792 32.5441129,32.408096 C32.7112595,33.2104 32.9118355,33.9792747 33.1458409,34.71472 C33.3798462,35.4501653 33.7141395,36.1354667 34.1487209,36.770624 C34.4161555,36.670336 34.5749449,36.5784053 34.6250889,36.494832 C34.6752329,36.4112587 34.7838782,36.3026133 34.9510249,36.168896 C35.1181715,36.068608 35.2853182,35.918176 35.4524649,35.7176 C35.6196115,35.517024 35.7366142,35.3498773 35.8034729,35.21616 C35.9037609,35.0490133 35.9873342,34.9069387 36.0541929,34.789936 C36.1210515,34.6729333 36.1711955,34.5308587 36.2046249,34.363712 C36.2714835,33.761984 36.1795529,33.135184 35.9288329,32.483312 C35.6781129,31.83144 35.4524649,31.1879253 35.2518889,30.552768 C35.0847422,30.1181867 34.9928115,29.7337493 34.9760969,29.399456 C34.9593822,29.0651627 34.8841662,28.7141547 34.7504489,28.346432 C34.5498729,27.6778453 34.3075102,27.06776 34.0233609,26.516176 C33.7392115,25.964592 33.3631315,25.538368 32.8951209,25.237504 C32.7279742,25.1037867 32.5441129,25.036928 32.3435369,25.036928 L32.3435369,25.036928 L31.6415209,25.036928 C31.4743742,25.1037867 31.3155849,25.1205013 31.1651529,25.087072 C31.0147209,25.0536427 30.8559315,25.0703573 30.6887849,25.137216 C29.9533395,25.43808 29.2513235,25.8308747 28.5827369,26.3156 C27.9141502,26.8003253 27.2622782,27.343552 26.6271209,27.94528 C25.9919635,28.547008 25.3818782,29.173808 24.7968649,29.82568 C24.2118515,30.477552 23.6351955,31.0876373 23.0668969,31.655936 C23.0334675,30.8870613 22.9582515,30.0764 22.8412489,29.223952 C22.7242462,28.371504 22.5654569,27.5859147 22.3648809,26.867184 C22.1643049,26.1484533 21.9219422,25.5550827 21.6377929,25.087072 C21.3536435,24.6190613 21.0277075,24.385056 20.6599849,24.385056 C20.5262675,24.385056 20.3424062,24.334912 20.1084009,24.234624 C19.8743955,24.134336 19.6571049,24.1176213 19.4565289,24.18448 C19.2559529,24.2513387 19.0637342,24.334912 18.8798729,24.4352 C18.6960115,24.535488 18.5706515,24.6524907 18.5037929,24.786208 L18.5037929,24.786208 L18.8046569,25.6888 C19.0720915,26.591392 19.3395262,27.5524853 19.6069609,28.57208 C19.8743955,29.5916747 20.1334729,30.602912 20.3841929,31.605792 C20.6349129,32.608672 20.8689182,33.561408 21.0862089,34.464 C21.3034995,35.366592 21.5124329,36.168896 21.7130089,36.870912 C21.8132969,37.2052053 21.8717982,37.4057813 21.8885129,37.47264 C21.9052275,37.5394987 22.0138729,37.6063573 22.2144489,37.673216 C22.4818835,37.773504 22.6490302,37.8905067 22.7158889,38.024224 Z M44.4282409,38.2248 C44.7625342,38.2916587 45.0884702,38.274944 45.4060489,38.174656 C45.7236275,38.074368 46.0328489,37.9907947 46.3337129,37.923936 C46.6011475,37.8570773 46.8685822,37.8320053 47.1360169,37.84872 C47.4034515,37.8654347 47.6708862,37.8069333 47.9383209,37.673216 C48.7071955,37.3054933 49.4092115,36.9043413 50.0443689,36.46976 C50.6795262,36.0351787 51.2478249,35.5838827 51.7492649,35.115872 C51.9164115,34.9487253 51.9916275,34.7314347 51.9749129,34.464 C51.9581982,34.1965653 51.9999849,33.96256 52.1002729,33.761984 C51.9331262,32.1239467 51.7994089,30.3438347 51.6991209,28.421648 C51.5988329,26.4994613 51.4149715,24.5522027 51.1475369,22.579872 C50.8801022,20.6409707 50.5458089,18.743856 50.1446569,16.888528 C49.7435049,15.0332 49.5429289,13.0357973 49.5429289,10.89632 C49.5429289,10.7291733 49.5512862,10.6121707 49.5680009,10.545312 C49.5847155,10.4784533 49.5262142,10.4283093 49.3924969,10.39488 C49.2587795,10.3614507 49.1752062,10.419952 49.1417769,10.570384 C49.1083475,10.720816 49.0080595,10.8294613 48.8409129,10.89632 C48.6737662,10.9631787 48.5233342,11.1052533 48.3896169,11.322544 C48.2558995,11.5398347 48.1556115,11.7320533 48.0887529,11.8992 C48.0218942,12.1666347 47.9383209,12.4340693 47.8380329,12.701504 C47.7377449,12.9689387 47.6708862,13.2363733 47.6374569,13.503808 C47.5037395,14.506688 47.4619529,15.484496 47.5120969,16.437232 C47.5622409,17.389968 47.6374569,18.317632 47.7377449,19.220224 C47.8380329,20.122816 47.9466782,21.0170507 48.0636809,21.902928 C48.1806835,22.7888053 48.2391849,23.6663253 48.2391849,24.535488 L48.2391849,24.535488 L48.2391849,25.287648 C47.8046035,25.2207893 47.1861609,25.062 46.3838569,24.81128 C45.5815529,24.56056 44.8461075,24.4017707 44.1775209,24.334912 C43.9100862,24.3014827 43.6760809,24.3265547 43.4755049,24.410128 C43.2749289,24.4937013 43.0910675,24.6023467 42.9239209,24.736064 C42.7567742,24.8697813 42.5729129,24.9784267 42.3723369,25.062 C42.1717609,25.1455733 42.0046142,25.2709333 41.8708969,25.43808 C40.8345875,26.6749653 40.0573555,28.0622827 39.5392009,29.600032 C39.0210462,31.1377813 38.9458302,32.859392 39.3135529,34.764864 C39.5141289,35.1994453 39.8233502,35.6005973 40.2412169,35.96832 C40.6590835,36.3360427 41.1187369,36.670336 41.6201769,36.9712 C42.1216169,37.272064 42.6230569,37.5311413 43.1244969,37.748432 C43.6259369,37.9657227 44.0605182,38.124512 44.4282409,38.2248 Z M46.0579209,35.266304 C45.4729075,35.3331627 44.8962515,35.34152 44.3279529,35.291376 C43.7596542,35.241232 43.2247849,35.065728 42.7233449,34.764864 C41.8541822,33.8957013 41.3193129,32.984752 41.1187369,32.032016 C40.9181609,31.07928 40.9181609,30.302048 41.1187369,29.70032 C41.3527422,29.1654507 41.6703209,28.722512 42.0714729,28.371504 C42.4726249,28.020496 42.9072062,27.744704 43.3752169,27.544128 C43.8432275,27.343552 44.3195955,27.2014773 44.8043209,27.117904 C45.2890462,27.0343307 45.7152702,26.9758293 46.0829929,26.9424 C46.8852969,27.2766933 47.5120969,27.7781333 47.9633929,28.44672 C48.4146889,29.1153067 48.7406249,29.8173227 48.9412009,30.552768 C49.1417769,31.2882133 49.2504222,31.9985867 49.2671369,32.683888 C49.2838515,33.3691893 49.2754942,33.8957013 49.2420649,34.263424 C48.8074835,34.464 48.3144009,34.664576 47.7628169,34.865152 C47.2112329,35.065728 46.6429342,35.1994453 46.0579209,35.266304 Z M72.9351049,39.754192 C73.2192542,39.9714827 73.6621929,39.9965547 74.2639209,39.829408 C74.8322195,39.6956907 75.3838035,39.4700427 75.9186729,39.152464 C76.4535422,38.8348853 76.9716969,38.5089493 77.4731369,38.174656 C77.9745769,37.8403627 78.4676595,37.5144267 78.9523849,37.196848 C79.4371102,36.8792693 79.9301929,36.6369067 80.4316329,36.46976 C80.5653502,36.670336 80.7074249,36.8040533 80.8578569,36.870912 C81.0082889,36.9377707 81.1503635,37.021344 81.2840809,37.121632 C81.4512275,37.22192 81.5849449,37.3389227 81.6852329,37.47264 C81.7855209,37.6063573 81.9025235,37.6899307 82.0362409,37.72336 C82.4039635,37.7902187 82.7215422,37.6565013 82.9889769,37.322208 C83.6241342,36.4864747 84.0169289,35.5003093 84.1673609,34.363712 C84.3177929,33.2271147 84.3177929,32.0487307 84.1673609,30.82856 C84.0169289,29.6083893 83.7494942,28.3798613 83.3650569,27.142976 C82.9806195,25.9060907 82.5711102,24.7527787 82.1365289,23.68304 C82.0028115,23.4490347 81.8523795,23.1983147 81.6852329,22.93088 C81.5180862,22.6634453 81.3175102,22.3960107 81.0835049,22.128576 C80.8160702,21.827712 80.5152062,21.5686347 80.1809129,21.351344 C79.8466195,21.1340533 79.5123262,20.9418347 79.1780329,20.774688 C78.9105982,20.6075413 78.6765929,20.4571093 78.4760169,20.323392 C78.2754409,20.1896747 78.0581502,20.122816 77.8241449,20.122816 C77.6569982,20.122816 77.5149235,20.1311733 77.3979209,20.147888 C77.2809182,20.1646027 77.1555582,20.2063893 77.0218409,20.273248 C76.1526782,20.473824 75.2668009,20.7914027 74.3642089,21.225984 C73.4616169,21.6605653 72.6091689,22.1954347 71.8068649,22.830592 C71.0045609,23.4657493 70.3025449,24.209552 69.7008169,25.062 C69.0990889,25.914448 68.6979369,26.8755413 68.4973609,27.94528 C68.4305022,28.1124267 68.4472169,28.2127147 68.5475049,28.246144 C68.6812222,28.2795733 68.7982249,28.2628587 68.8985129,28.196 C68.9653715,28.1625707 69.0405875,28.1291413 69.1241609,28.095712 C69.2077342,28.0622827 69.2829502,28.0121387 69.3498089,27.94528 C70.6201235,26.6749653 71.9322249,25.6470133 73.2861129,24.861424 C74.6400009,24.0758347 76.1693929,23.68304 77.8742889,23.68304 C78.3088702,23.8501867 78.7601662,24.1677653 79.2281769,24.635776 C79.6961875,25.1037867 80.1140542,25.6302987 80.4817769,26.215312 C80.8494995,26.8003253 81.1252915,27.418768 81.3091529,28.07064 C81.4930142,28.722512 81.5013715,29.3325973 81.3342249,29.900896 L81.3342249,29.900896 L80.5319209,29.249024 C80.2979155,29.048448 80.0388382,28.847872 79.7546889,28.647296 C79.4705395,28.44672 79.1780329,28.2795733 78.8771689,28.145856 C78.5763049,28.0121387 78.2670835,27.920208 77.9495049,27.870064 C77.6319262,27.81992 77.3227049,27.844992 77.0218409,27.94528 C74.4477822,28.8144427 72.7428862,30.5193387 71.9071529,33.059968 C71.6062889,33.9291307 71.4140702,34.789936 71.3304969,35.642384 C71.2469235,36.494832 71.2552809,37.2887787 71.3555689,38.024224 C71.4224275,38.3919467 71.4892862,38.60088 71.5561449,38.651024 C71.6230035,38.701168 71.7734355,38.826528 72.0074409,39.027104 C72.3417342,39.2945387 72.6509555,39.5369013 72.9351049,39.754192 Z M73.6120489,37.322208 C73.4114729,36.8876267 73.3028275,36.4112587 73.2861129,35.893104 C73.2693982,35.3749493 73.3111849,34.8567947 73.4114729,34.33864 C73.5117609,33.8204853 73.6621929,33.3023307 73.8627689,32.784176 C74.0633449,32.2660213 74.2639209,31.7896533 74.4644969,31.355072 C75.0996542,30.853632 75.7264542,30.552768 76.3448969,30.45248 C76.9633395,30.352192 77.5399955,30.3939787 78.0748649,30.57784 C78.6097342,30.7617013 79.0861022,31.0374933 79.5039689,31.405216 C79.9218355,31.7729387 80.2310569,32.1740907 80.4316329,32.608672 C80.4316329,32.809248 80.4734195,32.9763947 80.5569929,33.110112 C80.6405662,33.2438293 80.7074249,33.360832 80.7575689,33.46112 C80.8077129,33.561408 80.8160702,33.6784107 80.7826409,33.812128 C80.7492115,33.9458453 80.6322089,34.112992 80.4316329,34.313568 C79.5624702,34.7481493 78.5261609,35.2495893 77.3227049,35.817888 C76.1192489,36.3861867 74.8823635,36.8876267 73.6120489,37.322208 Z M104.425537,38.651024 C104.50911,38.7680267 104.63447,38.7930987 104.801617,38.72624 C105.002193,38.625952 105.194412,38.500592 105.378273,38.35016 C105.562134,38.199728 105.754353,38.074368 105.954929,37.97408 L105.954929,37.97408 L108.963569,36.46976 C109.832732,36.0351787 110.65175,35.391664 111.420625,34.539216 C112.1895,33.686768 112.791228,32.6253867 113.225809,31.355072 C113.66039,30.9204907 113.936182,30.402336 114.053185,29.800608 C114.170188,29.19888 114.178545,28.5804373 114.078257,27.94528 C113.977969,27.3101227 113.777393,26.69168 113.476529,26.089952 C113.175665,25.488224 112.807942,24.9700693 112.373361,24.535488 C112.039068,24.2011947 111.721489,23.908688 111.420625,23.657968 C111.119761,23.407248 110.802182,23.2986027 110.467889,23.332032 C110.267313,23.332032 110.050022,23.4490347 109.816017,23.68304 C109.18086,23.7164693 108.604204,23.858544 108.086049,24.109264 C107.567894,24.359984 107.091526,24.6692053 106.656945,25.036928 C106.222364,25.4046507 105.846284,25.8058027 105.528705,26.240384 C105.211126,26.6749653 104.935334,27.0594027 104.701329,27.393696 C104.701329,26.390816 104.659542,25.3210773 104.575969,24.18448 C104.492396,23.0478827 104.400465,21.902928 104.300177,20.749616 C104.199889,19.596304 104.099601,18.4513493 103.999313,17.314752 C103.899025,16.1781547 103.848881,15.0917013 103.848881,14.055392 C103.848881,13.955104 103.823809,13.8882453 103.773665,13.854816 C103.723521,13.8213867 103.66502,13.7712427 103.598161,13.704384 C103.531302,13.5706667 103.472801,13.4453067 103.422657,13.328304 C103.372513,13.2113013 103.297297,13.1360853 103.197009,13.102656 C103.029862,13.0357973 102.896145,13.0190827 102.795857,13.052512 C102.695569,13.0859413 102.611996,13.1193707 102.545137,13.1528 C102.37799,13.2196587 102.269345,13.3199467 102.219201,13.453664 C102.169057,13.5873813 102.143985,13.8715307 102.143985,14.306112 C102.077126,15.6432853 102.018625,17.2228213 101.968481,19.04472 C101.918337,20.8666187 101.901622,22.755376 101.918337,24.710992 C101.935052,26.666608 102.018625,28.6305813 102.169057,30.602912 C102.319489,32.5752427 102.578566,34.3804267 102.946289,36.018464 C103.013148,36.3861867 103.063292,36.670336 103.096721,36.870912 C103.13015,37.071488 103.197009,37.322208 103.297297,37.623072 C103.397585,37.9573653 103.648305,38.2080853 104.049457,38.375232 C104.216604,38.4420907 104.341964,38.5340213 104.425537,38.651024 Z M106.005073,34.96544 C105.570492,33.6951253 105.38663,32.408096 105.453489,31.104352 C105.520348,29.800608 106.038502,28.5637227 107.007953,27.393696 C107.375676,26.9256853 107.843686,26.4994613 108.411985,26.115024 C108.980284,25.7305867 109.448294,25.488224 109.816017,25.387936 C110.050022,25.4547947 110.317457,25.6052267 110.618321,25.839232 C110.919185,26.0732373 111.194977,26.340672 111.445697,26.641536 C111.696417,26.9424 111.913708,27.2516213 112.097569,27.5692 C112.28143,27.8867787 112.373361,28.145856 112.373361,28.346432 C112.373361,29.2155947 112.323217,29.9092533 112.222929,30.427408 C112.122641,30.9455627 111.888636,31.4219307 111.520913,31.856512 C111.18662,32.1239467 110.768753,32.4164533 110.267313,32.734032 C109.765873,33.0516107 109.247718,33.360832 108.712849,33.661696 C108.17798,33.96256 107.668182,34.2299947 107.183457,34.464 C106.698732,34.6980053 106.305937,34.865152 106.005073,34.96544 Z M118.591217,23.1816 C119.226374,23.2150293 119.83646,23.206672 120.421473,23.156528 C121.006486,23.106384 121.55807,23.0395253 122.076225,22.955952 C122.59438,22.8723787 123.070748,22.830592 123.505329,22.830592 C123.672476,22.8640213 123.781121,22.7971627 123.831265,22.630016 C123.881409,22.4628693 123.772764,22.2455787 123.505329,21.978144 C123.237894,21.476704 122.920316,21.1674827 122.552593,21.05048 C122.18487,20.9334773 121.71686,20.8415467 121.148561,20.774688 C120.780838,20.7412587 120.321185,20.649328 119.769601,20.498896 C119.218017,20.348464 118.758364,20.273248 118.390641,20.273248 C118.190065,20.3066773 117.997846,20.3818933 117.813985,20.498896 C117.630124,20.6158987 117.488049,20.824832 117.387761,21.125696 C117.220614,21.5602773 116.994966,21.8862133 116.710817,22.103504 C116.426668,22.3207947 116.41831,22.5631573 116.685745,22.830592 C117.320902,23.031168 117.95606,23.1481707 118.591217,23.1816 Z M120.747409,39.027104 C121.115132,38.6593813 121.532998,38.375232 122.001009,38.174656 C122.201585,38.074368 122.34366,37.9907947 122.427233,37.923936 C122.510806,37.8570773 122.619452,37.673216 122.753169,37.372352 C122.820028,37.2052053 122.928673,37.046416 123.079105,36.895984 C123.229537,36.745552 123.304753,36.6034773 123.304753,36.46976 C123.304753,35.767744 123.296396,35.115872 123.279681,34.514144 C123.262966,33.912416 123.229537,33.3190453 123.179393,32.734032 C123.129249,32.1490187 123.045676,31.5389333 122.928673,30.903776 C122.81167,30.2686187 122.652881,29.5666027 122.452305,28.797728 C122.352017,28.5302933 122.193228,28.3882187 121.975937,28.371504 C121.758646,28.3547893 121.532998,28.2795733 121.298993,28.145856 C121.031558,27.9787093 120.755766,27.8115627 120.471617,27.644416 C120.187468,27.4772693 119.92839,27.4271253 119.694385,27.493984 C119.493809,27.5608427 119.309948,27.6778453 119.142801,27.844992 C118.975654,28.0121387 118.942225,28.3297173 119.042513,28.797728 C119.243089,29.6668907 119.368449,30.5611253 119.418593,31.480432 C119.468737,32.3997387 119.518881,33.310688 119.569025,34.21328 C119.619169,35.115872 119.719457,35.9850347 119.869889,36.820768 C120.020321,37.6565013 120.312828,38.3919467 120.747409,39.027104 Z M135.113665,38.776384 C135.330956,39.0103893 135.640177,39.0438187 136.041329,38.876672 C136.308764,38.776384 136.584556,38.72624 136.868705,38.72624 C137.152854,38.72624 137.428646,38.6928107 137.696081,38.625952 C138.498385,38.425376 139.400977,38.0910827 140.403857,37.623072 C141.406737,37.1550613 142.342758,36.6369067 143.211921,36.068608 C143.679932,35.767744 143.980796,35.4835947 144.114513,35.21616 C144.24823,34.9487253 144.49895,34.6980053 144.866673,34.464 C145.200966,34.2299947 145.526902,34.012704 145.844481,33.812128 C146.16206,33.611552 146.454566,33.3942613 146.722001,33.160256 C147.223441,32.7256747 147.474161,32.2743787 147.474161,31.806368 C146.772145,32.1740907 145.986556,32.5836 145.117393,33.034896 C144.24823,33.486192 143.420854,33.9040587 142.635265,34.288496 C141.849676,34.6729333 141.164374,35.0072267 140.579361,35.291376 C139.994348,35.5755253 139.634982,35.7343147 139.501265,35.767744 C138.999825,35.9348907 138.5151,36.0268213 138.047089,36.043536 C137.579078,36.0602507 137.311644,35.7844587 137.244785,35.21616 C137.177926,34.4807147 137.13614,33.611552 137.119425,32.608672 C137.10271,31.605792 137.127782,30.5193387 137.194641,29.349312 C138.498385,29.2155947 139.760342,29.0651627 140.980513,28.898016 C142.200684,28.7308693 143.262065,28.547008 144.164657,28.346432 C144.264945,28.3130027 144.398662,28.2545013 144.565809,28.170928 L144.684901,28.112949 C144.797725,28.059671 144.891745,28.020496 144.966961,27.995424 C145.267825,27.9619947 145.476758,27.9034933 145.593761,27.81992 C145.710764,27.7363467 145.78598,27.6611307 145.819409,27.594272 C145.819409,27.5274133 145.802694,27.493984 145.769265,27.493984 C145.735836,27.493984 145.685692,27.4605547 145.618833,27.393696 L145.618833,27.393696 L143.161777,27.042688 C142.392902,26.9758293 141.507025,26.9340427 140.504145,26.917328 C139.501265,26.9006133 138.448241,26.892256 137.345073,26.892256 C137.445361,25.4547947 137.579078,24.0256907 137.746225,22.604944 C137.913372,21.1841973 138.072161,19.9138827 138.222593,18.794 C138.373025,17.6741173 138.5151,16.7464533 138.648817,16.011008 C138.782534,15.2755627 138.882822,14.857696 138.949681,14.757408 C139.083398,14.3896853 139.200401,14.0888213 139.300689,13.854816 C139.400977,13.6208107 139.451121,13.4202347 139.451121,13.253088 C139.451121,13.0859413 139.384262,12.9438667 139.250545,12.826864 C139.116828,12.7098613 138.899537,12.5677867 138.598673,12.40064 C138.331238,12.40064 138.122305,12.4591413 137.971873,12.576144 C137.821441,12.6931467 137.679366,12.7850773 137.545649,12.851936 C137.278214,13.0190827 137.019137,13.1611573 136.768417,13.27816 C136.517697,13.3951627 136.392337,13.604096 136.392337,13.90496 C135.924326,15.0749867 135.523174,16.8467413 135.188881,19.220224 C134.854588,21.5937067 134.620582,24.1677653 134.486865,26.9424 C132.915686,27.0092587 131.453153,27.06776 130.099265,27.117904 C128.745377,27.168048 127.717425,27.2098347 127.015409,27.243264 C126.94855,27.44384 126.85662,27.6862027 126.739617,27.970352 C126.622614,28.2545013 126.714545,28.396576 127.015409,28.396576 C127.349702,28.7308693 127.725782,28.973232 128.143649,29.123664 C128.561516,29.274096 129.021169,29.3827413 129.522609,29.4496 C130.057478,29.549888 130.751137,29.6083893 131.603585,29.625104 C132.456033,29.6418187 133.383697,29.6167467 134.386577,29.549888 C134.353148,30.9873493 134.361505,32.408096 134.411649,33.812128 C134.461793,35.21616 134.553724,36.5366187 134.687441,37.773504 C134.7543,38.2080853 134.896374,38.5423787 135.113665,38.776384 Z M164.773841,39.10232 C165.576145,39.3864693 166.31159,39.4784 166.980177,39.378112 C167.983057,39.2443947 168.94415,38.7847413 169.863457,37.999152 C170.782764,37.2135627 171.626854,36.2357547 172.395729,35.065728 C173.131174,34.4974293 173.58247,33.8539147 173.749617,33.135184 C173.916764,32.4164533 173.925121,31.655936 173.774689,30.853632 C173.624257,30.051328 173.406966,29.2406667 173.122817,28.421648 C172.838668,27.6026293 172.629734,26.791968 172.496017,25.989664 C172.429158,25.4213653 172.262012,25.036928 171.994577,24.836352 C171.727142,24.635776 171.392849,24.5020587 170.991697,24.4352 C170.456828,24.4352 169.913601,24.4937013 169.362017,24.610704 C168.810433,24.7277067 168.400924,24.8029227 168.133489,24.836352 L168.133489,24.836352 L168.985937,23.983904 C168.85222,23.8501867 168.735217,23.783328 168.634929,23.783328 L168.634929,23.783328 L168.384209,23.783328 C167.983057,23.7164693 167.615334,23.783328 167.281041,23.983904 C166.31159,24.7527787 165.517644,25.6302987 164.899201,26.616464 C164.280758,27.6026293 163.779318,28.6556533 163.394881,29.775536 C163.010444,30.8954187 162.726294,32.0487307 162.542433,33.235472 C162.358572,34.4222133 162.249926,35.6005973 162.216497,36.770624 L162.216497,36.770624 L162.216497,36.9712 C162.216497,37.1383467 162.233212,37.272064 162.266641,37.372352 C162.30007,37.4392107 162.341857,37.4559253 162.392001,37.422496 C162.442145,37.3890667 162.500646,37.4057813 162.567505,37.47264 C162.634364,37.5394987 162.701222,37.598 162.768081,37.648144 C162.83494,37.698288 162.918513,37.6899307 163.018801,37.623072 C163.386524,38.325088 163.971537,38.8181707 164.773841,39.10232 Z M167.281041,37.623072 C166.679313,37.923936 166.194588,38.024224 165.826865,37.923936 C165.492572,37.8570773 165.241852,37.648144 165.074705,37.297136 C164.907558,36.946128 164.790556,36.4864747 164.723697,35.918176 C164.656838,35.2495893 164.615052,34.464 164.598337,33.561408 C164.581622,32.658816 164.656838,31.731152 164.823985,30.778416 C164.991132,29.82568 165.266924,28.898016 165.651361,27.995424 C166.035798,27.092832 166.579025,26.3239573 167.281041,25.6888 C167.281041,25.889376 167.239254,26.089952 167.155681,26.290528 C167.072108,26.491104 167.005249,26.666608 166.955105,26.81704 C166.904961,26.967472 166.896604,27.092832 166.930033,27.19312 C166.963462,27.293408 167.080465,27.3602667 167.281041,27.393696 C168.183633,27.5608427 168.97758,27.81992 169.662881,28.170928 C170.348182,28.521936 170.774406,29.0818773 170.941553,29.850752 C171.07527,30.4190507 171.100342,31.029136 171.016769,31.681008 C170.933196,32.33288 170.82455,32.8928213 170.690833,33.360832 C170.35654,34.2299947 169.921958,35.0490133 169.387089,35.817888 C168.85222,36.5867627 168.150204,37.1884907 167.281041,37.623072 Z M182.223953,41.333728 C182.491388,41.333728 182.842396,41.2000107 183.276977,40.932576 C183.343836,40.8657173 183.402337,40.8155733 183.452481,40.782144 C183.502625,40.7487147 183.577841,40.6985707 183.678129,40.631712 C183.744988,40.4979947 183.753345,40.3893493 183.703201,40.305776 L183.680135,40.2526234 C183.65874,40.1777417 183.674786,40.0868139 183.728273,39.97984 C184.062566,39.2109653 184.321644,38.3668747 184.505505,37.447568 C184.689366,36.5282613 184.814726,35.59224 184.881585,34.639504 C184.948444,33.686768 184.956801,32.7423893 184.906657,31.806368 C184.856513,30.8703467 184.781297,29.9844693 184.681009,29.148736 C185.048732,29.1153067 185.39974,29.0902347 185.734033,29.07352 C186.068326,29.0568053 186.419334,29.048448 186.787057,29.048448 C187.255068,29.0150187 187.723078,28.9648747 188.191089,28.898016 C188.6591,28.8311573 189.12711,28.7141547 189.595121,28.547008 C189.862556,28.44672 190.104918,28.4049333 190.322209,28.421648 C190.5395,28.4383627 190.781862,28.3631467 191.049297,28.196 C191.517308,27.895136 191.66774,27.7112747 191.500593,27.644416 C190.464284,27.243264 189.319329,26.9507573 188.065729,26.766896 C186.812129,26.5830347 185.533457,26.491104 184.229713,26.491104 C184.196284,26.4242453 184.179569,26.340672 184.179569,26.240384 C183.778417,25.036928 183.377265,23.6746827 182.976113,22.153648 C182.574961,20.6326133 182.173809,19.069792 181.772657,17.465184 C181.60551,16.8300267 181.63894,16.1447253 181.872945,15.40928 C181.973233,15.1418453 182.115308,14.8409813 182.299169,14.506688 C182.48303,14.1723947 182.625105,13.9718187 182.725393,13.90496 C182.89254,13.8381013 183.10983,13.8715307 183.377265,14.005248 C183.6447,14.1389653 183.928849,14.306112 184.229713,14.506688 C184.530577,14.707264 184.814726,14.932912 185.082161,15.183632 C185.349596,15.434352 185.566886,15.6432853 185.734033,15.810432 C186.068326,15.9775787 186.352476,16.1781547 186.586481,16.41216 C186.820486,16.6461653 187.054492,16.7965973 187.288497,16.863456 C187.62279,16.863456 187.923654,16.763168 188.191089,16.562592 C188.425094,16.3954453 188.692529,16.211584 188.993393,16.011008 C189.294257,15.810432 189.294257,15.5262827 188.993393,15.15856 C188.62567,14.5902613 188.241233,14.03032 187.840081,13.478736 C187.438929,12.927152 187.012705,12.425712 186.561409,11.974416 C186.110113,11.52312 185.61703,11.1386827 185.082161,10.821104 C184.547292,10.5035253 183.945564,10.2778773 183.276977,10.14416 C183.10983,10.1107307 182.934326,10.1274453 182.750465,10.194304 C182.566604,10.2611627 182.3911,10.3280213 182.223953,10.39488 C181.85623,10.5285973 181.555366,10.7626027 181.321361,11.096896 C180.686204,12.0329173 180.209836,13.127728 179.892257,14.381328 C179.574678,15.634928 179.390817,16.9470293 179.340673,18.317632 C179.290529,19.6882347 179.365745,21.0588373 179.566321,22.42944 C179.766897,23.8000427 180.067761,25.0703573 180.468913,26.240384 C180.468913,26.3072427 180.502342,26.44096 180.569201,26.641536 C179.800326,26.7083947 179.073238,26.791968 178.387937,26.892256 C177.702636,26.992544 177.075836,27.1095467 176.507537,27.243264 C176.34039,27.2766933 176.21503,27.31848 176.131457,27.368624 C176.047884,27.418768 176.022812,27.5608427 176.056241,27.794848 C176.056241,27.8617067 176.114742,27.9369227 176.231745,28.020496 C176.348748,28.1040693 176.390534,28.246144 176.357105,28.44672 C176.357105,28.547008 176.423964,28.622224 176.557681,28.672368 C176.691398,28.722512 176.84183,28.7559413 177.008977,28.772656 C177.176124,28.7893707 177.334913,28.797728 177.485345,28.797728 L177.485345,28.797728 L177.761137,28.797728 C178.931164,29.0317333 180.084476,29.148736 181.221073,29.148736 C181.85623,31.655936 182.26574,33.8539147 182.449601,35.742672 C182.633462,37.6314293 182.541532,39.2945387 182.173809,40.732 C182.10695,40.8657173 182.081878,40.9994347 182.098593,41.133152 C182.115308,41.2668693 182.157094,41.333728 182.223953,41.333728 Z M212.009489,40.431136 C212.310353,40.6985707 212.861937,40.782144 213.664241,40.681856 C215.068273,40.4144213 216.472305,39.9881973 217.876337,39.403184 C219.280369,38.8181707 220.46711,38.1913707 221.436561,37.522784 C222.940881,36.4530453 224.085836,35.1994453 224.871425,33.761984 C225.657014,32.3245227 226.216956,30.803488 226.551249,29.19888 C226.885542,27.594272 227.01926,25.9729493 226.952401,24.334912 C226.885542,22.6968747 226.751825,21.125696 226.551249,19.621376 C226.551249,19.4542293 226.476033,19.4124427 226.325601,19.496016 C226.175169,19.5795893 226.099953,19.6548053 226.099953,19.721664 C226.066524,19.7885227 226.049809,19.872096 226.049809,19.972384 L226.044237,20.0671004 C226.036809,20.1265304 226.021951,20.1785316 225.999665,20.223104 C225.966236,20.323392 225.949521,20.42368 225.949521,20.523968 C225.949521,20.624256 225.907734,20.7161867 225.824161,20.79976 C225.740588,20.8833333 225.698801,20.975264 225.698801,21.075552 C225.698801,22.3124373 225.665372,23.582752 225.598513,24.886496 C225.531654,26.19024 225.331078,27.4521973 224.996785,28.672368 C224.662492,29.8925387 224.152694,31.0458507 223.467393,32.132304 C222.782092,33.2187573 221.820998,34.163136 220.584113,34.96544 C219.71495,35.5337387 218.703713,35.9850347 217.550401,36.319328 C216.397089,36.6536213 215.252134,36.7873387 214.115537,36.72048 C212.97894,36.6536213 212.009489,36.3527573 211.207185,35.817888 C211.207185,35.5504533 211.173756,35.366592 211.106897,35.266304 C211.040038,35.166016 210.989894,35.0322987 210.956465,34.865152 C210.956465,34.7982933 210.981537,34.7063627 211.031681,34.58936 C211.081825,34.4723573 211.140326,34.313568 211.207185,34.112992 C211.140326,32.8761067 211.182113,31.5723627 211.332545,30.20176 C211.482977,28.8311573 211.708625,27.4521973 212.009489,26.06488 C212.310353,24.6775627 212.686433,23.2986027 213.137729,21.928 C213.589025,20.5573973 214.082108,19.220224 214.616977,17.91648 C214.550118,17.8496213 214.558476,17.7994773 214.642049,17.766048 C214.725622,17.7326187 214.73398,17.6991893 214.667121,17.66576 C214.600262,17.6323307 214.491617,17.6072587 214.341185,17.590544 C214.190753,17.5738293 214.082108,17.565472 214.015249,17.565472 C213.881532,17.5320427 213.689313,17.6072587 213.438593,17.79112 C213.187873,17.9749813 212.995654,18.1003413 212.861937,18.1672 C212.661361,18.3009173 212.519286,18.367776 212.435713,18.367776 C212.35214,18.367776 212.22678,18.5014933 212.059633,18.768928 C211.457905,20.0058133 210.831105,21.4182027 210.179233,23.006096 C209.527361,24.5939893 209.017564,26.2570987 208.649841,27.995424 C208.282118,29.7337493 208.131686,31.4971467 208.198545,33.285616 C208.265404,35.0740853 208.699985,36.770624 209.502289,38.375232 C209.736294,38.8098133 209.928513,39.0939627 210.078945,39.22768 C210.229377,39.3613973 210.538598,39.5452587 211.006609,39.779264 C211.374332,39.9464107 211.708625,40.1637013 212.009489,40.431136 Z M237.582929,39.879552 C237.649788,39.5118293 237.691574,39.0605333 237.708289,38.525664 C237.725004,37.9907947 237.683217,37.5896427 237.582929,37.322208 C237.415782,36.9544853 237.39071,36.544976 237.507713,36.09368 C237.624716,35.642384 237.649788,35.1994453 237.582929,34.764864 C237.181777,31.45536 236.79734,28.1625707 236.429617,24.886496 C236.061894,21.6104213 235.744316,18.317632 235.476881,15.008128 C235.443452,14.8409813 235.376593,14.7406933 235.276305,14.707264 C235.176017,14.6738347 235.075729,14.606976 234.975441,14.506688 C234.908582,14.4398293 234.808294,14.3646133 234.674577,14.28104 C234.54086,14.1974667 234.390428,14.1389653 234.223281,14.105536 C234.056134,14.0721067 233.91406,14.03032 233.797057,13.980176 C233.680054,13.930032 233.588124,13.9383893 233.521265,14.005248 C233.387548,14.1389653 233.320689,14.4899733 233.320689,15.058272 C233.320689,16.763168 233.329046,18.5599947 233.345761,20.448752 C233.362476,22.3375093 233.420977,24.2513387 233.521265,26.19024 C233.621553,28.1291413 233.7887,30.0429707 234.022705,31.931728 C234.25671,33.8204853 234.591004,35.617312 235.025585,37.322208 C235.159302,37.72336 235.368236,38.049296 235.652385,38.300016 C235.936534,38.550736 236.195612,38.8098133 236.429617,39.077248 C236.630193,39.3112533 236.822412,39.503472 237.006273,39.653904 C237.190134,39.804336 237.382353,39.879552 237.582929,39.879552 Z" id="andabitofUI"></path>
                <g id="noun_Hand-drawn-arrow_2092514" transform="translate(298.250939, 55.992211) rotate(65.000000) translate(-298.250939, -55.992211) translate(253.250939, 20.992211)">
                    <path d="M88.29,0.52 C86.35,-0.11 84.2,0.5 82.28,0.91 C80.03,1.39 77.79,1.88 75.56,2.39 C71.01,3.42 66.47,4.51 61.93,5.59 C60.66,5.89 59.61,9.15 61.34,8.74 C65.14,7.83 68.93,6.93 72.73,6.05 C75.94,5.31 79.17,4.47 82.41,3.87 C70.1,8.66 58.01,14.08 46.66,20.86 C34.38,28.2 23,37.15 13.63,48.01 C8.47,54 3.96,60.57 0.36,67.61 C0.08,68.15 -0.31,69.24 0.39,69.65 C1.06,70.04 1.91,69.18 2.17,68.66 C8.34,56.58 17.22,46.13 27.52,37.37 C38.66,27.91 51.37,20.49 64.58,14.33 C71.57,11.07 78.71,8.16 85.92,5.43 C85,6.42 84.07,7.4 83.14,8.38 C80.48,11.18 77.76,13.92 75,16.61 C74.45,17.14 73.86,18.06 74.13,18.87 C74.38,19.61 75.2,19.52 75.69,19.04 C78.87,15.94 81.99,12.78 85.04,9.55 C86.51,8.02 93.05,2.06 88.29,0.52 Z" id="Path"></path>
                </g>
            </g>
        </g>
    </g>
</svg>