<?xml version="1.0" encoding="UTF-8"?>
<svg width="439px" height="365px" viewBox="0 0 439 365" version="1.1" xmlns="http://www.w3.org/2000/svg" xmlns:xlink="http://www.w3.org/1999/xlink">
    <title>Group 3</title>
    <defs>
        <polygon id="path-1" points="219 73 345 267 93 267"></polygon>
        <mask id="mask-2" maskContentUnits="userSpaceOnUse" maskUnits="objectBoundingBox" x="0" y="0" width="252" height="194" fill="white">
            <use xlink:href="#path-1"></use>
        </mask>
        <circle id="path-3" cx="73" cy="73" r="73"></circle>
        <filter x="-15.1%" y="-9.6%" width="130.1%" height="130.1%" filterUnits="objectBoundingBox" id="filter-4">
            <feOffset dx="0" dy="8" in="SourceAlpha" result="shadowOffsetOuter1"></feOffset>
            <feGaussianBlur stdDeviation="6" in="shadowOffsetOuter1" result="shadowBlurOuter1"></feGaussianBlur>
            <feComposite in="shadowBlurOuter1" in2="SourceAlpha" operator="out" result="shadowBlurOuter1"></feComposite>
            <feColorMatrix values="0 0 0 0 0   0 0 0 0 0   0 0 0 0 0  0 0 0 0.0532124126 0" type="matrix" in="shadowBlurOuter1" result="shadowMatrixOuter1"></feColorMatrix>
            <feOffset dx="0" dy="1" in="SourceAlpha" result="shadowOffsetOuter2"></feOffset>
            <feComposite in="shadowOffsetOuter2" in2="SourceAlpha" operator="out" result="shadowOffsetOuter2"></feComposite>
            <feColorMatrix values="0 0 0 0 0   0 0 0 0 0   0 0 0 0 0  0 0 0 0.106588724 0" type="matrix" in="shadowOffsetOuter2" result="shadowMatrixOuter2"></feColorMatrix>
            <feMerge>
                <feMergeNode in="shadowMatrixOuter1"></feMergeNode>
                <feMergeNode in="shadowMatrixOuter2"></feMergeNode>
            </feMerge>
        </filter>
        <circle id="path-5" cx="48" cy="48" r="48"></circle>
        <filter x="-13.5%" y="-11.5%" width="127.1%" height="127.1%" filterUnits="objectBoundingBox" id="filter-6">
            <feOffset dx="0" dy="2" in="SourceAlpha" result="shadowOffsetOuter1"></feOffset>
            <feGaussianBlur stdDeviation="4" in="shadowOffsetOuter1" result="shadowBlurOuter1"></feGaussianBlur>
            <feColorMatrix values="0 0 0 0 0   0 0 0 0 0   0 0 0 0 0  0 0 0 0.166111233 0" type="matrix" in="shadowBlurOuter1"></feColorMatrix>
        </filter>
        <circle id="path-7" cx="73" cy="73" r="73"></circle>
        <filter x="-15.1%" y="-9.6%" width="130.1%" height="130.1%" filterUnits="objectBoundingBox" id="filter-8">
            <feOffset dx="0" dy="8" in="SourceAlpha" result="shadowOffsetOuter1"></feOffset>
            <feGaussianBlur stdDeviation="6" in="shadowOffsetOuter1" result="shadowBlurOuter1"></feGaussianBlur>
            <feComposite in="shadowBlurOuter1" in2="SourceAlpha" operator="out" result="shadowBlurOuter1"></feComposite>
            <feColorMatrix values="0 0 0 0 0   0 0 0 0 0   0 0 0 0 0  0 0 0 0.0532124126 0" type="matrix" in="shadowBlurOuter1" result="shadowMatrixOuter1"></feColorMatrix>
            <feOffset dx="0" dy="1" in="SourceAlpha" result="shadowOffsetOuter2"></feOffset>
            <feComposite in="shadowOffsetOuter2" in2="SourceAlpha" operator="out" result="shadowOffsetOuter2"></feComposite>
            <feColorMatrix values="0 0 0 0 0   0 0 0 0 0   0 0 0 0 0  0 0 0 0.106588724 0" type="matrix" in="shadowOffsetOuter2" result="shadowMatrixOuter2"></feColorMatrix>
            <feMerge>
                <feMergeNode in="shadowMatrixOuter1"></feMergeNode>
                <feMergeNode in="shadowMatrixOuter2"></feMergeNode>
            </feMerge>
        </filter>
        <circle id="path-9" cx="73" cy="73" r="73"></circle>
        <filter x="-15.1%" y="-9.6%" width="130.1%" height="130.1%" filterUnits="objectBoundingBox" id="filter-10">
            <feOffset dx="0" dy="8" in="SourceAlpha" result="shadowOffsetOuter1"></feOffset>
            <feGaussianBlur stdDeviation="6" in="shadowOffsetOuter1" result="shadowBlurOuter1"></feGaussianBlur>
            <feComposite in="shadowBlurOuter1" in2="SourceAlpha" operator="out" result="shadowBlurOuter1"></feComposite>
            <feColorMatrix values="0 0 0 0 0   0 0 0 0 0   0 0 0 0 0  0 0 0 0.0532124126 0" type="matrix" in="shadowBlurOuter1" result="shadowMatrixOuter1"></feColorMatrix>
            <feOffset dx="0" dy="1" in="SourceAlpha" result="shadowOffsetOuter2"></feOffset>
            <feComposite in="shadowOffsetOuter2" in2="SourceAlpha" operator="out" result="shadowOffsetOuter2"></feComposite>
            <feColorMatrix values="0 0 0 0 0   0 0 0 0 0   0 0 0 0 0  0 0 0 0.106588724 0" type="matrix" in="shadowOffsetOuter2" result="shadowMatrixOuter2"></feColorMatrix>
            <feMerge>
                <feMergeNode in="shadowMatrixOuter1"></feMergeNode>
                <feMergeNode in="shadowMatrixOuter2"></feMergeNode>
            </feMerge>
        </filter>
    </defs>
    <g id="Page-1" stroke="none" stroke-width="1" fill="none" fill-rule="evenodd">
        <g id="app-process-copy-5" transform="translate(-160.000000, -129.000000)">
            <g id="Group-3" transform="translate(168.369355, 133.874938)">
                <use id="Triangle" stroke="#979797" mask="url(#mask-2)" stroke-width="2.6" stroke-dasharray="5" xlink:href="#path-1"></use>
                <g id="Group" transform="translate(146.000000, 0.000000)">
                    <g id="Oval">
                        <use fill="black" fill-opacity="1" filter="url(#filter-4)" xlink:href="#path-3"></use>
                        <circle stroke-opacity="0.16529174" stroke="#C5C5C5" stroke-width="1" stroke-linejoin="square" fill="#FFFFFF" fill-rule="evenodd" cx="73" cy="73" r="72.5"></circle>
                    </g>
                    <path d="M23.284,80 L24.297,76.968 L29.837,76.968 L30.862,80 L32.527,80 L28.189,67.04 L25.957,67.04 L21.619,80 L23.284,80 Z M29.33,75.464 L24.801,75.464 L27.055,68.726 L29.33,75.464 Z M35.758,80 L35.758,74.879 C35.758,74.315 35.8225,73.8245 35.9515,73.4075 C36.0805,72.9905 36.262,72.644 36.496,72.368 C36.73,72.092 37.0105,71.8865 37.3375,71.7515 C37.6645,71.6165 38.029,71.549 38.431,71.549 C38.947,71.549 39.3745,71.648 39.7135,71.846 C40.0525,72.044 40.3225,72.3125 40.5235,72.6515 C40.7245,72.9905 40.8655,73.373 40.9465,73.799 C41.0275,74.225 41.068,74.669 41.068,75.131 L41.068,75.131 L41.068,80 L42.688,80 L42.688,74.627 C42.688,74.255 42.6535,73.8605 42.5845,73.4435 C42.5155,73.0265 42.397,72.6155 42.229,72.2105 C42.061,71.8055 41.83,71.4395 41.536,71.1125 C41.242,70.7855 40.873,70.523 40.429,70.325 C39.985,70.127 39.448,70.028 38.818,70.028 C37.984,70.028 37.2595,70.2095 36.6445,70.5725 C36.2345,70.8145 35.8858333,71.1258333 35.5985,71.5065 L35.577,71.537 L35.578,70.28 L34.138,70.28 L34.138,80 L35.758,80 Z M48.7495,80.1395 C49.3105,80.1605 49.879,80.114 50.455,80 L50.455,80 L50.455,78.623 C49.789,78.725 49.2205,78.743 48.7495,78.677 C48.2785,78.611 47.935,78.386 47.719,78.002 C47.605,77.798 47.5435,77.555 47.5345,77.273 C47.5255,76.991 47.521,76.652 47.521,76.256 L47.521,76.256 L47.52,71.603 L50.455,71.603 L50.455,70.28 L47.52,70.281 L47.521,67.58 L45.919,67.58 L45.918,70.281 L43.948,70.28 L43.948,71.603 L45.918,71.603 L45.919,76.328 C45.919,76.7015 45.9232188,77.0454687 45.9316563,77.3599062 L45.9415,77.6645 C45.9565,78.0575 46.06,78.446 46.252,78.83 C46.48,79.268 46.813,79.5905 47.251,79.7975 C47.689,80.0045 48.1885,80.1185 48.7495,80.1395 Z M54.217,68.561 L54.217,66.905 L52.615,66.905 L52.615,68.561 L54.217,68.561 Z M54.217,80 L54.217,70.28 L52.615,70.28 L52.615,80 L54.217,80 Z M61.012,80.27 C62.02,80.27 62.881,80.03 63.595,79.55 C64.309,79.07 64.834,78.377 65.17,77.471 L65.17,77.471 L63.55,77.048 C63.334,77.6 63.016,78.0215 62.596,78.3125 C62.176,78.6035 61.648,78.749 61.012,78.749 C60.046,78.749 59.3185,78.4175 58.8295,77.7545 C58.3405,77.0915 58.09,76.22 58.078,75.14 C58.084,74.438 58.192,73.8155 58.402,73.2725 C58.612,72.7295 58.933,72.3035 59.365,71.9945 C59.797,71.6855 60.346,71.531 61.012,71.531 C61.606,71.531 62.1325,71.687 62.5915,71.999 C63.0505,72.311 63.382,72.749 63.586,73.313 L63.586,73.313 L65.17,72.836 C64.918,71.96 64.4215,71.27 63.6805,70.766 C62.9395,70.262 62.056,70.01 61.03,70.01 C60.058,70.01 59.227,70.226 58.537,70.658 C57.847,71.09 57.3175,71.6915 56.9485,72.4625 C56.5795,73.2335 56.389,74.126 56.377,75.14 C56.389,76.13 56.575,77.012 56.935,77.786 C57.295,78.56 57.8185,79.1675 58.5055,79.6085 C59.1925,80.0495 60.028,80.27 61.012,80.27 Z M68.797,68.561 L68.797,66.905 L67.195,66.905 L67.195,68.561 L68.797,68.561 Z M68.797,80 L68.797,70.28 L67.195,70.28 L67.195,80 L68.797,80 Z M73.099,84.32 L73.099,79.1 L73.2634444,79.2645 C73.3252963,79.3228333 73.3890185,79.3791667 73.4546111,79.4335 L73.657,79.5905 C74.281,80.0435 75.049,80.27 75.961,80.27 C76.867,80.27 77.6455,80.0435 78.2965,79.5905 C78.9475,79.1375 79.447,78.524 79.795,77.75 C80.143,76.976 80.317,76.103 80.317,75.131 C80.317,74.159 80.143,73.286 79.795,72.512 C79.447,71.738 78.9475,71.1275 78.2965,70.6805 C77.6455,70.2335 76.87,70.01 75.97,70.01 C75.058,70.01 74.2885,70.232 73.6615,70.676 C73.4525,70.824 73.2605,70.9903333 73.0855,71.175 L72.919,71.363 L72.919,70.28 L71.488,70.28 L71.488,84.32 L73.099,84.32 Z M75.763,78.803 C75.109,78.803 74.572,78.6455 74.152,78.3305 C73.732,78.0155 73.4215,77.5805 73.2205,77.0255 C73.0195,76.4705 72.919,75.839 72.919,75.131 C72.919,74.411 73.021,73.7765 73.225,73.2275 C73.429,72.6785 73.738,72.2495 74.152,71.9405 C74.566,71.6315 75.088,71.477 75.718,71.477 C76.378,71.477 76.9225,71.639 77.3515,71.963 C77.7805,72.287 78.0985,72.725 78.3055,73.277 C78.5125,73.829 78.616,74.447 78.616,75.131 C78.616,75.821 78.511,76.4435 78.301,76.9985 C78.091,77.5535 77.776,77.993 77.356,78.317 C76.936,78.641 76.405,78.803 75.763,78.803 Z M85.06,80.27 C86.002,80.27 86.8015,80.069 87.4585,79.667 C87.8965,79.399 88.2698333,79.0456667 88.5785,78.607 L88.66,78.483 L88.66,80 L90.082,80 L90.082,73.988 C90.082,73.604 90.064,73.2365 90.028,72.8855 C89.992,72.5345 89.905,72.209 89.767,71.909 C89.491,71.273 89.0365,70.7975 88.4035,70.4825 C87.7705,70.1675 87.013,70.01 86.131,70.01 C85.033,70.01 84.148,70.253 83.476,70.739 C82.804,71.225 82.351,71.894 82.117,72.746 L82.117,72.746 L83.638,73.205 C83.818,72.605 84.1285,72.1715 84.5695,71.9045 C85.0105,71.6375 85.525,71.504 86.113,71.504 C87.001,71.504 87.6265,71.711 87.9895,72.125 C88.2865,72.4637273 88.4559752,72.9530744 88.4979256,73.5930413 L88.506,73.79 L88.28875,73.81925 C88.1515,73.838 88.0118125,73.8569375 87.8696875,73.8760625 L87.436,73.934 C86.848,74.012 86.2675,74.0975 85.6945,74.1905 C85.1215,74.2835 84.604,74.393 84.142,74.519 C83.65,74.663 83.227,74.8595 82.873,75.1085 C82.519,75.3575 82.2445,75.6695 82.0495,76.0445 C81.8545,76.4195 81.757,76.862 81.757,77.372 C81.757,77.894 81.8815,78.374 82.1305,78.812 C82.3795,79.25 82.7485,79.6025 83.2375,79.8695 C83.7265,80.1365 84.334,80.27 85.06,80.27 Z M85.303,78.929 C84.841,78.929 84.4675,78.854 84.1825,78.704 C83.8975,78.554 83.6875,78.359 83.5525,78.119 C83.4175,77.879 83.35,77.627 83.35,77.363 C83.35,77.057 83.4205,76.8005 83.5615,76.5935 C83.7025,76.3865 83.8885,76.217 84.1195,76.085 C84.3505,75.953 84.598,75.845 84.862,75.761 C85.222,75.659 85.627,75.5705 86.077,75.4955 C86.527,75.4205 87.004,75.35 87.508,75.284 C88.012,75.218 88.525,75.149 89.047,75.077 L88.486,75.154 L88.48414,75.28274 C88.48306,75.34286 88.4818,75.4064 88.48036,75.47336 L88.4755,75.6845 C88.4665,76.0535 88.417,76.388 88.327,76.688 C88.249,77.09 88.081,77.4605 87.823,77.7995 C87.565,78.1385 87.2245,78.4115 86.8015,78.6185 C86.3785,78.8255 85.879,78.929 85.303,78.929 Z M96.1435,80.1395 C96.7045,80.1605 97.273,80.114 97.849,80 L97.849,80 L97.849,78.623 C97.183,78.725 96.6145,78.743 96.1435,78.677 C95.6725,78.611 95.329,78.386 95.113,78.002 C94.999,77.798 94.9375,77.555 94.9285,77.273 C94.9195,76.991 94.915,76.652 94.915,76.256 L94.915,76.256 L94.914,71.603 L97.849,71.603 L97.849,70.28 L94.914,70.281 L94.915,67.58 L93.313,67.58 L93.312,70.281 L91.342,70.28 L91.342,71.603 L93.312,71.603 L93.313,76.328 C93.313,76.7015 93.3172187,77.0454687 93.3256562,77.3599062 L93.3355,77.6645 C93.3505,78.0575 93.454,78.446 93.646,78.83 C93.874,79.268 94.207,79.5905 94.645,79.7975 C95.083,80.0045 95.5825,80.1185 96.1435,80.1395 Z M101.611,68.561 L101.611,66.905 L100.009,66.905 L100.009,68.561 L101.611,68.561 Z M101.611,80 L101.611,70.28 L100.009,70.28 L100.009,80 L101.611,80 Z M108.451,80.27 C109.417,80.27 110.251,80.0525 110.953,79.6175 C111.655,79.1825 112.195,78.5795 112.573,77.8085 C112.951,77.0375 113.14,76.145 113.14,75.131 C113.14,74.129 112.9525,73.2425 112.5775,72.4715 C112.2025,71.7005 111.664,71.0975 110.962,70.6625 C110.26,70.2275 109.423,70.01 108.451,70.01 C107.503,70.01 106.678,70.2245 105.976,70.6535 C105.274,71.0825 104.731,71.681 104.347,72.449 C103.963,73.217 103.771,74.111 103.771,75.131 C103.771,76.133 103.96,77.021 104.338,77.795 C104.716,78.569 105.2545,79.175 105.9535,79.613 C106.6525,80.051 107.485,80.27 108.451,80.27 Z M108.451,78.749 C107.473,78.749 106.732,78.419 106.228,77.759 C105.724,77.099 105.472,76.223 105.472,75.131 C105.472,74.423 105.58,73.799 105.796,73.259 C106.012,72.719 106.339,72.296 106.777,71.99 C107.215,71.684 107.773,71.531 108.451,71.531 C109.447,71.531 110.194,71.8565 110.692,72.5075 C111.19,73.1585 111.439,74.033 111.439,75.131 C111.439,76.199 111.193,77.069 110.701,77.741 C110.209,78.413 109.459,78.749 108.451,78.749 Z M116.731,80 L116.731,74.879 C116.731,74.315 116.7955,73.8245 116.9245,73.4075 C117.0535,72.9905 117.235,72.644 117.469,72.368 C117.703,72.092 117.9835,71.8865 118.3105,71.7515 C118.6375,71.6165 119.002,71.549 119.404,71.549 C119.92,71.549 120.3475,71.648 120.6865,71.846 C121.0255,72.044 121.2955,72.3125 121.4965,72.6515 C121.6975,72.9905 121.8385,73.373 121.9195,73.799 C122.0005,74.225 122.041,74.669 122.041,75.131 L122.041,75.131 L122.041,80 L123.661,80 L123.661,74.627 C123.661,74.255 123.6265,73.8605 123.5575,73.4435 C123.4885,73.0265 123.37,72.6155 123.202,72.2105 C123.034,71.8055 122.803,71.4395 122.509,71.1125 C122.215,70.7855 121.846,70.523 121.402,70.325 C120.958,70.127 120.421,70.028 119.791,70.028 C118.957,70.028 118.2325,70.2095 117.6175,70.5725 C117.2075,70.8145 116.858833,71.1258333 116.5715,71.5065 L116.55,71.537 L116.551,70.28 L115.111,70.28 L115.111,80 L116.731,80 Z" id="Anticipation" fill="#000000" fill-rule="nonzero"></path>
                </g>
                <g id="Group-Copy-3" transform="translate(0.000000, 25.000000)">
                    <g id="Oval" fill-rule="nonzero">
                        <use fill="black" fill-opacity="1" filter="url(#filter-6)" xlink:href="#path-5"></use>
                        <use fill="#102F76" xlink:href="#path-5"></use>
                    </g>
                    <polygon id="Path" fill="#018FFF" fill-rule="nonzero" points="55.1666667 35.0762561 48.9166447 35.0762561 48.9166447 25.701289 40.1666667 38.826278 46.4166886 38.826278 46.4166886 48.2012451"></polygon>
                    <path d="M19.98591,62.2009851 C20.07327,62.2002918 20.21055,62.1982118 20.39775,62.1947451 C20.63175,62.1904118 20.8549167,62.1752451 21.06725,62.1492451 C21.80825,62.0539118 22.4355,61.7906618 22.949,61.3594951 C23.4625,60.9283284 23.8514167,60.3790784 24.11575,59.7117451 C24.3800833,59.0444118 24.51225,58.3142451 24.51225,57.5212451 C24.51225,56.7282451 24.3800833,55.9980784 24.11575,55.3307451 C23.8514167,54.6634118 23.4625,54.1141618 22.949,53.6829951 C22.4355,53.2518284 21.80825,52.9885784 21.06725,52.8932451 C20.8505833,52.8672451 20.6263333,52.8520784 20.3945,52.8477451 C20.1626667,52.8434118 20.00775,52.8412451 19.92975,52.8412451 L19.92975,52.8412451 L16.94625,52.8412451 L16.94625,62.2012451 L19.98591,62.2009851 Z M19.92975,60.7257451 L18.53875,60.7257451 L18.53875,54.3167451 L19.92975,54.3167451 C20.05975,54.3167451 20.2255,54.3199951 20.427,54.3264951 C20.6285,54.3329951 20.80725,54.3535784 20.96325,54.3882451 C21.3965833,54.4705784 21.753,54.6634118 22.0325,54.9667451 C22.312,55.2700784 22.5189167,55.6449118 22.65325,56.0912451 C22.7875833,56.5375784 22.85475,57.0142451 22.85475,57.5212451 C22.85475,58.0109118 22.7886667,58.4789118 22.6565,58.9252451 C22.5243333,59.3715784 22.3195833,59.7507451 22.04225,60.0627451 C21.7649167,60.3747451 21.40525,60.5719118 20.96325,60.6542451 C20.80725,60.6845784 20.6285,60.7040784 20.427,60.7127451 C20.2255,60.7214118 20.05975,60.7257451 19.92975,60.7257451 L19.92975,60.7257451 Z M29.15325,62.3962451 C29.85525,62.3962451 30.4684167,62.2391618 30.99275,61.9249951 C31.5170833,61.6108284 31.9255,61.1753284 32.218,60.6184951 C32.5105,60.0616618 32.65675,59.4192451 32.65675,58.6912451 C32.65675,57.9675784 32.5115833,57.3273284 32.22125,56.7704951 C31.9309167,56.2136618 31.5235833,55.7770784 30.99925,55.4607451 C30.4749167,55.1444118 29.8595833,54.9862451 29.15325,54.9862451 C28.46425,54.9862451 27.8575833,55.1422451 27.33325,55.4542451 C26.8089167,55.7662451 26.3994167,56.1995784 26.10475,56.7542451 C25.8100833,57.3089118 25.66275,57.9545784 25.66275,58.6912451 C25.66275,59.4149118 25.8068333,60.0551618 26.095,60.6119951 C26.3831667,61.1688284 26.7894167,61.6054118 27.31375,61.9217451 C27.8380833,62.2380784 28.45125,62.3962451 29.15325,62.3962451 Z M29.15325,60.9272451 C28.5509167,60.9272451 28.0948333,60.7246618 27.785,60.3194951 C27.4751667,59.9143284 27.32025,59.3715784 27.32025,58.6912451 C27.32025,58.2492451 27.38525,57.8603284 27.51525,57.5244951 C27.64525,57.1886618 27.8456667,56.9264951 28.1165,56.7379951 C28.3873333,56.5494951 28.7329167,56.4552451 29.15325,56.4552451 C29.7685833,56.4552451 30.2300833,56.6578284 30.53775,57.0629951 C30.8454167,57.4681618 30.99925,58.0109118 30.99925,58.6912451 C30.99925,59.3499118 30.8475833,59.8872451 30.54425,60.3032451 C30.2409167,60.7192451 29.77725,60.9272451 29.15325,60.9272451 Z M35.65325,65.3212451 L35.653,61.8452451 L35.73775,61.9087451 C36.1498981,62.197634 36.6493549,62.3581278 37.2361204,62.3902266 L37.46025,62.3962451 C38.1059167,62.3962451 38.66925,62.2337451 39.15025,61.9087451 C39.63125,61.5837451 40.0039167,61.1417451 40.26825,60.5827451 C40.5325833,60.0237451 40.66475,59.3932451 40.66475,58.6912451 C40.66475,57.9805784 40.5304167,57.3468284 40.26175,56.7899951 C39.9930833,56.2331618 39.615,55.7933284 39.1275,55.4704951 C38.64,55.1476618 38.06475,54.9862451 37.40175,54.9862451 C36.7344167,54.9862451 36.1743333,55.1476618 35.7215,55.4704951 C35.6648958,55.5108493 35.6100013,55.5530485 35.5568164,55.5970927 L35.458,55.6852451 L35.45825,55.1812451 L34.07375,55.1812451 L34.07375,65.3212451 L35.65325,65.3212451 Z M37.21975,60.9922451 C36.7994167,60.9922451 36.4603333,60.8958284 36.2025,60.7029951 C35.9446667,60.5101618 35.7561667,60.2404118 35.637,59.8937451 C35.5178333,59.5470784 35.45825,59.1462451 35.45825,58.6912451 C35.45825,58.2319118 35.5178333,57.8299951 35.637,57.4854951 C35.7561667,57.1409951 35.9414167,56.8723284 36.19275,56.6794951 C36.4440833,56.4866618 36.7690833,56.3902451 37.16775,56.3902451 C37.5880833,56.3902451 37.93475,56.4931618 38.20775,56.6989951 C38.48075,56.9048284 38.68225,57.1821618 38.81225,57.5309951 C38.94225,57.8798284 39.00725,58.2665784 39.00725,58.6912451 C39.00725,59.1202451 38.9433333,59.5091618 38.8155,59.8579951 C38.6876667,60.2068284 38.4915833,60.4830784 38.22725,60.6867451 C37.9629167,60.8904118 37.6270833,60.9922451 37.21975,60.9922451 Z M44.05775,62.3962451 C44.6904167,62.3962451 45.218,62.2781618 45.6405,62.0419951 C45.9422857,61.8733046 46.2169881,61.635524 46.4646071,61.3286532 L46.521,61.2532451 L46.52125,62.2012451 L47.89275,62.2012451 L47.89275,57.8917451 C47.89275,57.5884118 47.87975,57.3078284 47.85375,57.0499951 C47.82775,56.7921618 47.7519167,56.5397451 47.62625,56.2927451 C47.3965833,55.8290784 47.0445,55.4954118 46.57,55.2917451 C46.0955,55.0880784 45.54625,54.9862451 44.92225,54.9862451 C44.0945833,54.9862451 43.437,55.1660784 42.9495,55.5257451 C42.462,55.8854118 42.1315833,56.3620784 41.95825,56.9557451 L41.95825,56.9557451 L43.38825,57.4042451 C43.50525,57.0445784 43.7110833,56.7910784 44.00575,56.6437451 C44.3004167,56.4964118 44.6059167,56.4227451 44.92225,56.4227451 C45.4465833,56.4227451 45.81925,56.5375784 46.04025,56.7672451 C46.206,56.9394951 46.308375,57.1836513 46.347375,57.4997138 L46.356,57.6062451 L45.9810278,57.6613562 L45.9810278,57.6613562 L45.53,57.7259951 C45.0858333,57.7888284 44.6741667,57.8570784 44.295,57.9307451 C43.9158333,58.0044118 43.5854167,58.0867451 43.30375,58.1777451 C42.9310833,58.3034118 42.62775,58.4648284 42.39375,58.6619951 C42.15975,58.8591618 41.9864167,59.0931618 41.87375,59.3639951 C41.7610833,59.6348284 41.70475,59.9392451 41.70475,60.2772451 C41.70475,60.6629118 41.7946667,61.0160784 41.9745,61.3367451 C42.1543333,61.6574118 42.41975,61.9141618 42.77075,62.1069951 C43.12175,62.2998284 43.55075,62.3962451 44.05775,62.3962451 Z M44.36975,61.1482451 C44.12275,61.1482451 43.9158333,61.1092451 43.749,61.0312451 C43.5821667,60.9532451 43.4554167,60.8481618 43.36875,60.7159951 C43.2820833,60.5838284 43.23875,60.4310784 43.23875,60.2577451 C43.23875,60.1060784 43.2723333,59.9739118 43.3395,59.8612451 C43.4066667,59.7485784 43.5030833,59.6489118 43.62875,59.5622451 C43.7544167,59.4755784 43.90825,59.3997451 44.09025,59.3347451 C44.2765833,59.2740784 44.4910833,59.2188284 44.73375,59.1689951 C44.9764167,59.1191618 45.26675,59.0660784 45.60475,59.0097451 C45.80755,58.9759451 46.03453,58.9390251 46.28569,58.8989851 L46.336,58.8912451 L46.3351875,58.9488076 C46.3338333,59.0010784 46.3321406,59.0563961 46.3301094,59.1147607 L46.323,59.2989951 C46.3121667,59.5568284 46.2655833,59.7854118 46.18325,59.9847451 C46.13125,60.1450784 46.0305,60.3162451 45.881,60.4982451 C45.7315,60.6802451 45.5310833,60.8340784 45.27975,60.9597451 C45.0284167,61.0854118 44.7250833,61.1482451 44.36975,61.1482451 Z M51.14925,62.2012451 L51.14925,57.8787451 C51.14925,57.4410784 51.2695,57.0857451 51.51,56.8127451 C51.7505,56.5397451 52.0700833,56.4032451 52.46875,56.4032451 C52.8804167,56.4032451 53.2054167,56.5397451 53.44375,56.8127451 C53.6820833,57.0857451 53.80125,57.4670784 53.80125,57.9567451 L53.80125,57.9567451 L53.80125,62.2012451 L55.36125,62.2012451 L55.36125,57.8787451 C55.36125,57.5710784 55.41975,57.3056618 55.53675,57.0824951 C55.65375,56.8593284 55.8119167,56.6903284 56.01125,56.5754951 C56.2105833,56.4606618 56.4359167,56.4032451 56.68725,56.4032451 C57.0945833,56.4032451 57.4174167,56.5386618 57.65575,56.8094951 C57.8940833,57.0803284 58.01325,57.4562451 58.01325,57.9372451 L58.01325,57.9372451 L58.01325,62.2012451 L59.57975,62.2012451 L59.57975,57.5407451 C59.57975,56.7824118 59.3728333,56.1703284 58.959,55.7044951 C58.5451667,55.2386618 57.9504167,55.0057451 57.17475,55.0057451 C56.70675,55.0057451 56.2820833,55.1097451 55.90075,55.3177451 C55.5194167,55.5257451 55.2171667,55.8149951 54.994,56.1854951 L55.034,56.1252451 L55.0173469,56.0910461 C54.8738605,55.8334781 54.685051,55.6168114 54.4509184,55.4410461 L54.305,55.3404951 C53.9518333,55.1173284 53.5130833,55.0057451 52.98875,55.0057451 C52.5120833,55.0057451 52.082,55.1108284 51.6985,55.3209951 C51.4428333,55.4611062 51.2223148,55.6354025 51.0369444,55.843884 L50.954,55.9452451 L50.95425,55.1812451 L49.56975,55.1812451 L49.56975,62.2012451 L51.14925,62.2012451 Z M62.96625,54.1152451 L62.96625,52.6787451 L61.39975,52.6787451 L61.39975,54.1152451 L62.96625,54.1152451 Z M62.96625,62.2012451 L62.96625,55.1812451 L61.39975,55.1812451 L61.39975,62.2012451 L62.96625,62.2012451 Z M66.48925,62.2012451 L66.48925,58.5937451 C66.48925,58.1647451 66.5369167,57.8126618 66.63225,57.5374951 C66.7275833,57.2623284 66.8543333,57.0456618 67.0125,56.8874951 C67.1706667,56.7293284 67.34725,56.6177451 67.54225,56.5527451 C67.73725,56.4877451 67.9344167,56.4552451 68.13375,56.4552451 C68.5064167,56.4552451 68.8021667,56.5354118 69.021,56.6957451 C69.2398333,56.8560784 69.4045,57.0608284 69.515,57.3099951 C69.6255,57.5591618 69.6959167,57.8180784 69.72625,58.0867451 C69.7565833,58.3554118 69.77175,58.6002451 69.77175,58.8212451 L69.77175,58.8212451 L69.77175,62.2012451 L71.35775,62.2012451 L71.35775,58.2817451 C71.35775,58.1127451 71.3436667,57.8928284 71.3155,57.6219951 C71.2873333,57.3511618 71.2255833,57.0640784 71.13025,56.7607451 C71.0349167,56.4574118 70.8875833,56.1714118 70.68825,55.9027451 C70.4889167,55.6340784 70.22025,55.4130784 69.88225,55.2397451 C69.54425,55.0664118 69.11525,54.9797451 68.59525,54.9797451 C67.9365833,54.9797451 67.3819167,55.1238284 66.93125,55.4119951 C66.7381071,55.5354951 66.5650612,55.6771022 66.4121122,55.8368165 L66.3,55.9632451 L66.30075,55.1812451 L64.90325,55.1812451 L64.90325,62.2012451 L66.48925,62.2012451 Z M79.41775,59.1267451 C79.4784167,58.2860784 79.38525,57.5559118 79.13825,56.9362451 C78.89125,56.3165784 78.5131667,55.8366618 78.004,55.4964951 C77.4948333,55.1563284 76.87625,54.9862451 76.14825,54.9862451 C75.45925,54.9862451 74.8525833,55.1422451 74.32825,55.4542451 C73.8039167,55.7662451 73.3944167,56.2049951 73.09975,56.7704951 C72.8050833,57.3359951 72.65775,58.0022451 72.65775,58.7692451 C72.65775,59.4799118 72.8083333,60.1082451 73.1095,60.6542451 C73.4106667,61.2002451 73.8299167,61.6270784 74.36725,61.9347451 C74.9045833,62.2424118 75.5285833,62.3962451 76.23925,62.3962451 C76.91525,62.3962451 77.5338333,62.2207451 78.095,61.8697451 C78.6561667,61.5187451 79.0710833,61.0269118 79.33975,60.3942451 L79.33975,60.3942451 L77.79275,59.9262451 C77.6410833,60.2512451 77.4255,60.4993284 77.146,60.6704951 C76.8665,60.8416618 76.5339167,60.9272451 76.14825,60.9272451 C75.55025,60.9272451 75.09525,60.7322451 74.78325,60.3422451 C74.5405833,60.0389118 74.392287,59.6385866 74.3383611,59.1412698 L74.337,59.1272451 L78.65075,59.1267451 L79.41775,59.1267451 Z M77.826,57.9442451 L74.376,57.9442451 L74.4076944,57.78285 C74.4693241,57.5162163 74.5617685,57.2857471 74.6850278,57.0914426 L74.78325,56.9524951 C75.09525,56.5559951 75.5719167,56.3577451 76.21325,56.3577451 C76.7809167,56.3577451 77.1969167,56.5332451 77.46125,56.8842451 C77.6374722,57.1182451 77.7559167,57.4437266 77.8165833,57.8606895 L77.826,57.9442451 Z" id="Dopamine" fill="#FFFFFF" fill-rule="nonzero"></path>
                    <line x1="96" y1="49.5" x2="146" y2="49.5" id="Path-2" stroke="#979797" stroke-dasharray="5"></line>
                </g>
                <g id="Group-2" transform="translate(194.370370, 185.358470)">
                    <g id="Group" transform="translate(0.000000, 3.777913)"></g>
                    <polygon id="Rectangle-Copy" fill="#102F76" fill-rule="nonzero" points="0 3.88757552 24.6614345 15.5785631 49.3228689 3.88757552 49.3228689 20.8926483 24.6614345 32.5836358 0 20.8926483"></polygon>
                    <polygon id="Rectangle" fill="#018FFF" fill-rule="nonzero" points="5.39084492 0.165718152 24.6614345 9.30112439 43.932024 0.165718152 43.932024 18.0154027 24.6614345 27.1508089 5.39084492 18.0154027"></polygon>
                    <polygon id="Rectangle" fill="#018FFF" fill-rule="nonzero" points="5.50202004 0.165718152 24.6614345 9.30112439 43.8208489 0.165718152 43.8208489 18.0154027 24.6614345 27.1508089 5.50202004 18.0154027"></polygon>
                </g>
                <g id="Group-Copy" transform="translate(271.500000, 194.000000)">
                    <g id="Oval">
                        <use fill="black" fill-opacity="1" filter="url(#filter-8)" xlink:href="#path-7"></use>
                        <circle stroke-opacity="0.16529174" stroke="#C5C5C5" stroke-width="1" stroke-linejoin="square" fill="#FFFFFF" fill-rule="evenodd" cx="73" cy="73" r="72.5"></circle>
                    </g>
                    <path d="M36.6265,80.27 C38.1265,80.27 39.361,79.8875 40.33,79.1225 C41.299,78.3575 41.9665,77.333 42.3325,76.049 L42.3325,76.049 L40.7035,75.617 C40.4395,76.577 39.9685,77.3375 39.2905,77.8985 C38.6125,78.4595 37.7245,78.74 36.6265,78.74 C35.6605,78.74 34.8535,78.5195 34.2055,78.0785 C33.5575,77.6375 33.0715,77.0255 32.7475,76.2425 C32.4235,75.4595 32.2645,74.552 32.2705,73.52 C32.2765,72.482 32.4415,71.5715 32.7655,70.7885 C33.0895,70.0055 33.5725,69.395 34.2145,68.957 C34.8565,68.519 35.6605,68.3 36.6265,68.3 C37.7245,68.3 38.6125,68.579 39.2905,69.137 C39.9685,69.695 40.4395,70.457 40.7035,71.423 L40.7035,71.423 L42.3325,70.991 C41.9665,69.701 41.299,68.675 40.33,67.913 C39.361,67.151 38.1265,66.77 36.6265,66.77 C35.3365,66.77 34.2415,67.055 33.3415,67.625 C32.4415,68.195 31.756,68.987 31.285,70.001 C30.814,71.015 30.5785,72.188 30.5785,73.52 C30.5785,74.852 30.814,76.025 31.285,77.039 C31.756,78.053 32.4415,78.845 33.3415,79.415 C34.2415,79.985 35.3365,80.27 36.6265,80.27 Z M45.9235,80 L45.9235,74.879 C45.9235,74.315 45.988,73.8245 46.117,73.4075 C46.246,72.9905 46.4275,72.644 46.6615,72.368 C46.8955,72.092 47.176,71.8865 47.503,71.7515 C47.83,71.6165 48.1945,71.549 48.5965,71.549 C49.1125,71.549 49.54,71.648 49.879,71.846 C50.218,72.044 50.488,72.3125 50.689,72.6515 C50.89,72.9905 51.031,73.373 51.112,73.799 C51.193,74.225 51.2335,74.669 51.2335,75.131 L51.2335,75.131 L51.2335,80 L52.8535,80 L52.8535,74.627 C52.8535,74.255 52.819,73.8605 52.75,73.4435 C52.681,73.0265 52.5625,72.6155 52.3945,72.2105 C52.2265,71.8055 51.9955,71.4395 51.7015,71.1125 C51.4075,70.7855 51.0385,70.523 50.5945,70.325 C50.1505,70.127 49.6135,70.028 48.9835,70.028 C48.1495,70.028 47.425,70.2095 46.81,70.5725 C46.4,70.8145 46.0513333,71.1258333 45.764,71.5065 L45.743,71.535 L45.7435,67.04 L44.3035,67.04 L44.3035,80 L45.9235,80 Z M57.9565,80.27 C58.8985,80.27 59.698,80.069 60.355,79.667 C60.793,79.399 61.1663333,79.0456667 61.475,78.607 L61.556,78.483 L61.5565,80 L62.9785,80 L62.9785,73.988 C62.9785,73.604 62.9605,73.2365 62.9245,72.8855 C62.8885,72.5345 62.8015,72.209 62.6635,71.909 C62.3875,71.273 61.933,70.7975 61.3,70.4825 C60.667,70.1675 59.9095,70.01 59.0275,70.01 C57.9295,70.01 57.0445,70.253 56.3725,70.739 C55.7005,71.225 55.2475,71.894 55.0135,72.746 L55.0135,72.746 L56.5345,73.205 C56.7145,72.605 57.025,72.1715 57.466,71.9045 C57.907,71.6375 58.4215,71.504 59.0095,71.504 C59.8975,71.504 60.523,71.711 60.886,72.125 C61.183,72.4637273 61.3524752,72.9530744 61.3944256,73.5930413 L61.402,73.79 L61.18525,73.81925 C61.048,73.838 60.9083125,73.8569375 60.7661875,73.8760625 L60.3325,73.934 C59.7445,74.012 59.164,74.0975 58.591,74.1905 C58.018,74.2835 57.5005,74.393 57.0385,74.519 C56.5465,74.663 56.1235,74.8595 55.7695,75.1085 C55.4155,75.3575 55.141,75.6695 54.946,76.0445 C54.751,76.4195 54.6535,76.862 54.6535,77.372 C54.6535,77.894 54.778,78.374 55.027,78.812 C55.276,79.25 55.645,79.6025 56.134,79.8695 C56.623,80.1365 57.2305,80.27 57.9565,80.27 Z M58.1995,78.929 C57.7375,78.929 57.364,78.854 57.079,78.704 C56.794,78.554 56.584,78.359 56.449,78.119 C56.314,77.879 56.2465,77.627 56.2465,77.363 C56.2465,77.057 56.317,76.8005 56.458,76.5935 C56.599,76.3865 56.785,76.217 57.016,76.085 C57.247,75.953 57.4945,75.845 57.7585,75.761 C58.1185,75.659 58.5235,75.5705 58.9735,75.4955 C59.4235,75.4205 59.9005,75.35 60.4045,75.284 C60.9085,75.218 61.4215,75.149 61.9435,75.077 L61.382,75.154 L61.38064,75.28274 C61.37956,75.34286 61.3783,75.4064 61.37686,75.47336 L61.372,75.6845 C61.363,76.0535 61.3135,76.388 61.2235,76.688 C61.1455,77.09 60.9775,77.4605 60.7195,77.7995 C60.4615,78.1385 60.121,78.4115 59.698,78.6185 C59.275,78.8255 58.7755,78.929 58.1995,78.929 Z M67.1005,80 L67.1005,66.77 L65.4985,66.77 L65.4985,80 L67.1005,80 Z M71.5825,80 L71.5825,66.77 L69.9805,66.77 L69.9805,80 L71.5825,80 Z M82.9135,75.59 C82.9615,74.438 82.813,73.445 82.468,72.611 C82.123,71.777 81.607,71.135 80.92,70.685 C80.233,70.235 79.4005,70.01 78.4225,70.01 C77.4805,70.01 76.66,70.2215 75.961,70.6445 C75.262,71.0675 74.7175,71.6675 74.3275,72.4445 C73.9375,73.2215 73.7425,74.141 73.7425,75.203 C73.7425,76.217 73.9405,77.1035 74.3365,77.8625 C74.7325,78.6215 75.286,79.2125 75.997,79.6355 C76.708,80.0585 77.5405,80.27 78.4945,80.27 C79.4365,80.27 80.287,80.0345 81.046,79.5635 C81.805,79.0925 82.3735,78.428 82.7515,77.57 L82.7515,77.57 L81.2125,77.039 C80.9425,77.591 80.5705,78.014 80.0965,78.308 C79.6225,78.602 79.0645,78.749 78.4225,78.749 C77.4685,78.749 76.7335,78.434 76.2175,77.804 C75.7875,77.279 75.5366667,76.5748333 75.465,75.6915 L75.458,75.59 L82.0855,75.59 L82.9135,75.59 Z M81.251,74.303 L75.492,74.303 L75.5167781,74.1217751 C75.6144822,73.4952189 75.8098905,72.9731834 76.103003,72.5556686 L76.2175,72.404 C76.7335,71.768 77.4865,71.45 78.4765,71.45 C79.4005,71.45 80.0965,71.7455 80.5645,72.3365 C80.9245,72.7911154 81.1513639,73.4241331 81.2450917,74.2355533 L81.251,74.303 Z M86.5225,80 L86.5225,74.879 C86.5225,74.315 86.587,73.8245 86.716,73.4075 C86.845,72.9905 87.0265,72.644 87.2605,72.368 C87.4945,72.092 87.775,71.8865 88.102,71.7515 C88.429,71.6165 88.7935,71.549 89.1955,71.549 C89.7115,71.549 90.139,71.648 90.478,71.846 C90.817,72.044 91.087,72.3125 91.288,72.6515 C91.489,72.9905 91.63,73.373 91.711,73.799 C91.792,74.225 91.8325,74.669 91.8325,75.131 L91.8325,75.131 L91.8325,80 L93.4525,80 L93.4525,74.627 C93.4525,74.255 93.418,73.8605 93.349,73.4435 C93.28,73.0265 93.1615,72.6155 92.9935,72.2105 C92.8255,71.8055 92.5945,71.4395 92.3005,71.1125 C92.0065,70.7855 91.6375,70.523 91.1935,70.325 C90.7495,70.127 90.2125,70.028 89.5825,70.028 C88.7485,70.028 88.024,70.2095 87.409,70.5725 C86.999,70.8145 86.6503333,71.1258333 86.363,71.5065 L86.342,71.537 L86.3425,70.28 L84.9025,70.28 L84.9025,80 L86.5225,80 Z M99.7255,84.59 C100.4995,84.59 101.1805,84.4805 101.7685,84.2615 C102.3565,84.0425 102.8365,83.7095 103.2085,83.2625 C103.5805,82.8155 103.8295,82.247 103.9555,81.557 C104.0035,81.317 104.035,81.074 104.05,80.828 C104.065,80.582 104.0725,80.327 104.0725,80.063 L104.0725,80.063 L104.0725,70.28 L102.6505,70.28 L102.65,71.361 L102.486,71.175 C102.369778,71.0518889 102.246074,70.9369259 102.114889,70.8301111 L101.9125,70.676 C101.2885,70.232 100.5175,70.01 99.5995,70.01 C98.6995,70.01 97.9255,70.2335 97.2775,70.6805 C96.6295,71.1275 96.13,71.738 95.779,72.512 C95.428,73.286 95.2525,74.159 95.2525,75.131 C95.2525,76.103 95.428,76.976 95.779,77.75 C96.13,78.524 96.6295,79.1375 97.2775,79.5905 C97.9255,80.0435 98.7025,80.27 99.6085,80.27 C100.5205,80.27 101.2885,80.0435 101.9125,79.5905 C102.051167,79.4898333 102.182352,79.3811667 102.306056,79.2645 L102.461,79.108 L102.4615,80.045 C102.466643,80.6107143 102.397949,81.0970816 102.255418,81.504102 L102.178,81.701 C101.983,82.145 101.6815,82.4795 101.2735,82.7045 C100.8655,82.9295 100.3525,83.042 99.7345,83.042 C99.2665,83.042 98.812,82.934 98.371,82.718 C97.93,82.502 97.5895,82.157 97.3495,81.683 L97.3495,81.683 L95.8825,82.457 C96.1525,82.937 96.49,83.3345 96.895,83.6495 C97.3,83.9645 97.7455,84.2 98.2315,84.356 C98.7175,84.512 99.2155,84.59 99.7255,84.59 Z M99.8065,78.803 C99.1705,78.803 98.641,78.641 98.218,78.317 C97.795,77.993 97.4785,77.5535 97.2685,76.9985 C97.0585,76.4435 96.9535,75.821 96.9535,75.131 C96.9535,74.447 97.057,73.829 97.264,73.277 C97.471,72.725 97.789,72.287 98.218,71.963 C98.647,71.639 99.1915,71.477 99.8515,71.477 C100.4875,71.477 101.0125,71.6315 101.4265,71.9405 C101.8405,72.2495 102.148,72.6785 102.349,73.2275 C102.55,73.7765 102.6505,74.411 102.6505,75.131 C102.6505,75.839 102.55,76.4705 102.349,77.0255 C102.148,77.5805 101.8375,78.0155 101.4175,78.3305 C100.9975,78.6455 100.4605,78.803 99.8065,78.803 Z M115.2235,75.59 C115.2715,74.438 115.123,73.445 114.778,72.611 C114.433,71.777 113.917,71.135 113.23,70.685 C112.543,70.235 111.7105,70.01 110.7325,70.01 C109.7905,70.01 108.97,70.2215 108.271,70.6445 C107.572,71.0675 107.0275,71.6675 106.6375,72.4445 C106.2475,73.2215 106.0525,74.141 106.0525,75.203 C106.0525,76.217 106.2505,77.1035 106.6465,77.8625 C107.0425,78.6215 107.596,79.2125 108.307,79.6355 C109.018,80.0585 109.8505,80.27 110.8045,80.27 C111.7465,80.27 112.597,80.0345 113.356,79.5635 C114.115,79.0925 114.6835,78.428 115.0615,77.57 L115.0615,77.57 L113.5225,77.039 C113.2525,77.591 112.8805,78.014 112.4065,78.308 C111.9325,78.602 111.3745,78.749 110.7325,78.749 C109.7785,78.749 109.0435,78.434 108.5275,77.804 C108.0975,77.279 107.846667,76.5748333 107.775,75.6915 L107.769,75.59 L114.3955,75.59 L115.2235,75.59 Z M113.561,74.303 L107.802,74.303 L107.826778,74.1217751 C107.924482,73.4952189 108.119891,72.9731834 108.413003,72.5556686 L108.5275,72.404 C109.0435,71.768 109.7965,71.45 110.7865,71.45 C111.7105,71.45 112.4065,71.7455 112.8745,72.3365 C113.2345,72.7911154 113.461364,73.4241331 113.555092,74.2355533 L113.561,74.303 Z" id="Challenge" fill="#000000" fill-rule="nonzero"></path>
                </g>
                <g id="Group-Copy-2" transform="translate(20.500000, 194.000000)">
                    <g id="Oval">
                        <use fill="black" fill-opacity="1" filter="url(#filter-10)" xlink:href="#path-9"></use>
                        <circle stroke-opacity="0.16529174" stroke="#C5C5C5" stroke-width="1" stroke-linejoin="square" fill="#FFFFFF" fill-rule="evenodd" cx="73" cy="73" r="72.5"></circle>
                    </g>
                    <path d="M43.9435,80 L43.9435,75.212 L47.734,75.212 L50.0545,80 L51.8905,80 L49.388,74.868 L49.4695,74.8355 C49.963,74.62025 50.3738125,74.3115938 50.7019375,73.9095313 L50.8375,73.7315 C51.3595,72.9965 51.6205,72.128 51.6205,71.126 C51.6205,70.436 51.5005,69.8075 51.2605,69.2405 C51.0205,68.6735 50.662,68.204 50.185,67.832 C49.708,67.46 49.1185,67.22 48.4165,67.112 C48.2545,67.082 48.0865,67.0625 47.9125,67.0535 C47.7385,67.0445 47.5885,67.04 47.4625,67.04 L47.4625,67.04 L42.3415,67.04 L42.3415,80 L43.9435,80 Z M47.4085,73.691 L43.9435,73.691 L43.9435,68.561 L47.4085,68.561 C47.5225,68.561 47.653,68.5655 47.8,68.5745 C47.947,68.5835 48.0865,68.606 48.2185,68.642 C48.6325,68.732 48.97,68.906 49.231,69.164 C49.492,69.422 49.6825,69.7235 49.8025,70.0685 C49.9225,70.4135 49.9825,70.766 49.9825,71.126 C49.9825,71.486 49.9225,71.8385 49.8025,72.1835 C49.6825,72.5285 49.492,72.8285 49.231,73.0835 C48.97,73.3385 48.6325,73.514 48.2185,73.61 C48.0865,73.64 47.947,73.661 47.8,73.673 C47.653,73.685 47.5225,73.691 47.4085,73.691 L47.4085,73.691 Z M62.5015,75.59 C62.5495,74.438 62.401,73.445 62.056,72.611 C61.711,71.777 61.195,71.135 60.508,70.685 C59.821,70.235 58.9885,70.01 58.0105,70.01 C57.0685,70.01 56.248,70.2215 55.549,70.6445 C54.85,71.0675 54.3055,71.6675 53.9155,72.4445 C53.5255,73.2215 53.3305,74.141 53.3305,75.203 C53.3305,76.217 53.5285,77.1035 53.9245,77.8625 C54.3205,78.6215 54.874,79.2125 55.585,79.6355 C56.296,80.0585 57.1285,80.27 58.0825,80.27 C59.0245,80.27 59.875,80.0345 60.634,79.5635 C61.393,79.0925 61.9615,78.428 62.3395,77.57 L62.3395,77.57 L60.8005,77.039 C60.5305,77.591 60.1585,78.014 59.6845,78.308 C59.2105,78.602 58.6525,78.749 58.0105,78.749 C57.0565,78.749 56.3215,78.434 55.8055,77.804 C55.3755,77.279 55.1246667,76.5748333 55.053,75.6915 L55.047,75.59 L61.6735,75.59 L62.5015,75.59 Z M60.839,74.303 L55.08,74.303 L55.1047781,74.1217751 C55.2024822,73.4952189 55.3978905,72.9731834 55.691003,72.5556686 L55.8055,72.404 C56.3215,71.768 57.0745,71.45 58.0645,71.45 C58.9885,71.45 59.6845,71.7455 60.1525,72.3365 C60.5125,72.7911154 60.7393639,73.4241331 60.8330917,74.2355533 L60.839,74.303 Z M67.9015,80 L70.2505,72.611 L72.5995,80 L73.9315,80 L76.9015,70.28 L75.3175,70.28 L73.1395,77.39 L70.9615,70.28 L69.5485,70.28 L67.3615,77.39 L65.1925,70.28 L63.5995,70.271 L66.5695,80 L67.9015,80 Z M81.2845,80.27 C82.2265,80.27 83.026,80.069 83.683,79.667 C84.121,79.399 84.4943333,79.0456667 84.803,78.607 L84.884,78.483 L84.8845,80 L86.3065,80 L86.3065,73.988 C86.3065,73.604 86.2885,73.2365 86.2525,72.8855 C86.2165,72.5345 86.1295,72.209 85.9915,71.909 C85.7155,71.273 85.261,70.7975 84.628,70.4825 C83.995,70.1675 83.2375,70.01 82.3555,70.01 C81.2575,70.01 80.3725,70.253 79.7005,70.739 C79.0285,71.225 78.5755,71.894 78.3415,72.746 L78.3415,72.746 L79.8625,73.205 C80.0425,72.605 80.353,72.1715 80.794,71.9045 C81.235,71.6375 81.7495,71.504 82.3375,71.504 C83.2255,71.504 83.851,71.711 84.214,72.125 C84.511,72.4637273 84.6804752,72.9530744 84.7224256,73.5930413 L84.73,73.79 L84.51325,73.81925 C84.376,73.838 84.2363125,73.8569375 84.0941875,73.8760625 L83.6605,73.934 C83.0725,74.012 82.492,74.0975 81.919,74.1905 C81.346,74.2835 80.8285,74.393 80.3665,74.519 C79.8745,74.663 79.4515,74.8595 79.0975,75.1085 C78.7435,75.3575 78.469,75.6695 78.274,76.0445 C78.079,76.4195 77.9815,76.862 77.9815,77.372 C77.9815,77.894 78.106,78.374 78.355,78.812 C78.604,79.25 78.973,79.6025 79.462,79.8695 C79.951,80.1365 80.5585,80.27 81.2845,80.27 Z M81.5275,78.929 C81.0655,78.929 80.692,78.854 80.407,78.704 C80.122,78.554 79.912,78.359 79.777,78.119 C79.642,77.879 79.5745,77.627 79.5745,77.363 C79.5745,77.057 79.645,76.8005 79.786,76.5935 C79.927,76.3865 80.113,76.217 80.344,76.085 C80.575,75.953 80.8225,75.845 81.0865,75.761 C81.4465,75.659 81.8515,75.5705 82.3015,75.4955 C82.7515,75.4205 83.2285,75.35 83.7325,75.284 C84.2365,75.218 84.7495,75.149 85.2715,75.077 L84.71,75.154 L84.70864,75.28274 C84.70756,75.34286 84.7063,75.4064 84.70486,75.47336 L84.7,75.6845 C84.691,76.0535 84.6415,76.388 84.5515,76.688 C84.4735,77.09 84.3055,77.4605 84.0475,77.7995 C83.7895,78.1385 83.449,78.4115 83.026,78.6185 C82.603,78.8255 82.1035,78.929 81.5275,78.929 Z M90.2575,80 L90.2575,75.122 C90.2575,74.738 90.2905,74.3615 90.3565,73.9925 C90.4225,73.6235 90.541,73.28 90.712,72.962 C90.883,72.644 91.1245,72.374 91.4365,72.152 C91.7785,71.9 92.1505,71.753 92.5525,71.711 C92.9545,71.669 93.3235,71.693 93.6595,71.783 L93.6595,71.783 L93.6595,70.28 C93.3715,70.214 93.0625,70.1915 92.7325,70.2125 C92.4025,70.2335 92.0785,70.298 91.7605,70.406 C91.4425,70.514 91.1575,70.67 90.9055,70.874 C90.6775,71.036 90.472,71.243 90.289,71.495 C90.24325,71.558 90.1996563,71.6225 90.1582188,71.6885 L90.077,71.828 L90.0775,70.28 L88.6465,70.28 L88.6465,80 L90.2575,80 Z M99.1855,80.27 C100.0975,80.27 100.8655,80.0435 101.4895,79.5905 C101.6975,79.4395 101.888667,79.2705 102.063,79.0835 L102.227,78.896 L102.2275,80 L103.6585,80 L103.6585,67.04 L102.0475,67.04 L102.047,71.16 L101.883056,70.9964444 C101.821204,70.938963 101.757481,70.8835185 101.691889,70.8301111 L101.4895,70.676 C100.8655,70.232 100.0945,70.01 99.1765,70.01 C98.2765,70.01 97.5025,70.2335 96.8545,70.6805 C96.2065,71.1275 95.707,71.738 95.356,72.512 C95.005,73.286 94.8295,74.159 94.8295,75.131 C94.8295,76.103 95.005,76.976 95.356,77.75 C95.707,78.524 96.2065,79.1375 96.8545,79.5905 C97.5025,80.0435 98.2795,80.27 99.1855,80.27 Z M99.3835,78.803 C98.7475,78.803 98.218,78.641 97.795,78.317 C97.372,77.993 97.0555,77.5535 96.8455,76.9985 C96.6355,76.4435 96.5305,75.821 96.5305,75.131 C96.5305,74.447 96.634,73.829 96.841,73.277 C97.048,72.725 97.366,72.287 97.795,71.963 C98.224,71.639 98.7685,71.477 99.4285,71.477 C100.0645,71.477 100.5895,71.6315 101.0035,71.9405 C101.4175,72.2495 101.725,72.6785 101.926,73.2275 C102.127,73.7765 102.2275,74.411 102.2275,75.131 C102.2275,75.839 102.127,76.4705 101.926,77.0255 C101.725,77.5805 101.4145,78.0155 100.9945,78.3305 C100.5745,78.6455 100.0375,78.803 99.3835,78.803 Z" id="Reward" fill="#000000" fill-rule="nonzero"></path>
                </g>
                <path d="M221.803799,266.9154 L217.245968,271.47309 C216.956035,271.763164 216.485958,271.763164 216.196166,271.47309 C215.90635,271.183275 215.90635,270.713221 216.196166,270.423429 L220.229142,266.39057 L216.196283,262.357851 C215.906467,262.067918 215.906467,261.597911 216.196283,261.308096 C216.486099,261.018163 216.956152,261.018163 217.246085,261.308096 L221.803916,265.865856 C221.948824,266.010834 222.021196,266.200643 222.021196,266.390546 C222.021196,266.580543 221.948683,266.770492 221.803799,266.9154 Z" id="Path" fill="#979797" fill-rule="nonzero" transform="translate(219.000000, 266.390646) scale(-1, 1) translate(-219.000000, -266.390646) "></path>
                <path d="M120.803799,74.9323877 L116.245968,79.4900778 C115.956035,79.7801517 115.485958,79.7801517 115.196166,79.4900778 C114.90635,79.200262 114.90635,78.7302087 115.196166,78.4404163 L119.229142,74.407557 L115.196283,70.3748384 C114.906467,70.0849053 114.906467,69.6148988 115.196283,69.325083 C115.486099,69.0351499 115.956152,69.0351499 116.246085,69.325083 L120.803916,73.8828435 C120.948824,74.0278218 121.021196,74.2176307 121.021196,74.4075335 C121.021196,74.5975301 120.948683,74.7874798 120.803799,74.9323877 Z" id="Path-Copy-3" fill="#979797" fill-rule="nonzero" transform="translate(118.000000, 74.407633) scale(-1, 1) translate(-118.000000, -74.407633) "></path>
                <path d="M158.803799,171.664227 L154.245968,176.221918 C153.956035,176.511991 153.485958,176.511991 153.196166,176.221918 C152.90635,175.932102 152.90635,175.462048 153.196166,175.172256 L157.229142,171.139397 L153.196283,167.106678 C152.906467,166.816745 152.906467,166.346739 153.196283,166.056923 C153.486099,165.76699 153.956152,165.76699 154.246085,166.056923 L158.803916,170.614683 C158.948824,170.759662 159.021196,170.949471 159.021196,171.139373 C159.021196,171.32937 158.948683,171.51932 158.803799,171.664227 Z" id="Path-Copy" fill="#979797" fill-rule="nonzero" transform="translate(156.000000, 171.139473) scale(-1, 1) rotate(-123.000000) translate(-156.000000, -171.139473) "></path>
                <path d="M288.54428,177.283459 L283.986449,181.841149 C283.696516,182.131223 283.226439,182.131223 282.936647,181.841149 C282.646831,181.551333 282.646831,181.08128 282.936647,180.791487 L286.969624,176.758628 L282.936764,172.725909 C282.646949,172.435976 282.646949,171.96597 282.936764,171.676154 C283.22658,171.386221 283.696634,171.386221 283.986567,171.676154 L288.544398,176.233915 C288.689305,176.378893 288.761677,176.568702 288.761677,176.758604 C288.761677,176.948601 288.689165,177.138551 288.54428,177.283459 Z" id="Path-Copy-2" fill="#979797" fill-rule="nonzero" transform="translate(285.740481, 176.758704) scale(-1, 1) rotate(120.000000) translate(-285.740481, -176.758704) "></path>
            </g>
        </g>
    </g>
</svg>