<svg width="125" height="93" viewBox="0 0 125 93" fill="none" xmlns="http://www.w3.org/2000/svg">
<path d="M3 21.8C1.4 21.8 0 23.1 0 24.8C0 26.4 1.3 27.8 3 27.8C4.6 27.8 6 26.5 6 24.8C6 23.1 4.6 21.8 3 21.8Z" fill="#8A8A8F"/>
<path d="M3 0C1.4 0 0 1.3 0 3C0 4.6 1.3 6 3 6C4.6 6 6 4.7 6 3C6 1.3 4.6 0 3 0Z" fill="#8A8A8F"/>
<path d="M26.7 21.8C25.1 21.8 23.7 23.1 23.7 24.8C23.7 26.4 25 27.8 26.7 27.8C28.3 27.8 29.7 26.5 29.7 24.8C29.7 23.1 28.3 21.8 26.7 21.8Z" fill="#8A8A8F"/>
<path d="M26.7 0C25.1 0 23.7 1.3 23.7 3C23.7 4.6 25 6 26.7 6C28.3 6 29.7 4.7 29.7 3C29.7 1.3 28.3 0 26.7 0Z" fill="#8A8A8F"/>
<path d="M50.4 21.8C48.8 21.8 47.4 23.1 47.4 24.8C47.4 26.4 48.7 27.8 50.4 27.8C52 27.8 53.4 26.5 53.4 24.8C53.4 23.1 52.1 21.8 50.4 21.8Z" fill="#8A8A8F"/>
<path d="M50.4 0C48.8 0 47.4 1.3 47.4 3C47.4 4.6 48.7 6 50.4 6C52 6 53.4 4.7 53.4 3C53.4 1.3 52.1 0 50.4 0Z" fill="#8A8A8F"/>
<path d="M74.1 21.8C72.5 21.8 71.1 23.1 71.1 24.8C71.1 26.4 72.4 27.8 74.1 27.8C75.7 27.8 77.1 26.5 77.1 24.8C77.1 23.1 75.8 21.8 74.1 21.8Z" fill="#8A8A8F"/>
<path d="M74.1 0C72.5 0 71.1 1.3 71.1 3C71.1 4.6 72.4 6 74.1 6C75.7 6 77.1 4.7 77.1 3C77.1 1.3 75.8 0 74.1 0Z" fill="#8A8A8F"/>
<path d="M97.8 21.8C96.2001 21.8 94.8 23.1 94.8 24.8C94.8 26.4 96.1001 27.8 97.8 27.8C99.4 27.8 100.8 26.5 100.8 24.8C100.8 23.1 99.5 21.8 97.8 21.8Z" fill="#8A8A8F"/>
<path d="M97.8 0C96.2001 0 94.8 1.3 94.8 3C94.8 4.6 96.1001 6 97.8 6C99.4 6 100.8 4.7 100.8 3C100.8 1.3 99.5 0 97.8 0Z" fill="#8A8A8F"/>
<path d="M124 23.1C123.8 22.8 123.5 22.5 123.2 22.3C122.7 22 122.2 21.8 121.5 21.8C121.1 21.8 120.7 21.9 120.3 22C119.9 22.2 119.6 22.4 119.4 22.6C118.9 23.1 118.5 23.9 118.5 24.7C118.5 25.5 118.8 26.3 119.4 26.8C119.7 27.1 120 27.3 120.3 27.4C120.7 27.6 121 27.6 121.5 27.6C122.1 27.6 122.7 27.4 123.2 27.1C123.5 26.9 123.8 26.6 124 26.3C124.2 26 124.4 25.6 124.4 25.2C124.4 25 124.5 24.8 124.5 24.6C124.5 24.4 124.5 24.2 124.4 24C124.4 23.7 124.2 23.4 124 23.1Z" fill="#8A8A8F"/>
<path d="M124 1.29999C123.8 0.999988 123.5 0.7 123.2 0.5C122.7 0.2 122.2 0 121.5 0C121.1 0 120.7 0.100012 120.3 0.200012C119.9 0.400012 119.6 0.599988 119.4 0.799988C118.9 1.29999 118.5 2.10002 118.5 2.90002C118.5 3.70002 118.8 4.5 119.4 5C119.7 5.3 120 5.50004 120.3 5.60004C120.7 5.80004 121 5.79999 121.5 5.79999C122.1 5.79999 122.7 5.59999 123.2 5.29999C123.5 5.09999 123.8 4.8 124 4.5C124.2 4.2 124.4 3.80002 124.4 3.40002C124.4 3.20002 124.5 2.99999 124.5 2.79999C124.5 2.59999 124.5 2.40001 124.4 2.20001C124.4 2.00001 124.2 1.59999 124 1.29999Z" fill="#8A8A8F"/>
<path d="M3 87C1.4 87 0 88.3 0 90C0 91.6 1.3 93 3 93C4.6 93 6 91.7 6 90C6 88.3 4.6 87 3 87Z" fill="#8A8A8F"/>
<path d="M3 65.2C1.4 65.2 0 66.5 0 68.2C0 69.8 1.3 71.2 3 71.2C4.6 71.2 6 69.9 6 68.2C6 66.6 4.6 65.2 3 65.2Z" fill="#8A8A8F"/>
<path d="M3 43.5C1.4 43.5 0 44.8 0 46.5C0 48.1 1.3 49.5 3 49.5C4.6 49.5 6 48.2 6 46.5C6 44.8 4.6 43.5 3 43.5Z" fill="#8A8A8F"/>
<path d="M26.7 87C25.1 87 23.7 88.3 23.7 90C23.7 91.6 25 93 26.7 93C28.3 93 29.7 91.7 29.7 90C29.7 88.3 28.3 87 26.7 87Z" fill="#8A8A8F"/>
<path d="M26.7 65.2C25.1 65.2 23.7 66.5 23.7 68.2C23.7 69.8 25 71.2 26.7 71.2C28.3 71.2 29.7 69.9 29.7 68.2C29.7 66.6 28.3 65.2 26.7 65.2Z" fill="#8A8A8F"/>
<path d="M26.7 43.5C25.1 43.5 23.7 44.8 23.7 46.5C23.7 48.1 25 49.5 26.7 49.5C28.3 49.5 29.7 48.2 29.7 46.5C29.7 44.8 28.3 43.5 26.7 43.5Z" fill="#8A8A8F"/>
<path d="M50.4 87C48.8 87 47.4 88.3 47.4 90C47.4 91.6 48.7 93 50.4 93C52 93 53.4 91.7 53.4 90C53.4 88.3 52.1 87 50.4 87Z" fill="#8A8A8F"/>
<path d="M50.4 65.2C48.8 65.2 47.4 66.5 47.4 68.2C47.4 69.8 48.7 71.2 50.4 71.2C52 71.2 53.4 69.9 53.4 68.2C53.4 66.6 52.1 65.2 50.4 65.2Z" fill="#8A8A8F"/>
<path d="M50.4 43.5C48.8 43.5 47.4 44.8 47.4 46.5C47.4 48.1 48.7 49.5 50.4 49.5C52 49.5 53.4 48.2 53.4 46.5C53.4 44.8 52.1 43.5 50.4 43.5Z" fill="#8A8A8F"/>
<path d="M74.1 87C72.5 87 71.1 88.3 71.1 90C71.1 91.6 72.4 93 74.1 93C75.7 93 77.1 91.7 77.1 90C77.1 88.3 75.8 87 74.1 87Z" fill="#8A8A8F"/>
<path d="M74.1 65.2C72.5 65.2 71.1 66.5 71.1 68.2C71.1 69.8 72.4 71.2 74.1 71.2C75.7 71.2 77.1 69.9 77.1 68.2C77.1 66.6 75.8 65.2 74.1 65.2Z" fill="#8A8A8F"/>
<path d="M74.1 43.5C72.5 43.5 71.1 44.8 71.1 46.5C71.1 48.1 72.4 49.5 74.1 49.5C75.7 49.5 77.1 48.2 77.1 46.5C77.1 44.8 75.8 43.5 74.1 43.5Z" fill="#8A8A8F"/>
<path d="M97.8 87C96.2001 87 94.8 88.3 94.8 90C94.8 91.6 96.1001 93 97.8 93C99.4 93 100.8 91.7 100.8 90C100.8 88.3 99.5 87 97.8 87Z" fill="#8A8A8F"/>
<path d="M97.8 65.2C96.2001 65.2 94.8 66.5 94.8 68.2C94.8 69.8 96.1001 71.2 97.8 71.2C99.4 71.2 100.8 69.9 100.8 68.2C100.8 66.6 99.5 65.2 97.8 65.2Z" fill="#8A8A8F"/>
<path d="M97.8 43.5C96.2001 43.5 94.8 44.8 94.8 46.5C94.8 48.1 96.1001 49.5 97.8 49.5C99.4 49.5 100.8 48.2 100.8 46.5C100.8 44.8 99.5 43.5 97.8 43.5Z" fill="#8A8A8F"/>
<path d="M124 88.3C123.8 88 123.5 87.7 123.2 87.5C122.7 87.2 122.2 87 121.5 87C121.1 87 120.7 87.1 120.3 87.2C119.9 87.4 119.6 87.6 119.4 87.8C118.9 88.3 118.5 89.1 118.5 89.9C118.5 90.7 118.8 91.5 119.4 92C119.7 92.3 120 92.5 120.3 92.6C120.7 92.7 121 92.8 121.5 92.8C122.1 92.8 122.7 92.6 123.2 92.3C123.5 92.1 123.8 91.8 124 91.5C124.2 91.2 124.4 90.8 124.4 90.4C124.4 90.2 124.5 90 124.5 89.8C124.5 89.6 124.5 89.4 124.4 89.2C124.4 88.9 124.2 88.6 124 88.3Z" fill="#8A8A8F"/>
<path d="M124 66.5C123.8 66.2 123.5 65.9 123.2 65.7C122.7 65.4 122.2 65.2 121.5 65.2C121.1 65.2 120.7 65.3 120.3 65.4C119.9 65.6 119.6 65.8 119.4 66C118.9 66.5 118.5 67.3 118.5 68.1C118.5 68.9 118.8 69.7 119.4 70.2C119.7 70.5 120 70.7 120.3 70.8C120.7 70.9 121 71 121.5 71C122.1 71 122.7 70.8 123.2 70.5C123.5 70.3 123.8 70 124 69.7C124.2 69.4 124.4 69 124.4 68.6C124.4 68.4 124.5 68.2 124.5 68C124.5 67.8 124.5 67.6 124.4 67.4C124.4 67.2 124.2 66.8 124 66.5Z" fill="#8A8A8F"/>
<path d="M124 44.8C123.8 44.5 123.5 44.2 123.2 44C122.7 43.7 122.2 43.5 121.5 43.5C121.1 43.5 120.7 43.6 120.3 43.7C119.9 43.8 119.6 44.1 119.4 44.3C118.9 44.8 118.5 45.6 118.5 46.4C118.5 47.2 118.8 48 119.4 48.5C119.7 48.8 120 49 120.3 49.1C120.7 49.3 121 49.3 121.5 49.3C122.1 49.3 122.7 49.1 123.2 48.8C123.5 48.6 123.8 48.3 124 48C124.2 47.7 124.4 47.3 124.4 46.9C124.4 46.7 124.5 46.5 124.5 46.3C124.5 46.1 124.5 45.9 124.4 45.7C124.4 45.5 124.2 45.1 124 44.8Z" fill="#8A8A8F"/>
</svg>
