<svg width="20" height="20" viewBox="0 0 20 20" fill="none" xmlns="http://www.w3.org/2000/svg">
<path d="M16.6578 9.64317C16.5895 8.33143 16.1333 7.06951 15.347 6.01734C15.1074 6.27536 14.8513 6.51754 14.5803 6.74234C13.7478 7.43388 12.8174 7.99833 11.8195 8.41734C11.9587 8.709 12.0862 8.9915 12.1987 9.25817V9.26067C12.2304 9.33518 12.261 9.41019 12.2903 9.48567C13.552 9.344 14.882 9.39567 16.1712 9.56984C16.3428 9.59317 16.5045 9.61817 16.6578 9.64317ZM8.83699 3.43484C9.64911 4.57915 10.398 5.76703 11.0803 6.99317C12.0995 6.5915 12.942 6.08484 13.6203 5.52067C13.8558 5.32661 14.0774 5.11638 14.2837 4.8915C13.0845 3.88293 11.5672 3.33095 10.0003 3.33317C9.61035 3.3329 9.2211 3.36664 8.83699 3.434V3.43484ZM3.54449 8.33067C4.11218 8.31634 4.67919 8.28216 5.24449 8.22817C6.61086 8.10596 7.96556 7.87692 9.29616 7.54317C8.60075 6.33501 7.84995 5.1596 7.04616 4.02067C6.18759 4.446 5.43054 5.05101 4.82636 5.79466C4.22218 6.53831 3.78501 7.4032 3.54449 8.33067ZM4.81949 14.1957C5.14283 13.7232 5.56783 13.1915 6.13199 12.6132C7.34366 11.3715 8.77366 10.4048 10.4287 9.8715L10.4803 9.8565C10.3428 9.55317 10.2137 9.28234 10.0837 9.02734C8.55366 9.47317 6.94199 9.7515 5.33616 9.89567C4.55283 9.9665 3.85033 9.99734 3.33366 10.0023C3.33218 11.5295 3.85724 13.0105 4.82033 14.1957H4.81949ZM12.5045 16.179C12.1831 14.5584 11.7282 12.9671 11.1445 11.4215C9.47616 12.0273 8.14699 12.9132 7.11949 13.9698C6.70483 14.3885 6.33684 14.8509 6.02199 15.349C7.171 16.2063 8.56672 16.6686 10.0003 16.6665C10.8586 16.6677 11.709 16.5028 12.5045 16.1807V16.179ZM14.0653 15.2832C15.3664 14.283 16.2527 12.8379 16.5545 11.2248C16.2712 11.154 15.912 11.0832 15.517 11.0282C14.6388 10.9017 13.7476 10.8925 12.867 11.0007C13.3629 12.3997 13.7632 13.8308 14.0653 15.284V15.2832ZM10.0003 18.3332C5.39783 18.3332 1.66699 14.6023 1.66699 9.99984C1.66699 5.39734 5.39783 1.6665 10.0003 1.6665C14.6028 1.6665 18.3337 5.39734 18.3337 9.99984C18.3337 14.6023 14.6028 18.3332 10.0003 18.3332Z" fill="#69696E"/>
</svg>
