<?xml version="1.0" encoding="UTF-8"?>
<svg width="21px" height="23px" viewBox="0 0 21 23" version="1.1" xmlns="http://www.w3.org/2000/svg" xmlns:xlink="http://www.w3.org/1999/xlink">
    <title>excellence</title>
    <g id="Page-1" stroke="none" stroke-width="1" fill="none" fill-rule="evenodd">
        <g id="excellence" transform="translate(0.244108, 0.288618)" fill-rule="nonzero">
            <path d="M19.6593284,11.1779941 L15.5206011,6.57301079 C15.4619086,6.50769579 15.3782319,6.47038891 15.2904204,6.47038891 L4.44817618,6.47038891 C4.36036468,6.47038891 4.27668796,6.50769579 4.21799545,6.57301079 L0.0793438121,11.1779941 C-0.0306810091,11.3003511 -0.0257005431,11.487417 0.0906790835,11.6037461 L9.65045207,21.1635994 C9.7084834,21.221661 9.78720896,21.2542822 9.86929907,21.2542822 C9.95138919,21.2542822 10.0301147,21.221661 10.0881461,21.1635994 L19.6479932,11.6037461 C19.7643728,11.487417 19.7693533,11.3003511 19.6593284,11.1779941 Z M13.0355081,11.6944268 L9.8692983,20.0695357 L6.70315721,11.6944268 L13.0355081,11.6944268 Z M6.89163196,11.0753707 L9.8692983,7.28126378 L12.847031,11.0753707 L6.89163196,11.0753707 Z M10.5056969,7.08944264 L14.8365379,7.08944264 L13.3929659,10.7682817 L10.5056969,7.08944264 Z M6.3457511,10.7682238 L4.90214053,7.08944264 L9.23290587,7.08944264 L6.3457511,10.7682238 Z M5.8012721,11.0753707 L1.00387476,11.0753707 L4.34321222,7.35977003 L5.8012721,11.0753707 Z M6.04139011,11.6944268 L9.07126555,19.7090133 L1.05674156,11.6944268 L6.04139011,11.6944268 Z M13.6973516,11.6944268 L18.6819245,11.6944268 L10.6673534,19.7089978 L13.6973516,11.6944268 Z M13.9373091,11.0753761 L15.3953373,7.35971831 L18.7347875,11.0753761 L13.9373091,11.0753761 Z" id="Shape" fill="#8A8A8F"></path>
            <path d="M9.8692983,4.29145085 C10.0402422,4.29145085 10.1788174,4.15286708 10.1788259,3.98192322 L10.1788259,0.309525318 C10.1788259,0.138577926 10.0402457,-2.31584134e-06 9.8692983,-2.31584134e-06 C9.69835091,-2.31584134e-06 9.55977067,0.138577926 9.55977067,0.309525318 L9.55977067,3.98192013 C9.55977067,4.15286519 9.69835323,4.29145085 9.8692983,4.29145085 L9.8692983,4.29145085 Z" id="Path" fill="#008EFF"></path>
            <path d="M3.7768269,5.11076309 C3.8352987,5.27140214 4.01292313,5.35422507 4.17356217,5.29575327 C4.33420122,5.23728148 4.41702415,5.05965705 4.35855235,4.899018 L3.1025311,1.44811643 C3.06470648,1.34420119 2.97431697,1.26835874 2.86541142,1.2491582 C2.75650587,1.22995766 2.64562963,1.27031604 2.5745487,1.35503074 C2.50346777,1.43974545 2.48298103,1.55594628 2.52080565,1.65986153 L3.7768269,5.11076309 Z" id="Path" fill="#008EFF"></path>
            <path d="M15.5651865,5.29575404 C15.6423243,5.32390415 15.7274903,5.32022277 15.8019113,5.2855214 C15.8763323,5.25082002 15.9338984,5.18794756 15.9619202,5.11076309 L17.2178666,1.65985921 C17.2763384,1.4991786 17.1934818,1.32152048 17.0328012,1.26304869 C16.8721205,1.20457689 16.6944624,1.28743351 16.6359906,1.44811412 L15.3800442,4.899018 C15.3216901,5.05969591 15.4045565,5.23726803 15.5651865,5.29575404 Z" id="Path" fill="#008EFF"></path>
        </g>
    </g>
</svg>