<svg xmlns="http://www.w3.org/2000/svg" width="126.544" height="26.25" viewBox="0 0 126.544 26.25">
  <g id="Frontier_Dark" data-name="Frontier Dark" transform="translate(-0.875 -1.875)">
    <path id="Path_1" data-name="Path 1" d="M51.562,22V6.6H61.44V8.624H53.85v4.6h6.138v2.024H53.85V22Zm17.613-9.24H67.569q-2.684,0-2.684,4.224V22H62.751V10.912h2.134v2.134a3.155,3.155,0,0,1,1.078-1.628,3.138,3.138,0,0,1,1.87-.506h1.342Zm10.463,7.81a5.543,5.543,0,0,1-4.092,1.606,5.5,5.5,0,0,1-5.72-5.72,5.71,5.71,0,1,1,11.418,0A5.617,5.617,0,0,1,79.638,20.57Zm-4.092-.264a3.24,3.24,0,0,0,2.53-1.078,3.938,3.938,0,0,0,.99-2.772,3.938,3.938,0,0,0-.99-2.772,3.24,3.24,0,0,0-2.53-1.078,3.333,3.333,0,0,0-2.574,1.078A3.992,3.992,0,0,0,72,16.456a3.992,3.992,0,0,0,.968,2.772A3.333,3.333,0,0,0,75.546,20.306ZM83.333,22V10.912h2.134V12.87a3.286,3.286,0,0,1,1.364-1.584,4.3,4.3,0,0,1,2.2-.55,3.85,3.85,0,0,1,2.992,1.232,4.532,4.532,0,0,1,1.144,3.212V22H91.033V15.6a3.086,3.086,0,0,0-.726-2.134,2.35,2.35,0,0,0-1.87-.814A2.721,2.721,0,0,0,86.3,13.6a3.487,3.487,0,0,0-.836,2.4V22ZM96.79,7.436h2.134v3.476H102.2V12.76H98.924V18.3a1.956,1.956,0,0,0,.44,1.364,1.68,1.68,0,0,0,1.276.484H102.2V22h-1.738a3.674,3.674,0,0,1-2.684-.968,3.552,3.552,0,0,1-.99-2.662V12.76H94.524V10.912H96.79Zm7.1-1.166h2.376V8.954H103.89ZM104.022,22V10.912h2.134V22Zm12.754-3.608h2.134a4.247,4.247,0,0,1-1.694,2.75,5.579,5.579,0,0,1-3.432,1.034,5.186,5.186,0,0,1-4.026-1.694,5.871,5.871,0,0,1-1.54-4.092,5.832,5.832,0,0,1,1.43-4.026,5.581,5.581,0,0,1,7.766-.11,5.292,5.292,0,0,1,1.408,3.74,7.418,7.418,0,0,1-.044.836h-8.47a4,4,0,0,0,1.078,2.552,3.211,3.211,0,0,0,2.4.968Q116.292,20.35,116.776,18.392Zm-3.212-5.94a2.992,2.992,0,0,0-3.19,2.816h6.292a2.9,2.9,0,0,0-3.1-2.816Zm13.855.308h-1.606q-2.684,0-2.684,4.224V22H121V10.912h2.134v2.134a3.154,3.154,0,0,1,1.078-1.628,3.138,3.138,0,0,1,1.87-.506h1.342Z" fill="#25252e"/>
    <path id="Path_2" data-name="Path 2" d="M23,1.875A16.125,16.125,0,0,1,39.125,18a1.125,1.125,0,0,1-2.25,0A13.875,13.875,0,0,0,23,4.125H11a7.875,7.875,0,0,0,0,15.75H23a1.875,1.875,0,0,0,0-3.75H11a4.125,4.125,0,0,1,0-8.25H23a10.125,10.125,0,0,1,0,20.25H10a1.125,1.125,0,0,1,0-2.25H23a7.875,7.875,0,0,0,0-15.75H11a1.875,1.875,0,0,0,0,3.75H23a4.125,4.125,0,0,1,0,8.25H11a10.125,10.125,0,0,1,0-20.25Z" fill="#01bc9a" fill-rule="evenodd"/>
  </g>
</svg>
