<?xml version="1.0" encoding="UTF-8"?>
<svg width="20px" height="19px" viewBox="0 0 20 19" version="1.1" xmlns="http://www.w3.org/2000/svg" xmlns:xlink="http://www.w3.org/1999/xlink">
    <title>give-others</title>
    <g id="Page-1" stroke="none" stroke-width="1" fill="none" fill-rule="evenodd">
        <g id="give-others" transform="translate(0.000000, 0.288618)" fill-rule="nonzero">
            <g id="Group">
                <path d="M17.429625,10.23675 L11.208,13.838625 L8.44875,12.875625 L9.13125,12.2865 L11.625,12.2865 C12.45225,12.2865 13.125,11.61375 13.125,10.7865 C13.125,9.95925 12.45225,9.2865 11.625,9.2865 L9.06075,9.2865 L7.9935,8.931 C7.954875,8.91825 7.915125,8.9115 7.875,8.9115 L3,8.9115 L3,8.622375 C3,8.415 2.832375,8.1615 2.625,8.1615 L0,8.1615 L0,8.9115 L2.25,8.9115 L2.25,9.372375 L2.25,16.122375 L2.25,16.4115 L0,16.4115 L0,17.1615 L2.625,17.1615 C2.832375,17.1615 3,17.07975 3,16.872375 L3,16.56825 L10.5675,17.884125 C10.6725,17.9025 10.778625,17.911125 10.885125,17.911125 C11.274,17.911125 11.66025,17.79 11.981625,17.5605 L18.91275,12.51375 C19.209375,12.29775 19.40325,11.978625 19.45725,11.61525 C19.512,11.25225 19.4205,10.890375 19.2,10.597125 C18.7875,10.047 18.02625,9.891 17.429625,10.23675 Z M18.7155,11.505 C18.691125,11.668125 18.604125,11.811 18.471,11.908125 L11.5425,16.953 C11.2995,17.127 10.991625,17.197125 10.69575,17.14575 L3,15.80775 L3,9.661875 L7.81425,9.661875 L8.8815,10.017375 C8.920125,10.030125 8.959875,10.036875 9,10.036875 L11.625,10.036875 C12.038625,10.036875 12.375,10.37325 12.375,10.786875 C12.375,11.2005 12.038625,11.536875 11.625,11.536875 L9,11.536875 C8.9145,11.536875 8.832375,11.56575 8.765625,11.619 L7.930875,12.286875 L6,12.286875 L6,13.036875 L6.68925,13.036875 L11.1315,14.5605 C11.233125,14.594625 11.3445,14.60475 11.437875,14.55075 L17.805375,10.875 C18.073125,10.720875 18.414375,10.795125 18.6,11.043 C18.699,11.174625 18.74025,11.34225 18.7155,11.505 Z" id="Shape" fill="#8A8A8F"></path>
                <path d="M19.206875,0.7575 C18.16025,-0.252375 16.457375,-0.251625 15.41075,0.7575 L15.125,1.03275 L14.83925,0.7575 C13.792625,-0.252375 12.08975,-0.252375 11.043125,0.7575 C10.531625,1.250625 10.25,1.90725 10.25,2.607375 C10.25,3.30675 10.531625,3.963375 11.043125,4.456875 L14.864375,8.143125 C14.93675,8.21325 15.030875,8.248125 15.124625,8.248125 C15.218375,8.248125 15.3125,8.212875 15.384875,8.143125 L19.206125,4.456875 C19.718375,3.963375 20,3.30675 20,2.607375 C20,1.90725 19.718375,1.250625 19.206875,0.7575 Z M18.686,3.916875 L15.125,7.351875 L11.564,3.916875 C11.20025,3.565875 11,3.100875 11,2.607375 C11,2.1135 11.20025,1.648125 11.564,1.2975 C11.943875,0.931125 12.442625,0.74775 12.941375,0.74775 C13.440125,0.74775 13.938875,0.931125 14.31875,1.2975 L14.86475,1.824 C15.009875,1.963875 15.2405,1.963875 15.385625,1.824 L15.931625,1.2975 C16.691,0.565125 17.926625,0.565125 18.686375,1.2975 C19.04975,1.648125 19.25,2.113125 19.25,2.607375 C19.25,3.100875 19.04975,3.565875 18.686,3.916875 Z" id="Shape" fill="#008EFF"></path>
            </g>
        </g>
    </g>
</svg>