<?xml version="1.0" encoding="UTF-8"?>
<svg width="40px" height="40px" viewBox="0 0 40 40" version="1.1" xmlns="http://www.w3.org/2000/svg" xmlns:xlink="http://www.w3.org/1999/xlink">
    <title>icon-4 copy 2</title>
    <g id="icon-4-copy-2" stroke="none" stroke-width="1" fill="none" fill-rule="evenodd">
        <g id="noun_user-profile_1096596-copy-2" fill-rule="nonzero">
            <path d="M8.48484848,4.6969697 L8.48484848,6.21212121 L3.63636364,6.21212121 C2.75531435,6.21212121 2.02560461,6.9091995 1.97276061,7.77782987 L1.96969697,7.87878788 L1.96969697,36.3636364 C1.96969697,37.2446856 2.66677525,37.9743954 3.53540563,38.0272394 L3.63636364,38.030303 L27.8787879,38.030303 C28.7598372,38.030303 29.4895469,37.3332247 29.5423909,36.4645944 L29.5454545,36.3636364 L29.5454545,7.87878788 C29.5454545,6.99773859 28.8483763,6.26802886 27.9797459,6.21518485 L27.8787879,6.21212121 L23.030303,6.21212121 L23.030303,4.6969697 L27.8787879,4.6969697 C29.5867255,4.6969697 30.9889007,6.05644645 31.057942,7.74802846 L31.0606061,7.87878788 L31.0606061,36.3636364 C31.0606061,38.071574 29.7011293,39.4737492 28.0095473,39.5427905 L27.8787879,39.5454545 L3.63636364,39.5454545 C1.92842604,39.5454545 0.526250847,38.1859778 0.457209549,36.4943958 L0.454545455,36.3636364 L0.454545455,7.87878788 C0.454545455,6.17085028 1.8140222,4.76867509 3.50560422,4.69963379 L3.63636364,4.6969697 L8.48484848,4.6969697 Z" id="Path" fill="#8A8A8F"></path>
            <path d="M15.6084397,0.457577461 C14.2216738,0.514003302 12.9855772,1.35318316 12.3927273,2.57575758 L9.81818182,2.57575758 C8.73311761,2.57575758 7.84848485,3.46039034 7.84848485,4.54545455 L7.84848485,6.96969697 C7.84848485,8.05476117 8.73311761,8.93939394 9.81818182,8.93939394 L21.6969697,8.93939394 C22.7820339,8.93939394 23.6666667,8.05476117 23.6666667,6.96969697 L23.6666667,4.54545455 L23.6635391,4.43394955 C23.6054192,3.40043307 22.7446179,2.57575758 21.6969697,2.57575758 L19.1218182,2.57575758 C18.5084968,1.30967246 17.2043612,0.454545455 15.7575758,0.454545455 L15.6084397,0.457577461 Z M15.7575758,1.96969697 C16.7294155,1.96969697 17.6050438,2.63305174 17.8804346,3.55102113 L18.042401,4.09090909 L21.6969697,4.09090909 C21.9452388,4.09090909 22.1515152,4.29718542 22.1515152,4.54545455 L22.1515152,6.96969697 C22.1515152,7.2179661 21.9452388,7.42424242 21.6969697,7.42424242 L9.81818182,7.42424242 C9.56991269,7.42424242 9.36363636,7.2179661 9.36363636,6.96969697 L9.36363636,4.54545455 C9.36363636,4.29718542 9.56991269,4.09090909 9.81818182,4.09090909 L13.4727505,4.09090909 L13.6347169,3.55102113 C13.9101077,2.63305174 14.785736,1.96969697 15.7575758,1.96969697 Z" id="Path" fill="#8A8A8F"></path>
            <path d="M15.7575758,18.6363636 C19.872943,18.6363636 23.1818182,21.9452388 23.1818182,26.0606061 C23.1818182,26.4790036 22.84264,26.8181818 22.4242424,26.8181818 C22.0058449,26.8181818 21.6666667,26.4790036 21.6666667,26.0606061 C21.6666667,22.7820339 19.0361479,20.1515152 15.7575758,20.1515152 C12.4790036,20.1515152 9.84848485,22.7820339 9.84848485,26.0606061 C9.84848485,26.4790036 9.50930663,26.8181818 9.09090909,26.8181818 C8.67251155,26.8181818 8.33333333,26.4790036 8.33333333,26.0606061 C8.33333333,21.9452388 11.6422085,18.6363636 15.7575758,18.6363636 Z" id="Path" fill="#008EFF"></path>
            <path d="M23.3333333,29.5454545 C23.7517309,29.5454545 24.0909091,29.8846328 24.0909091,30.3030303 C24.0909091,30.695278 23.7928032,31.0178993 23.4107911,31.0566948 L23.3333333,31.0606061 L8.18181818,31.0606061 C7.76342064,31.0606061 7.42424242,30.7214278 7.42424242,30.3030303 C7.42424242,29.9107826 7.72234828,29.5881613 8.10436046,29.5493658 L8.18181818,29.5454545 L23.3333333,29.5454545 Z" id="Path" fill="#008EFF"></path>
            <path d="M20.3030303,32.5757576 C20.7214278,32.5757576 21.0606061,32.9149358 21.0606061,33.3333333 C21.0606061,33.725581 20.7625002,34.0482024 20.380488,34.0869978 L20.3030303,34.0909091 L11.2121212,34.0909091 C10.7937237,34.0909091 10.4545455,33.7517309 10.4545455,33.3333333 C10.4545455,32.9410856 10.7526513,32.6184643 11.1346635,32.5796689 L11.2121212,32.5757576 L20.3030303,32.5757576 Z" id="Path" fill="#008EFF"></path>
            <path d="M15.7575758,11.3636364 C13.33087,11.3636364 11.3636364,13.33087 11.3636364,15.7575758 C11.3636364,18.1842815 13.33087,20.1515152 15.7575758,20.1515152 C18.1842815,20.1515152 20.1515152,18.1842815 20.1515152,15.7575758 C20.1515152,13.33087 18.1842815,11.3636364 15.7575758,11.3636364 Z M15.7575758,12.8787879 C17.3474864,12.8787879 18.6363636,14.1676651 18.6363636,15.7575758 C18.6363636,17.3474864 17.3474864,18.6363636 15.7575758,18.6363636 C14.1676651,18.6363636 12.8787879,17.3474864 12.8787879,15.7575758 C12.8787879,14.1676651 14.1676651,12.8787879 15.7575758,12.8787879 Z" id="Oval" fill="#008EFF"></path>
        </g>
    </g>
</svg>