<?xml version="1.0" encoding="UTF-8"?>
<svg width="40px" height="40px" viewBox="0 0 40 40" version="1.1" xmlns="http://www.w3.org/2000/svg" xmlns:xlink="http://www.w3.org/1999/xlink">
    <title>icon-3</title>
    <defs>
        <path d="M33.870217,2.67041061 L30.5496075,2.67041061 C30.5496075,1.57005741 29.657595,0.678044901 28.5572418,0.678044901 L7.30534092,0.678044901 C6.20498772,0.678044901 5.31297521,1.57005741 5.31297521,2.67041061 L3.32060951,2.67041061 C1.48759776,2.67260627 0.00219566427,4.15800837 0,5.99102011 L0,28.5711648 C0.00219566427,30.4041765 1.48759776,31.8895786 3.32060951,31.8917743 L13.1941098,31.8917743 L12.6960184,35.8765057 L11.2900723,35.8765057 C10.1897191,35.8765057 9.29770662,36.7685182 9.29770662,37.8688714 C9.29770662,38.9692246 10.1897191,39.8612371 11.2900723,39.8612371 L25.9007542,39.8612371 C27.0011074,39.8612371 27.8931199,38.9692246 27.8931199,37.8688714 C27.8931199,36.7685182 27.0011074,35.8765057 25.9007542,35.8765057 L24.4948081,35.8765057 L23.9967167,31.8917743 L33.870217,31.8917743 C35.7032287,31.8895786 37.1886308,30.4041765 37.1908265,28.5711648 L37.1908265,5.99102011 C37.1886308,4.15800837 35.7032287,2.67260627 33.870217,2.67041061 Z M33.870217,3.99865441 C34.9705702,3.99865441 35.8625827,4.89066692 35.8625827,5.99102011 L35.8625827,25.2505553 L30.5496075,25.2505553 L30.5496075,3.99865441 L33.870217,3.99865441 Z M6.64121901,6.65514201 L29.2213637,6.65514201 L29.2213637,25.2505553 L6.64121901,25.2505553 L6.64121901,6.65514201 Z M7.30534092,2.0062887 L28.5572418,2.0062887 C28.9240262,2.0062887 29.2213637,2.30362621 29.2213637,2.67041061 L29.2213637,5.32689821 L6.64121901,5.32689821 L6.64121901,2.67041061 C6.64121901,2.30362621 6.93855652,2.0062887 7.30534092,2.0062887 Z M3.32060951,3.99865441 L5.31297521,3.99865441 L5.31297521,25.2505553 L1.3282438,25.2505553 L1.3282438,5.99102011 C1.3282438,4.89066692 2.22025631,3.99865441 3.32060951,3.99865441 Z M26.5648761,37.8688714 C26.5648761,38.2356558 26.2675386,38.5329933 25.9007542,38.5329933 L11.2900723,38.5329933 C10.9232879,38.5329933 10.6259504,38.2356558 10.6259504,37.8688714 C10.6259504,37.502087 10.9232879,37.2047495 11.2900723,37.2047495 L25.9007542,37.2047495 C26.2675386,37.2047495 26.5648761,37.502087 26.5648761,37.8688714 Z M23.1559383,35.8765057 L14.0348881,35.8765057 L14.5329796,31.8917743 L22.6578469,31.8917743 L23.1559383,35.8765057 Z M33.870217,30.5635305 L3.32060951,30.5635305 C2.22025631,30.5635305 1.3282438,29.671518 1.3282438,28.5711648 L1.3282438,26.5787991 L35.8625827,26.5787991 L35.8625827,28.5711648 C35.8625827,29.671518 34.9705702,30.5635305 33.870217,30.5635305 Z" id="path-1"></path>
    </defs>
    <g id="icon-3" stroke="none" stroke-width="1" fill="none" fill-rule="evenodd">
        <g id="noun_service_3473239" transform="translate(0.000000, -0.321955)">
            <g id="Rectangle" transform="translate(0.000000, 0.321955)">
                <mask id="mask-2" fill="white">
                    <use xlink:href="#path-1"></use>
                </mask>
                <use id="Mask" fill="#8A8A8F" fill-rule="nonzero" xlink:href="#path-1"></use>
                <rect fill="#008EFF" mask="url(#mask-2)" x="5.31297521" y="4.54747351e-13" width="25.2366323" height="25.2505553"></rect>
            </g>
        </g>
        <g id="Group" transform="translate(10.500000, 11.000000)" fill="#008EFF" fill-rule="nonzero">
            <path d="M14.5274701,4.53471906 L14.2267883,0.826310034 C14.2134491,0.573211976 14.0041578,0.374936046 13.7507087,0.375287314 L10.0673565,0.0495486834 C9.78571604,0.0348734032 9.54258373,0.244851307 9.51610652,0.525628221 C9.50215263,0.656071039 9.54264333,0.786490879 9.62801873,0.886095506 C9.71339412,0.985700133 9.83608692,1.04566104 9.96712924,1.05182139 L12.5980951,1.27733275 L8.26326563,5.61216223 L6.13343612,3.50738954 C6.04326824,3.4091157 5.9160123,3.35317065 5.78264067,3.35317065 C5.64926904,3.35317065 5.5220131,3.4091157 5.43184522,3.50738954 L0.746220297,8.16795764 C0.552128768,8.37129137 0.552128768,8.69127162 0.746220297,8.89460536 C0.836388174,8.99287919 0.963644112,9.04882424 1.09701575,9.04882424 C1.23038738,9.04882424 1.35764332,8.99287919 1.4478112,8.89460536 L5.78264067,4.55977588 L7.91247018,6.68960539 C8.11221357,6.86826131 8.41431769,6.86826131 8.61406108,6.68960539 L13.299686,1.97892365 L13.5251974,4.60988952 C13.5510269,4.866923 13.7680089,5.0622068 14.0263337,5.06091224 L14.0764474,5.06091224 C14.2074897,5.05475188 14.3301825,4.99479098 14.4155579,4.89518635 C14.5009333,4.79558172 14.541424,4.66516188 14.5274701,4.53471906 L14.5274701,4.53471906 Z" id="Path"></path>
            <path d="M13.7504315,0.175287507 L10.0849748,-0.149673793 C9.68907489,-0.170433546 9.35353077,0.119354555 9.31698988,0.506851558 C9.29742524,0.689596525 9.35492599,0.874805462 9.47616741,1.01625378 L9.55494248,1.09420618 C9.66757742,1.18870616 9.80886318,1.24460211 9.95773752,1.25160076 L12.152,1.439 L8.262,5.329 L6.2740182,3.36513386 C6.15275733,3.2326181 5.97204144,3.15317065 5.78264067,3.15317065 C5.5932399,3.15317065 5.41252401,3.2326181 5.2844768,3.37217656 L0.605178594,8.02615765 C0.333685776,8.31048096 0.333685776,8.75208204 0.601549273,9.0327006 C0.726899086,9.1693768 0.907614973,9.24882424 1.09701575,9.24882424 L1.20926215,9.23944524 C1.35659613,9.21464082 1.49274185,9.1414651 1.59517962,9.02981833 L5.782,4.842 L7.77104882,6.83102675 L7.85989522,6.89967132 C8.13677383,7.08277197 8.4992972,7.06058148 8.74739441,6.83867659 L13.137,2.425 L13.325928,4.62696975 C13.3623376,4.98950075 13.6659156,5.26272094 14.027336,5.26090973 L14.0764474,5.26091224 C14.271932,5.25194329 14.4461678,5.16679294 14.5674092,5.02534462 C14.6886506,4.88389631 14.7461514,4.69868737 14.7263355,4.5134458 L14.4261341,0.810146861 C14.4075681,0.456359897 14.110354,0.174788671 13.7504315,0.175287507 Z M10.0497382,0.24877116 L13.7330904,0.574509791 C13.8979616,0.575083421 14.01933,0.690064055 14.0270654,0.836836158 L14.3281243,4.55088224 C14.3366966,4.6316364 14.3132159,4.70726714 14.2637065,4.76502808 C14.2141972,4.82278901 14.1430474,4.85756047 14.0670556,4.86113287 L14.0263337,4.86091224 C13.8701023,4.86169266 13.7397163,4.74434526 13.7241951,4.58989203 L13.4621139,1.53202713 L8.4722631,6.54856166 C8.35690453,6.65128504 8.16962673,6.65128504 8.04580351,6.54053419 L5.78264067,4.27693317 L1.30638984,8.753184 C1.24815423,8.81638159 1.17435824,8.84882424 1.09701575,8.84882424 C1.01967325,8.84882424 0.945877262,8.81638159 0.893588718,8.75939238 C0.77057176,8.63046121 0.77057176,8.43210179 0.890891322,8.30605288 L5.57288692,3.64918953 C5.63150219,3.5856133 5.70529818,3.55317065 5.78264067,3.55317065 C5.85998316,3.55317065 5.93377915,3.5856133 5.9860677,3.64260251 L8.26409997,5.8941706 L13.0434941,1.11477646 L9.98420947,0.852552064 C9.90052924,0.848469622 9.82937942,0.813698167 9.77987005,0.755937231 C9.73036068,0.698176296 9.70688003,0.622545553 9.71497192,0.546901485 C9.73163669,0.37034806 9.88235719,0.240180353 10.0497382,0.24877116 Z" id="Path"></path>
        </g>
    </g>
</svg>