<?xml version="1.0" encoding="UTF-8"?>
<svg width="93px" height="101px" viewBox="0 0 93 101" version="1.1" xmlns="http://www.w3.org/2000/svg" xmlns:xlink="http://www.w3.org/1999/xlink">
    <title>icon-3</title>
    <defs>
        <rect id="path-1" x="0" y="0" width="67" height="67" rx="33.5"></rect>
        <filter x="-32.1%" y="-26.1%" width="164.2%" height="164.2%" filterUnits="objectBoundingBox" id="filter-2">
            <feOffset dx="0" dy="4" in="SourceAlpha" result="shadowOffsetOuter1"></feOffset>
            <feGaussianBlur stdDeviation="6.5" in="shadowOffsetOuter1" result="shadowBlurOuter1"></feGaussianBlur>
            <feColorMatrix values="0 0 0 0 0   0 0 0 0 0   0 0 0 0 0  0 0 0 0.0557801573 0" type="matrix" in="shadowBlurOuter1" result="shadowMatrixOuter1"></feColorMatrix>
            <feOffset dx="0" dy="1" in="SourceAlpha" result="shadowOffsetOuter2"></feOffset>
            <feColorMatrix values="0 0 0 0 0   0 0 0 0 0   0 0 0 0 0  0 0 0 0.0869755245 0" type="matrix" in="shadowOffsetOuter2" result="shadowMatrixOuter2"></feColorMatrix>
            <feOffset dx="0" dy="3" in="SourceAlpha" result="shadowOffsetOuter3"></feOffset>
            <feGaussianBlur stdDeviation="2" in="shadowOffsetOuter3" result="shadowBlurOuter3"></feGaussianBlur>
            <feColorMatrix values="0 0 0 0 0   0 0 0 0 0   0 0 0 0 0  0 0 0 0.061052229 0" type="matrix" in="shadowBlurOuter3" result="shadowMatrixOuter3"></feColorMatrix>
            <feMerge>
                <feMergeNode in="shadowMatrixOuter1"></feMergeNode>
                <feMergeNode in="shadowMatrixOuter2"></feMergeNode>
                <feMergeNode in="shadowMatrixOuter3"></feMergeNode>
            </feMerge>
        </filter>
    </defs>
    <g id="icon-3" stroke="none" stroke-width="1" fill="none" fill-rule="evenodd">
        <g id="Group-16" transform="translate(13.000000, 17.000000)">
            <g id="Rectangle">
                <use fill="black" fill-opacity="1" filter="url(#filter-2)" xlink:href="#path-1"></use>
                <use fill="#FFFFFF" fill-rule="evenodd" xlink:href="#path-1"></use>
            </g>
            <rect id="Rectangle-Copy-3" stroke="#000000" opacity="0.0720563616" x="5" y="5" width="57" height="57" rx="28.5"></rect>
        </g>
        <g id="Group" transform="translate(34.000000, 39.000000)" fill="#000000" fill-rule="nonzero" stroke="#000000" stroke-width="0.1">
            <polygon id="Path" points="11.1597592 7.19036789 11.8407492 6.50841472 5.67331104 0.340976589 1.9264214 0 2.26739799 3.74688963 8.43483612 9.91432776 9.11582609 9.23333779 3.1949699 3.31248161 2.99076923 1.06434783 5.2379398 1.26854849"></polygon>
            <path d="M22.6999866,14.6436923 L22.0189967,13.9627023 L20.6570167,15.3246823 L16.6086421,11.2763077 L15.926689,11.9572977 L19.9760268,16.0056722 L17.9320936,18.0486421 L13.8837191,14.0002676 L13.2027291,14.6812575 L17.2511037,18.7305953 L15.8891237,20.0925753 L16.5701137,20.7735652 L18.6130836,18.7296321 L22.6999866,22.8165351 L24.7429565,20.7735652 L20.6570167,16.6866622 L22.6999866,14.6436923 Z M23.3809766,20.7735652 L22.6999866,21.4545552 L19.2940736,18.0486421 L19.9760268,17.3676522 L23.3809766,20.7735652 Z" id="Shape"></path>
            <path d="M22.7760803,3.74688963 L23.1170569,0 L19.3701672,0.340976589 L4.38646154,15.3246823 L3.02448161,13.9627023 L2.34349164,14.6436923 L4.38646154,16.6866622 L0.300521739,20.7735652 L2.34349164,22.8165351 L6.43039465,18.7296321 L8.47336455,20.7735652 L9.15435452,20.0925753 L7.79237458,18.7305953 L22.7760803,3.74688963 Z M2.34349164,21.4545552 L1.66250167,20.7735652 L5.06745151,17.3676522 L5.74940468,18.0486421 L2.34349164,21.4545552 Z M5.06745151,16.0056722 L19.8055385,1.26854849 L22.052709,1.06434783 L21.8485084,3.31248161 L7.11138462,18.0486421 L5.06745151,16.0056722 Z" id="Shape"></path>
        </g>
    </g>
</svg>