<?xml version="1.0" encoding="UTF-8"?>
<svg width="40px" height="40px" viewBox="0 0 40 40" version="1.1" xmlns="http://www.w3.org/2000/svg" xmlns:xlink="http://www.w3.org/1999/xlink">
    <title>icon-6</title>
    <defs>
        <path d="M33.8447281,2.91183434 L21.8139227,2.91183434 C19.9411811,0.265309324 18.9225211,0.257345858 18.5814194,0.257345858 C18.2403176,0.257345858 17.220994,0.265309324 15.348916,2.91183434 L3.3181106,2.91183434 C1.48647828,2.91402835 0.00219401193,4.39831262 0,6.22994494 L0,28.793097 C0.00219401193,30.6247294 1.48647828,32.1090136 3.3181106,32.1112076 L13.1841807,32.1112076 L12.6864641,36.0929404 L11.281576,36.0929404 C10.1820509,36.0929404 9.29070969,36.9842816 9.29070969,38.0838067 C9.29070969,39.1833319 10.1820509,40.0746731 11.281576,40.0746731 L25.8812627,40.0746731 C26.9807878,40.0746731 27.8721291,39.1833319 27.8721291,38.0838067 C27.8721291,36.9842816 26.9807878,36.0929404 25.8812627,36.0929404 L24.4763747,36.0929404 L23.9786581,32.1112076 L33.8447281,32.1112076 C35.6763605,32.1090136 37.1606447,30.6247294 37.1628387,28.793097 L37.1628387,6.22994494 C37.1606447,4.39831262 35.6763605,2.91402835 33.8447281,2.91183434 Z M19.9086636,17.511521 C19.9086636,18.5069542 19.0778087,20.1660095 18.5814194,20.1660095 C18.08503,20.1660095 17.2541751,18.5069542 17.2541751,17.511521 C17.2541751,16.7785042 17.8484026,16.1842767 18.5814194,16.1842767 C19.3144361,16.1842767 19.9086636,16.7785042 19.9086636,17.511521 Z M14.9109254,14.0779401 L14.8531903,14.1934104 L12.9028049,14.1934104 L14.2340309,10.6423684 C14.300115,10.4737967 14.4322077,10.3395464 14.5996867,10.27074 L14.5996867,13.5297883 C14.6022859,13.7538652 14.7198333,13.9608888 14.9109254,14.0779401 L14.9109254,14.0779401 Z M19.4301921,14.8570325 L17.7326467,14.8570325 L17.5109969,14.1934104 L19.6518419,14.1934104 L19.4301921,14.8570325 Z M22.5631521,10.27074 C22.73069,10.339234 22.8626799,10.4736237 22.9281443,10.6423684 L24.2600339,14.1934104 L22.3096484,14.1934104 L22.2519133,14.0779401 C22.4430055,13.9608888 22.5605528,13.7538652 22.5631521,13.5297883 L22.5631521,10.27074 Z M15.9269066,5.02812528 C15.9249567,4.63142268 16.0431838,4.24342479 16.2660418,3.91523099 C17.5262602,2.07102511 18.3318975,1.5845901 18.5814194,1.5845901 C18.8309413,1.5845901 19.6365785,2.07102511 20.896797,3.9125765 C21.1196549,4.2407703 21.2378821,4.62876819 21.2359322,5.02547079 L21.2359322,12.8661661 L19.2450415,12.8661661 L19.2450415,8.88443342 L17.9177973,8.88443342 L17.9177973,12.8661661 L15.9269066,12.8661661 L15.9269066,5.02812528 Z M3.3181106,4.23907858 L14.7018845,4.23907858 C14.6367045,4.49621961 14.6023967,4.7602113 14.5996867,5.02547079 L14.5996867,8.90434209 C13.8704663,9.0002629 13.2528373,9.48891115 12.9917303,10.1765057 L11.6598407,13.7288749 C11.5076016,14.1363318 11.5646736,14.5925256 11.8125994,14.9499199 C12.0605252,15.3073142 12.4678361,15.520546 12.9028049,15.5206546 L15.2633088,15.5206546 C15.5148388,15.5207718 15.7448167,15.3786738 15.8572506,15.1536716 L16.2023341,14.4635046 L16.6243977,15.7303592 L16.6243977,15.7303592 C16.1770263,16.2157667 15.9281254,16.8513997 15.9269309,17.511521 C15.9269309,18.8785826 16.9608542,21.4932537 18.5814194,21.4932537 C20.2019846,21.4932537 21.2359079,18.8785826 21.2359079,17.511521 C21.2340344,16.851998 20.9849262,16.2171511 20.5377774,15.7323501 L20.5377774,15.7323501 L20.9598411,14.4654955 L21.3049246,15.1556625 C21.4180207,15.3801054 21.6482039,15.5214009 21.89953,15.5206546 L24.2600339,15.5206546 C24.6950027,15.520546 25.1023136,15.3073142 25.3502393,14.9499199 C25.5981651,14.5925256 25.6552372,14.1363318 25.5029981,13.7288749 L24.1711085,10.1778329 C23.9103935,9.48972148 23.2926881,9.00050287 22.5631521,8.90434209 L22.5631521,5.02547079 C22.5604421,4.7602113 22.5261343,4.49621961 22.4609543,4.23907858 L33.8447281,4.23907858 C34.9442533,4.23907858 35.8355945,5.13041981 35.8355945,6.22994494 L35.8355945,25.4749864 L27.0864005,25.4749864 C27.1649984,25.2624568 27.2063074,25.0379512 27.2085069,24.8113643 C27.205028,24.2650134 26.9784962,23.7437993 26.5814125,23.3685182 C26.1843287,22.9932371 25.6511656,22.7964688 25.1054884,22.8238161 C24.8256872,22.0258681 24.0723567,21.4917226 23.2267742,21.4917226 C22.3811917,21.4917226 21.6278612,22.0258681 21.34806,22.8238161 C20.8023829,22.7964688 20.2692197,22.9932371 19.8721359,23.3685182 C19.4750522,23.7437993 19.2485204,24.2650134 19.2450415,24.8113643 C19.247241,25.0379512 19.2885501,25.2624568 19.367148,25.4749864 L17.7956908,25.4749864 C17.8742887,25.2624568 17.9155977,25.0379512 17.9177973,24.8113643 C17.9146963,24.2648915 17.6882807,23.7434506 17.29111,23.3680874 C16.8939393,22.9927241 16.3605563,22.7960846 15.8147788,22.8238161 C15.5349775,22.0258681 14.781647,21.4917226 13.9360645,21.4917226 C13.090482,21.4917226 12.3371515,22.0258681 12.0573503,22.8238161 C11.5113717,22.7953132 10.9775472,22.9916941 10.5802017,23.3672226 C10.1828563,23.742751 9.95667407,24.2646472 9.95433181,24.8113643 C9.95653134,25.0379512 9.99784037,25.2624568 10.0764383,25.4749864 L1.32724424,25.4749864 L1.32724424,6.22994494 C1.32724424,5.13041981 2.21858547,4.23907858 3.3181106,4.23907858 Z M20.5722857,24.8113643 C20.5722857,24.4448559 20.8693995,24.1477422 21.2359079,24.1477422 C21.3541069,24.1469913 21.4702488,24.1786664 21.5717006,24.239322 C21.7883344,24.3692902 22.0599718,24.3649849 22.272378,24.2282167 C22.4847841,24.0914486 22.6011127,23.8459428 22.5724428,23.594945 C22.5668762,23.5582521 22.5637723,23.5212276 22.5631521,23.4841201 C22.5631521,23.1176117 22.8602658,22.820498 23.2267742,22.820498 C23.5932826,22.820498 23.8903963,23.1176117 23.8903963,23.4841201 C23.8897761,23.5212276 23.8866723,23.5582521 23.8811056,23.594945 C23.8524357,23.8459428 23.9687643,24.0914486 24.1811705,24.2282167 C24.3935766,24.3649849 24.665214,24.3692902 24.8818478,24.239322 C24.9832996,24.1786664 25.0994416,24.1469913 25.2176406,24.1477422 C25.584149,24.1477422 25.8812627,24.4448559 25.8812627,24.8113643 C25.8812627,25.1778727 25.584149,25.4749864 25.2176406,25.4749864 L21.2359079,25.4749864 C20.8693995,25.4749864 20.5722857,25.1778727 20.5722857,24.8113643 Z M11.281576,24.8113643 C11.281576,24.4448559 11.5786898,24.1477422 11.9451982,24.1477422 C12.0633972,24.1469913 12.1795392,24.1786664 12.280991,24.239322 C12.4976247,24.3692902 12.7692621,24.3649849 12.9816683,24.2282167 C13.1940744,24.0914486 13.310403,23.8459428 13.2817331,23.594945 C13.2761665,23.5582521 13.2730626,23.5212276 13.2724424,23.4841201 C13.2724424,23.1176117 13.5695562,22.820498 13.9360645,22.820498 C14.3025729,22.820498 14.5996867,23.1176117 14.5996867,23.4841201 C14.5990664,23.5212276 14.5959626,23.5582521 14.5903959,23.594945 C14.561726,23.8459428 14.6780546,24.0914486 14.8904608,24.2282167 C15.1028669,24.3649849 15.3745043,24.3692902 15.5911381,24.239322 C15.6925899,24.1786664 15.8087319,24.1469913 15.9269309,24.1477422 C16.2934393,24.1477422 16.590553,24.4448559 16.590553,24.8113643 C16.590553,25.1778727 16.2934393,25.4749864 15.9269309,25.4749864 L11.9451982,25.4749864 C11.5786898,25.4749864 11.281576,25.1778727 11.281576,24.8113643 Z M26.5448848,38.0838067 C26.5448848,38.4503151 26.2477711,38.7474288 25.8812627,38.7474288 L11.281576,38.7474288 C10.9150677,38.7474288 10.6179539,38.4503151 10.6179539,38.0838067 C10.6179539,37.7172983 10.9150677,37.4201846 11.281576,37.4201846 L25.8812627,37.4201846 C26.2477711,37.4201846 26.5448848,37.7172983 26.5448848,38.0838067 Z M23.1385125,36.0929404 L14.0243263,36.0929404 L14.5220429,32.1112076 L22.6407959,32.1112076 L23.1385125,36.0929404 Z M33.8447281,30.7839634 L3.3181106,30.7839634 C2.21858547,30.7839634 1.32724424,29.8926222 1.32724424,28.793097 L1.32724424,26.8022307 L35.8355945,26.8022307 L35.8355945,28.793097 C35.8355945,29.8926222 34.9442533,30.7839634 33.8447281,30.7839634 Z" id="path-1"></path>
    </defs>
    <g id="icon-6" stroke="none" stroke-width="1" fill="none" fill-rule="evenodd">
        <g id="noun_Rocket_3473233-Copy" transform="translate(0.000000, -0.594456)">
            <g id="Path-2" transform="translate(0.000000, 0.406276)">
                <mask id="mask-2" fill="white">
                    <use xlink:href="#path-1"></use>
                </mask>
                <use id="Mask" fill="#8A8A8F" fill-rule="nonzero" xlink:href="#path-1"></use>
                <path d="M14.6985855,4.25766421 C15.1007326,3.33178624 15.3590958,2.79738467 15.4736752,2.6544595 C15.5882546,2.51153434 15.7057423,1.65444531 15.8261382,0.0831924272 L22.6480852,-1.32724424 L21.8188387,2.90911116 C22.2266675,3.69733045 22.444279,4.15206163 22.4716732,4.2733047 C22.4990673,4.39454777 23.67064,6.41882801 25.9863912,10.3461454 L26.2797598,16.0933776 L21.8188387,20.1504794 L19.1134673,22.7601548 L14.2140307,20.8726756 L8.45784883,17.9709969 L7.43439614,11.5432832 L14.6985855,4.25766421 Z" fill="#008EFF" fill-rule="nonzero" mask="url(#mask-2)"></path>
            </g>
        </g>
    </g>
</svg>