<?xml version="1.0" encoding="UTF-8"?>
<svg width="40px" height="40px" viewBox="0 0 40 40" version="1.1" xmlns="http://www.w3.org/2000/svg" xmlns:xlink="http://www.w3.org/1999/xlink">
    <title>icon-3 copy</title>
    <g id="icon-3-copy" stroke="none" stroke-width="1" fill="none" fill-rule="evenodd">
        <g id="Group-2" transform="translate(0.376358, -0.015316)" fill="#8A8A8F">
            <path d="M20.6231572,0.774391548 C22.771796,0.774391548 24.5136118,2.51620738 24.5136118,4.66484609 L24.5136118,4.66484609 L24.513,17.2553915 L23.15,18.6343915 L23.1506213,4.56165441 C23.1506213,3.36514932 22.2021642,2.38575089 21.0018943,2.30621162 L20.8439666,2.30099622 L4.07464518,2.30099622 C2.80071499,2.30099622 1.76799053,3.31312736 1.76799053,4.56165441 L1.76799053,4.56165441 L1.76799053,36.1949227 C1.76799053,37.4434498 2.80071499,38.4555809 4.07464518,38.4555809 L4.07464518,38.4555809 L20.8439666,38.4555809 C22.1178968,38.4555809 23.1506213,37.4434498 23.1506213,36.1949227 L23.1506213,36.1949227 L23.15,32.9183915 L24.513,31.5503915 L24.5136118,36.0917311 C24.5136118,38.1732248 22.8789585,39.8729248 20.8233595,39.9771234 L20.6231572,39.9821856 L4.29545455,39.9821856 C2.14681583,39.9821856 0.405,38.2403698 0.405,36.0917311 L0.405,36.0917311 L0.405,4.66484609 C0.405,2.51620738 2.14681583,0.774391548 4.29545455,0.774391548 L4.29545455,0.774391548 Z" id="Combined-Shape" fill-rule="nonzero"></path>
            <rect id="Rectangle" x="6.98866999" y="1.22727273" width="10.9412718" height="3.15592304" rx="1"></rect>
        </g>
        <g id="noun_Pencil_2585479" transform="translate(15.406250, 15.000000)" fill="#008EFF" fill-rule="nonzero">
            <g id="Group" transform="translate(0.593750, 0.000000)">
                <path d="M4.89261443,17.2862357 C4.79028327,17.2874562 4.69218727,17.2454151 4.62251742,17.1704528 L1.35048506,13.8907034 C1.27552284,13.8210336 1.23348169,13.7229376 1.23468938,13.6206064 C1.23321191,13.5159741 1.27512151,13.415391 1.35048506,13.3427923 L14.4694827,0.223794666 C14.6195191,0.0767295925 14.8596404,0.0767295925 15.0096768,0.223794666 L18.2894262,3.50354409 C18.4364913,3.65358047 18.4364913,3.89370172 18.2894262,4.04373811 L5.1704285,17.1627358 C5.09917549,17.2409469 4.99841487,17.2857294 4.89261443,17.2862357 Z M2.16849315,13.6283235 L4.89261443,16.3524448 L17.4482669,3.80450933 L14.7164286,1.07267099 L2.16849315,13.6283235 Z" id="Shape"></path>
                <path d="M15.8122507,6.37428946 C15.7079674,6.37403399 15.6080484,6.33240107 15.5344367,6.2585336 L12.2624043,2.98650124 C12.1893575,2.91405095 12.1482697,2.81542856 12.1482697,2.7125457 C12.1482697,2.60966284 12.1893575,2.51104044 12.2624043,2.43859016 C12.4150583,2.29058989 12.6576614,2.29058989 12.8103154,2.43859016 L16.0823477,5.71062252 C16.230348,5.86327647 16.230348,6.10587965 16.0823477,6.2585336 C16.0111076,6.33123378 15.9140269,6.37283979 15.8122507,6.37428946 Z" id="Path"></path>
                <path d="M0.532476965,18.3743138 C0.429719056,18.3737857 0.330779514,18.3353093 0.254662896,18.266275 C0.161775976,18.1671278 0.12418433,18.0283278 0.154341149,17.8958562 L1.25016331,13.5357188 C1.27208835,13.4355208 1.33377625,13.3485279 1.4210798,13.2946907 C1.50838335,13.2408535 1.61381183,13.2247913 1.71318676,13.2501877 C1.92054301,13.3033414 2.04739488,13.5124756 1.99871788,13.7209282 L1.05723687,17.463701 L4.80000974,16.52222 C5.00846234,16.473543 5.21759651,16.6003949 5.27075025,16.8077511 C5.29614663,16.9071261 5.28008441,17.0125546 5.22624722,17.0998581 C5.17241003,17.1871616 5.08541715,17.2488496 4.98521912,17.2707746 L0.625081654,18.3665968 L0.532476965,18.3743138 Z" id="Path"></path>
                <path d="M3.25659825,15.6501925 C3.15464196,15.6495988 3.05724589,15.6078576 2.98650124,15.5344367 C2.91345441,15.4619864 2.8723666,15.363364 2.8723666,15.2604811 C2.8723666,15.1575983 2.91345441,15.0589759 2.98650124,14.9865256 L13.8907034,4.07460634 C13.9885783,3.97673145 14.1312341,3.93850696 14.2649337,3.97433165 C14.3986332,4.01015635 14.5030645,4.11458761 14.5388892,4.24828719 C14.5747139,4.38198677 14.5364894,4.52464253 14.4386145,4.62251742 L3.53441232,15.5344367 C3.46080062,15.6083041 3.36088161,15.6499371 3.25659825,15.6501925 Z" id="Path"></path>
            </g>
            <g id="Group" transform="translate(0.593750, 0.000000)">
                <path d="M14.2944827,0.0452589556 C14.5142581,-0.170163971 14.851329,-0.194099852 15.0971701,-0.0265486867 L15.1846768,0.0452589556 L18.4679619,3.32854409 C18.6833848,3.54831943 18.7073207,3.88539037 18.5385341,4.13247923 L18.4662029,4.2205148 L5.35523461,17.3311006 C5.23688983,17.4610021 5.06953973,17.5353918 4.89559597,17.5362616 C4.75732061,17.5378671 4.62362864,17.4927448 4.51857619,17.4130674 L4.44553263,17.3470212 L1.18029086,14.0738262 C1.05368607,13.9561597 0.982667043,13.7904905 0.984651542,13.6241362 C0.982751206,13.4851128 1.02691433,13.3504013 1.10703485,13.2420204 L1.17370836,13.1660157 L14.2944827,0.0452589556 Z M14.8346768,0.402330377 C14.7950576,0.363495861 14.7375974,0.353787232 14.6898073,0.372462405 L14.6462594,0.400571362 L1.52392816,13.5228409 C1.49838191,13.54745 1.48416304,13.5815666 1.48465877,13.6235566 C1.48442137,13.6447914 1.49015168,13.6654319 1.50291607,13.6851917 L1.52746985,13.7141351 L4.80564016,17.0002587 C4.82729431,17.0235577 4.85779845,17.0366332 4.891418,17.0362472 C4.91534357,17.0362472 4.93850356,17.029336 4.96081987,17.0144766 L4.9936518,16.9859591 L18.1108905,3.86873811 C18.149725,3.82911898 18.1594336,3.77165875 18.1407584,3.72386862 L18.1126495,3.68032078 L14.8346768,0.402330377 Z M1.81499409,13.6283778 L14.7163742,0.719063245 L17.8018747,3.80456368 L4.8925601,16.7059438 L1.81499409,13.6283778 Z M14.716,1.426 L2.522,13.628 L4.892,15.998 L17.094,3.804 L14.716,1.426 Z" id="Shape"></path>
                <path d="M12.0883847,2.25909872 C11.9659789,2.38048209 11.8982697,2.54300345 11.8982697,2.7125457 C11.8982697,2.88208794 11.9659789,3.0446093 12.0863539,3.16400124 L15.35766,6.4353103 C15.4777243,6.55579235 15.641113,6.62387097 15.8116383,6.62428871 C15.9835297,6.62187518 16.1435105,6.55331199 16.2609083,6.43350824 C16.5038509,6.18293177 16.5038509,5.78622435 16.2618392,5.53660291 L12.984335,2.25909872 C12.7347136,2.01708704 12.3380061,2.01708704 12.0883847,2.25909872 Z M12.6362958,2.61808159 L15.9055711,5.88739922 C15.9568452,5.94032859 15.9568452,6.02882753 15.9028563,6.08451399 C15.8787046,6.10915558 15.844524,6.12380441 15.8086902,6.12431482 C15.7748218,6.12419702 15.7383724,6.10900979 15.7115197,6.08206376 L12.439181,2.80972454 C12.4127361,2.7834926 12.3982697,2.74876917 12.3982697,2.7125457 C12.3982697,2.67632222 12.4127361,2.64159879 12.4384547,2.61609016 C12.4921104,2.56409274 12.5806093,2.56409274 12.6362958,2.61808159 Z" id="Path"></path>
                <path d="M1.77508762,13.0079723 C1.61001214,12.9657854 1.43488088,12.992467 1.28985763,13.081898 C1.14483437,13.171329 1.04236224,13.3158362 1.00594172,13.4822789 L-0.0881185575,17.8349195 C-0.13801221,18.0538078 -0.0774430114,18.2774479 0.0722201927,18.437198 C0.208492128,18.5619063 0.36678764,18.6234656 0.53119224,18.6243105 L0.645843024,18.6157332 L5.04615589,17.5132343 C5.20510174,17.4785757 5.34960893,17.3761035 5.43903994,17.2310803 C5.52847094,17.086057 5.55515251,16.9109258 5.51296561,16.7458503 L5.48311819,16.6567129 C5.36383401,16.3712596 5.05303655,16.2064085 4.74316018,16.2787696 L1.401,17.119 L2.24116503,13.7819149 C2.32176552,13.4369137 2.11433592,13.0949352 1.77508762,13.0079723 Z M1.65110884,13.4923577 C1.7267501,13.5117476 1.77302425,13.5880374 1.75526742,13.6640786 L0.712809194,17.8081287 L4.86099645,16.7646672 C4.93290049,16.7479137 5.0091903,16.7941878 5.0285802,16.8698291 C5.03714075,16.9033264 5.03169787,16.9390521 5.0134545,16.9686359 C4.99521113,16.9982198 4.96573256,17.0191235 4.93177926,17.026553 L0.564144878,18.124137 L0.511715595,18.1251774 C0.492650472,18.1241058 0.4530669,18.1087122 0.422614287,18.0810931 C0.400994964,18.0568076 0.386380869,18.0028479 0.398104607,17.9513484 L1.49262302,13.5966556 C1.50181445,13.5552053 1.52271813,13.5257268 1.55230198,13.5074834 C1.57202454,13.4953212 1.59447681,13.488848 1.61723119,13.4884338 L1.65110884,13.4923577 Z" id="Path"></path>
                <path d="M13.7139267,3.89782964 L2.80966202,14.8098114 C2.69007583,14.9284175 2.6223666,15.0909389 2.6223666,15.2604811 C2.6223666,15.4300234 2.69007583,15.5925447 2.81045082,15.7119367 C2.92399053,15.8298641 3.08577886,15.899202 3.25514234,15.9001883 C3.42773599,15.899774 3.59112468,15.8316954 3.71149534,15.7109065 L14.6154537,4.79923157 C14.7764223,4.638263 14.8393121,4.40355503 14.7803707,4.18358243 C14.7214292,3.96360983 14.549611,3.79179168 14.3296384,3.7328502 C14.1096658,3.67390872 13.8749579,3.73679853 13.7139267,3.89782964 Z M14.2002289,4.21581311 C14.2476555,4.22852102 14.2846998,4.26556539 14.2974077,4.31299195 C14.3101156,4.36041852 14.2965565,4.41102207 14.2618378,4.44574072 L3.3575731,15.3577225 C3.33047657,15.3849129 3.29402722,15.4001933 3.25598582,15.4001933 C3.22350506,15.3999956 3.19050124,15.3858511 3.16652857,15.3609715 C3.13683299,15.331428 3.1223666,15.2967046 3.1223666,15.2604811 C3.1223666,15.2242577 3.13683299,15.1895342 3.16255166,15.1640256 L14.0675426,4.25132049 C14.0906467,4.22821642 14.1208386,4.21448875 14.1524516,4.21166941 L14.2002289,4.21581311 Z" id="Path"></path>
            </g>
        </g>
    </g>
</svg>