<?xml version="1.0" encoding="UTF-8"?>
<svg width="40px" height="40px" viewBox="0 0 40 40" version="1.1" xmlns="http://www.w3.org/2000/svg" xmlns:xlink="http://www.w3.org/1999/xlink">
    <title>icon-1</title>
    <g id="icon-1" stroke="none" stroke-width="1" fill="none" fill-rule="evenodd">
        <g id="noun_Book_972361" transform="translate(0.000000, 1.000000)" fill-rule="nonzero">
            <g id="Group">
                <path d="M27.9093216,37.2144963 L4.65181204,37.2144963 C2.087113,37.2144963 0,35.1273833 0,32.5626843 L0,3.10430923 C0,1.3924424 1.3924424,0 3.10430923,0 L24.8081136,0 C26.5199804,0 27.9108722,1.3908918 27.9108722,3.10275863 L27.9170747,4.65181204 C29.6227391,4.65181204 31.0120803,6.04115324 31.0120803,7.74836825 L31.0120803,34.1117377 C31.0120803,35.8236045 29.6211885,37.2144963 27.9093216,37.2144963 Z M1.55060401,32.5626843 C1.55060401,34.2730005 2.94149581,35.6638923 4.65181204,35.6638923 L27.9093216,35.6638923 C28.765255,35.6638923 29.4614762,34.9676711 29.4614762,34.1117377 L29.4614762,7.74836825 C29.4614762,6.89553605 28.7683563,6.20241605 27.9170747,6.20241605 L27.9108722,6.20241605 L27.9108722,26.3556164 C27.9108722,28.0690338 26.5184298,29.4614762 24.8050124,29.4614762 L4.65181204,29.4614762 C2.94149581,29.4614762 1.55060401,30.852368 1.55060401,32.5626843 Z M3.10430923,1.55060401 C2.24837582,1.55060401 1.55060401,2.24837582 1.55060401,3.10430923 L1.55060401,29.0970843 C2.37397474,28.3605474 3.46094816,27.9108722 4.65181204,27.9108722 L24.8050124,27.9108722 C25.6624964,27.9108722 26.3602682,27.2131004 26.3602682,26.3556164 L26.3602682,3.10275863 C26.3602682,2.24682521 25.664047,1.55060401 24.8081136,1.55060401 L3.10430923,1.55060401 Z" id="Shape" fill="#8A8A8F"></path>
                <path d="M22.0340376,5.76627206 C22.5863223,5.76627206 23.0340376,6.14683002 23.0340376,6.61627206 C23.0340376,7.05218252 22.6479974,7.41145314 22.1506587,7.46055349 L22.0340376,7.46627206 L5.79498462,7.46627206 C5.24269987,7.46627206 4.79498462,7.08571409 4.79498462,6.61627206 C4.79498462,6.18036159 5.18102481,5.82109097 5.67836349,5.77199063 L5.79498462,5.76627206 L22.0340376,5.76627206 Z" id="Path" fill="#008EFF"></path>
                <path d="M22.0340376,10.8260353 C22.5863223,10.8260353 23.0340376,11.2065933 23.0340376,11.6760353 C23.0340376,12.1119458 22.6479974,12.4712164 22.1506587,12.5203167 L22.0340376,12.5260353 L5.79498462,12.5260353 C5.24269987,12.5260353 4.79498462,12.1454773 4.79498462,11.6760353 C4.79498462,11.2401248 5.18102481,10.8808542 5.67836349,10.8317539 L5.79498462,10.8260353 L22.0340376,10.8260353 Z" id="Path-Copy" fill="#008EFF"></path>
                <path d="M26.2114102,33.3379863 L4.65181204,33.3379863 L4.65181204,31.7873823 L26.2114102,31.7873823 C26.2935923,31.7873823 26.3602682,31.7207063 26.3602682,31.6385243 L26.3602682,26.0377426 L27.9108722,26.0377426 L27.9108722,31.6385243 C27.9108722,32.5766397 27.1495257,33.3379863 26.2114102,33.3379863 Z" id="Path" fill="#8A8A8F"></path>
            </g>
        </g>
    </g>
</svg>