<?xml version="1.0" encoding="UTF-8"?>
<svg width="40px" height="40px" viewBox="0 0 40 40" version="1.1" xmlns="http://www.w3.org/2000/svg" xmlns:xlink="http://www.w3.org/1999/xlink">
    <title>icon-2</title>
    <g id="icon-2" stroke="none" stroke-width="1" fill="none" fill-rule="evenodd">
        <g id="Group-2" transform="translate(0.376358, -0.015316)" fill="#8A8A8F">
            <path d="M20.6231572,0.774391548 C22.771796,0.774391548 24.5136118,2.51620738 24.5136118,4.66484609 L24.5136118,4.66484609 L24.5152936,17.9797655 C24.1319069,17.5376015 23.6769666,17.0979594 23.1504727,16.6608394 L23.1506213,4.56165441 C23.1506213,3.31312736 22.1178968,2.30099622 20.8439666,2.30099622 L20.8439666,2.30099622 L4.07464518,2.30099622 C2.80071499,2.30099622 1.76799053,3.31312736 1.76799053,4.56165441 L1.76799053,4.56165441 L1.76799053,36.1949227 C1.76799053,37.4434498 2.80071499,38.4555809 4.07464518,38.4555809 L4.07464518,38.4555809 L20.8439666,38.4555809 C22.1178968,38.4555809 23.1506213,37.4434498 23.1506213,36.1949227 L23.1506213,36.1949227 L23.15,32.5343915 L24.513,33.7593915 L24.5136118,36.0917311 C24.5136118,38.1732248 22.8789585,39.8729248 20.8233595,39.9771234 L20.6231572,39.9821856 L4.29545455,39.9821856 C2.14681583,39.9821856 0.405,38.2403698 0.405,36.0917311 L0.405,36.0917311 L0.405,4.66484609 C0.405,2.51620738 2.14681583,0.774391548 4.29545455,0.774391548 L4.29545455,0.774391548 Z" id="Combined-Shape" fill-rule="nonzero"></path>
            <rect id="Rectangle" x="6.98866999" y="1.22727273" width="10.9412718" height="3.15592304" rx="1"></rect>
        </g>
        <path d="M18.2960049,16.8271368 C22.3305875,16.8271368 25.601263,20.0978122 25.601263,24.1323949 C25.601263,25.703016 25.1056038,27.1578698 24.2621735,28.3490682 L30.0650204,34.1527323 C30.3311608,34.4188728 30.3311608,34.8503717 30.0650204,35.1165122 L29.8814694,35.3000631 C29.6153289,35.5662036 29.18383,35.5662036 28.9176895,35.3000631 L23.1814816,29.5637699 C21.8872275,30.7286988 20.1744087,31.437653 18.2960049,31.437653 C14.2614222,31.437653 10.9907467,28.1669775 10.9907467,24.1323949 C10.9907467,20.0978122 14.2614222,16.8271368 18.2960049,16.8271368 Z M18.2960049,18.2574445 C15.0513594,18.2574445 12.4210545,20.8877494 12.4210545,24.1323949 C12.4210545,27.3770404 15.0513594,30.0073452 18.2960049,30.0073452 C21.5406503,30.0073452 24.1709552,27.3770404 24.1709552,24.1323949 C24.1709552,20.8877494 21.5406503,18.2574445 18.2960049,18.2574445 Z" id="Combined-Shape" fill="#008EFF"></path>
    </g>
</svg>