<?xml version="1.0" encoding="UTF-8"?>
<svg width="16px" height="18px" viewBox="0 0 16 18" version="1.1" xmlns="http://www.w3.org/2000/svg" xmlns:xlink="http://www.w3.org/1999/xlink">
    <title>innovation</title>
    <g id="Page-1" stroke="none" stroke-width="1" fill="none" fill-rule="evenodd">
        <g id="innovation" transform="translate(0.500000, 0.000000)" fill-rule="nonzero">
            <path d="M13.0662505,11.3621889 C14.1952706,10.1563997 14.8913206,8.53492735 14.8913206,6.75073617 C14.8911128,3.02212927 11.8727249,0.000207858861 8.14806736,0 C4.42278621,0.000207858861 1.4046409,3.02212927 1.4046409,6.75097867 C1.4046409,6.96839904 1.41735493,7.18225116 1.43717081,7.3929854 C1.20346816,7.86662646 0.886344828,8.49487987 0.620285485,9.02027779 C0.479876824,9.29714579 0.354226143,9.54505213 0.262248597,9.72550826 C0.216346431,9.81585758 0.179208982,9.88930104 0.152706977,9.94147362 C0.139542582,9.9675599 0.129114996,9.98824186 0.121632077,10.0032077 L0.112243785,10.0215686 L0.103894787,10.0390634 L0.102647634,10.0411766 C0.0394238974,10.1826245 0.00519647153,10.3395233 0.00519647153,10.5018957 C0.00540433039,11.1249527 0.509323496,11.6307079 1.13231115,11.6311237 L1.63643817,11.6311237 L1.63186528,13.6446178 L1.63165742,13.6452414 C1.63207314,14.4445626 2.27931099,15.0928744 3.07866688,15.0930823 L5.19567474,15.0922508 L5.91635605,17.5134601 C5.93994804,17.5935897 5.99437241,17.6603471 6.06805838,17.6999788 C6.14191756,17.7394027 6.22748613,17.7479596 6.3072,17.723744 L13.9632654,15.3951705 C14.1287211,15.3449033 14.2220151,15.1702672 14.1719211,15.0047769 L13.0662505,11.3621889 Z M6.4266842,17.033133 L5.72914451,14.6897668 C5.68951275,14.5566332 5.56808853,14.4659028 5.42910024,14.466076 L3.07842438,14.4671153 C2.85099214,14.4668728 2.64798332,14.3756921 2.49839423,14.2265187 C2.34939407,14.0766871 2.25821331,13.8732626 2.2580401,13.6452067 L2.25783224,13.6458303 L2.26344443,11.3187118 C2.26344443,11.2352565 2.23108773,11.1561662 2.17202117,11.0968917 C2.11295461,11.0376173 2.03389896,11.0048796 1.95020112,11.0048796 L1.13234579,11.0048796 C0.856517081,11.0044638 0.631544507,10.7795605 0.631163432,10.5016186 C0.631163432,10.4271358 0.646614274,10.3593392 0.673705213,10.2977783 C0.679975621,10.2850643 0.696223256,10.2527076 0.720023095,10.2063897 C0.917592943,9.81682759 1.62597594,8.42677145 2.0372247,7.59135204 C2.06331099,7.53793232 2.07394643,7.47869254 2.06771067,7.41962598 C2.04394547,7.19908773 2.03078107,6.97584731 2.03078107,6.75045902 C2.03078107,5.05786431 2.71494852,3.52843881 3.82228196,2.41923464 C4.93044683,1.31044619 6.4577591,0.625655172 8.14806736,0.625447314 C9.83837562,0.625655172 11.3655147,1.31023833 12.473437,2.41923464 C13.5811862,3.52843881 14.2651458,5.05786431 14.2653536,6.75045902 C14.2651111,8.43262614 13.5874566,9.9511737 12.4915901,11.0589229 C12.410629,11.1405075 12.381217,11.2600609 12.4145783,11.3700183 L13.4820722,14.8868516 L6.4266842,17.033133 Z" id="Shape" fill="#8A8A8F"></path>
            <path d="M10.0342826,3.52334627 C9.53019022,3.03255686 8.8262069,2.71061812 8.03603144,2.71061812 C7.24564812,2.71061812 6.54183801,3.03238364 6.03778027,3.52334627 C5.53365325,4.0143089 5.21985565,4.67928404 5.21901904,5.3805652 C5.21819278,5.82978284 5.31751468,6.19242727 5.47084523,6.48142037 C5.70160321,6.91560289 6.03126736,7.17417931 6.25454242,7.39825116 C6.36786014,7.50987137 6.45505694,7.61085613 6.51076311,7.71059374 C6.56605357,7.81137065 6.59692061,7.90965325 6.59820241,8.05442694 L6.59820241,9.70049591 C6.59944956,10.1615962 6.97148228,10.5338367 7.43282502,10.5351185 L8.61315156,10.5351185 C9.0742518,10.5338714 9.44649238,10.1616308 9.44753168,9.70049591 L9.44964491,8.05484266 C9.45006063,7.95822294 9.46509575,7.88332446 9.49055846,7.81383031 C9.53479775,7.69386111 9.61825309,7.5822409 9.74345341,7.45496199 C9.92851708,7.26383577 10.2023018,7.05414082 10.438672,6.73324138 C10.6759083,6.41275766 10.855533,5.97143865 10.8528948,5.3805652 C10.8519994,4.67907618 10.538375,4.0140664 10.0342826,3.52334627 Z M8.82184186,9.70008019 C8.82156472,9.75762245 8.79904667,9.80813216 8.76003849,9.8475907 C8.72082245,9.88639102 8.67031275,9.9089437 8.61315156,9.90915156 L7.43282502,9.90915156 C7.37566383,9.90915156 7.32473841,9.88639102 7.28573023,9.8475907 C7.24692991,9.80837466 7.22416937,9.7576571 7.22416937,9.70049591 L7.22416937,8.97021844 L8.82263865,8.97021844 L8.82184186,9.70008019 Z M10.044918,6.18698829 C9.88531708,6.48703256 9.62843817,6.69568821 9.36241347,6.95107747 C9.23097739,7.07918781 9.09805164,7.22087827 8.99412221,7.40258156 C8.88977706,7.58324555 8.82260401,7.80548132 8.82347009,8.05442694 L8.82305437,8.34425148 L7.22392686,8.34425148 L7.22392686,8.05442694 C7.22416937,7.88914451 7.19596985,7.73539824 7.145668,7.59810746 C7.05760513,7.35647153 6.90843176,7.17327859 6.75922374,7.01845838 C6.53262294,6.78624539 6.30079102,6.60093921 6.13412285,6.36619727 C5.96845934,6.13128212 5.8476587,5.85521091 5.84495433,5.38053055 C5.8441251,4.87013312 6.07824346,4.35665245 6.47404138,3.97190569 C6.86966608,3.58733216 7.41758204,3.33655044 8.03582358,3.33655044 C8.65385726,3.33655044 9.20198107,3.58733216 9.59760577,3.97190569 C9.99323047,4.35665245 10.2273142,4.87013312 10.2265194,5.38053055 C10.226067,5.74130425 10.1517921,5.98664699 10.044918,6.18698829 Z" id="Shape" fill="#008EFF"></path>
        </g>
    </g>
</svg>