<svg width="184" height="75" viewBox="0 0 184 75" fill="none" xmlns="http://www.w3.org/2000/svg">
<path d="M11.6444 20.1905L15.8912 8.11309H15.9825L20.0923 20.1905H11.6444ZM12.3294 0L0 32.9133H7.21496L9.77216 25.5839H21.9645L24.4304 32.9133H31.8737L19.6813 0H12.3294Z" fill="black"/>
<path d="M34.0003 9.08113V32.9133H40.4846V20.421C40.4846 17.9932 40.8804 16.2569 41.6719 15.212C42.4634 14.1364 43.742 13.5986 45.5077 13.5986C47.0603 13.5986 48.141 14.0904 48.7499 15.0738C49.3587 16.0264 49.6632 17.4862 49.6632 19.453V32.9133H56.1475V18.2545C56.1475 16.7793 56.0105 15.4425 55.7365 14.244C55.493 13.0148 55.0515 11.9852 54.4122 11.1555C53.7729 10.295 52.8901 9.6343 51.7637 9.17333C50.6678 8.68162 49.2522 8.43577 47.5169 8.43577C46.147 8.43577 44.8075 8.75845 43.4985 9.40381C42.1894 10.0184 41.1239 11.0172 40.302 12.4001H40.165V9.08113H34.0003Z" fill="black"/>
<path d="M69.2885 9.08113V1.93608H62.8041V9.08113H58.877V13.4604H62.8041V27.52C62.8041 28.7185 63.002 29.6865 63.3978 30.4241C63.7935 31.1616 64.3263 31.7302 64.996 32.1297C65.6962 32.5292 66.4877 32.7904 67.3706 32.9133C68.2838 33.067 69.2428 33.1438 70.2474 33.1438C70.8867 33.1438 71.5412 33.1285 72.211 33.0977C72.8807 33.067 73.4896 33.0055 74.0376 32.9133V27.8427C73.7331 27.9041 73.4135 27.9502 73.0786 27.9809C72.7437 28.0117 72.3936 28.027 72.0283 28.027C70.9324 28.027 70.2017 27.8427 69.8364 27.4739C69.4711 27.1051 69.2885 26.3676 69.2885 25.2612V13.4604H74.0376V9.08113H69.2885Z" fill="black"/>
<path d="M83.7897 5.39336V0H77.3054V5.39336H83.7897ZM77.3054 9.08113V32.9133H83.7897V9.08113H77.3054Z" fill="black"/>
<path d="M89.5805 0V32.9133H96.2932V10.8789H96.3845L109.947 32.9133H117.116V0H110.403V22.0805H110.312L96.7042 0H89.5805Z" fill="black"/>
<path d="M129.409 5.39336V0H122.925V5.39336H129.409ZM122.925 9.08113V32.9133H129.409V9.08113H122.925Z" fill="black"/>
<path d="M134.515 9.08113V32.9133H141V20.421C141 17.9932 141.395 16.2569 142.187 15.212C142.978 14.1364 144.257 13.5986 146.023 13.5986C147.575 13.5986 148.656 14.0904 149.265 15.0738C149.874 16.0264 150.178 17.4862 150.178 19.453V32.9133H156.662V18.2545C156.662 16.7793 156.525 15.4425 156.252 14.244C156.008 13.0148 155.567 11.9852 154.927 11.1555C154.288 10.295 153.405 9.6343 152.279 9.17333C151.183 8.68162 149.767 8.43577 148.032 8.43577C146.662 8.43577 145.323 8.75845 144.013 9.40381C142.704 10.0184 141.639 11.0172 140.817 12.4001H140.68V9.08113H134.515Z" fill="black"/>
<path d="M177.475 18.4388H166.927C166.957 17.9779 167.048 17.4554 167.201 16.8715C167.383 16.2876 167.672 15.7345 168.068 15.212C168.494 14.6896 169.042 14.2594 169.712 13.9213C170.412 13.5526 171.28 13.3682 172.315 13.3682C173.898 13.3682 175.07 13.7984 175.831 14.6589C176.623 15.5194 177.171 16.7794 177.475 18.4388ZM166.927 22.5876H183.959C184.081 20.7437 183.929 18.9766 183.503 17.2864C183.077 15.5962 182.376 14.0904 181.402 12.7689C180.458 11.4475 179.241 10.4026 177.749 9.6343C176.257 8.83528 174.507 8.43577 172.498 8.43577C170.702 8.43577 169.058 8.75845 167.566 9.40381C166.105 10.0492 164.841 10.9404 163.776 12.0774C162.71 13.1838 161.888 14.5052 161.31 16.0418C160.731 17.5784 160.442 19.2379 160.442 21.0203C160.442 22.8642 160.716 24.5544 161.264 26.091C161.843 27.6275 162.649 28.949 163.684 30.0553C164.72 31.1616 165.983 32.0221 167.475 32.6368C168.966 33.2207 170.641 33.5126 172.498 33.5126C175.177 33.5126 177.46 32.898 179.347 31.6687C181.235 30.4395 182.635 28.3958 183.548 25.5378H177.84C177.627 26.2754 177.049 26.9822 176.105 27.6583C175.161 28.3036 174.035 28.6263 172.726 28.6263C170.899 28.6263 169.499 28.15 168.525 27.1973C167.551 26.2446 167.018 24.7081 166.927 22.5876Z" fill="black"/>
<path d="M10.9594 50.5685V43.4235H4.4751V50.5685H0.547972V54.9478H4.4751V69.0074C4.4751 70.2059 4.67298 71.1739 5.06874 71.9115C5.4645 72.649 5.99725 73.2176 6.66699 73.6171C7.36718 74.0166 8.15869 74.2778 9.04153 74.4007C9.95482 74.5544 10.9138 74.6312 11.9184 74.6312C12.5577 74.6312 13.2122 74.6159 13.882 74.5851C14.5517 74.5544 15.1606 74.4929 15.7085 74.4007V69.3301C15.4041 69.3915 15.0844 69.4376 14.7496 69.4683C14.4147 69.4991 14.0646 69.5144 13.6993 69.5144C12.6034 69.5144 11.8727 69.3301 11.5074 68.9613C11.1421 68.5925 10.9594 67.8549 10.9594 66.7486V54.9478H15.7085V50.5685H10.9594Z" fill="black"/>
<path d="M24.5474 62.5077C24.5474 61.555 24.6388 60.6177 24.8214 59.6958C25.0041 58.7738 25.3085 57.9594 25.7347 57.2526C26.1913 56.5458 26.785 55.9773 27.5156 55.547C28.2462 55.086 29.1595 54.8556 30.2555 54.8556C31.3514 54.8556 32.2647 55.086 32.9953 55.547C33.7564 55.9773 34.35 56.5458 34.7762 57.2526C35.2329 57.9594 35.5525 58.7738 35.7352 59.6958C35.9178 60.6177 36.0092 61.555 36.0092 62.5077C36.0092 63.4604 35.9178 64.3977 35.7352 65.3196C35.5525 66.2108 35.2329 67.0252 34.7762 67.7628C34.35 68.4696 33.7564 69.0381 32.9953 69.4683C32.2647 69.8986 31.3514 70.1137 30.2555 70.1137C29.1595 70.1137 28.2462 69.8986 27.5156 69.4683C26.785 69.0381 26.1913 68.4696 25.7347 67.7628C25.3085 67.0252 25.0041 66.2108 24.8214 65.3196C24.6388 64.3977 24.5474 63.4604 24.5474 62.5077ZM18.0631 62.5077C18.0631 64.413 18.3523 66.134 18.9307 67.6706C19.5091 69.2071 20.3311 70.5286 21.3966 71.6349C22.4621 72.7105 23.7407 73.5403 25.2324 74.1242C26.7241 74.7081 28.3984 75 30.2555 75C32.1125 75 33.7868 74.7081 35.2785 74.1242C36.8007 73.5403 38.0945 72.7105 39.16 71.6349C40.2255 70.5286 41.0475 69.2071 41.6259 67.6706C42.2043 66.134 42.4935 64.413 42.4935 62.5077C42.4935 60.6023 42.2043 58.8814 41.6259 57.3448C41.0475 55.7775 40.2255 54.4561 39.16 53.3805C38.0945 52.2741 36.8007 51.429 35.2785 50.8451C33.7868 50.2305 32.1125 49.9232 30.2555 49.9232C28.3984 49.9232 26.7241 50.2305 25.2324 50.8451C23.7407 51.429 22.4621 52.2741 21.3966 53.3805C20.3311 54.4561 19.5091 55.7775 18.9307 57.3448C18.3523 58.8814 18.0631 60.6023 18.0631 62.5077Z" fill="black"/>
<path d="M47.3946 41.4874V74.4007H54.5639V60.8021H68.2175V55.1782H54.5639V47.5722H70.318V41.4874H47.3946Z" fill="black"/>
<path d="M80.4452 46.8808V41.4874H73.9608V46.8808H80.4452ZM73.9608 50.5685V74.4007H80.4452V50.5685H73.9608Z" fill="black"/>
<path d="M98.611 74.4007L106.602 50.5685H100.164L95.1862 66.8408H95.0949L90.1175 50.5685H83.3135L91.3961 74.4007H98.611Z" fill="black"/>
<path d="M125.166 59.9262H114.618C114.648 59.4653 114.74 58.9428 114.892 58.3589C115.074 57.775 115.364 57.2219 115.759 56.6994C116.186 56.177 116.734 55.7468 117.403 55.4087C118.103 55.04 118.971 54.8556 120.006 54.8556C121.589 54.8556 122.761 55.2858 123.522 56.1463C124.314 57.0068 124.862 58.2667 125.166 59.9262ZM114.618 64.075H131.651C131.772 62.2311 131.62 60.464 131.194 58.7738C130.768 57.0836 130.068 55.5777 129.093 54.2563C128.15 52.9348 126.932 51.89 125.44 51.1217C123.949 50.3227 122.198 49.9232 120.189 49.9232C118.393 49.9232 116.749 50.2459 115.257 50.8912C113.796 51.5366 112.532 52.4278 111.467 53.5648C110.401 54.6712 109.579 55.9926 109.001 57.5292C108.423 59.0658 108.133 60.7253 108.133 62.5077C108.133 64.3516 108.407 66.0418 108.955 67.5784C109.534 69.1149 110.341 70.4364 111.376 71.5427C112.411 72.649 113.674 73.5095 115.166 74.1242C116.657 74.7081 118.332 75 120.189 75C122.868 75 125.151 74.3854 127.038 73.1561C128.926 71.9269 130.326 69.8832 131.24 67.0252H125.532C125.318 67.7628 124.74 68.4696 123.796 69.1457C122.853 69.791 121.726 70.1137 120.417 70.1137C118.591 70.1137 117.19 69.6374 116.216 68.6847C115.242 67.732 114.709 66.1955 114.618 64.075Z" fill="black"/>
<path d="M135.404 42.981V41.5059H129.266V42.981H131.403V49.1027H133.267V42.981H135.404ZM145.085 49.1027V41.5059H142.619L140.737 46.5028L138.856 41.5059H136.372V49.1027H138.125V43.7185H138.162L140.098 49.1027H141.358L143.294 43.7185H143.331V49.1027H145.085Z" fill="black"/>
</svg>
