<?xml version="1.0" encoding="UTF-8"?>
<svg width="519px" height="121px" viewBox="0 0 519 121" version="1.1" xmlns="http://www.w3.org/2000/svg" xmlns:xlink="http://www.w3.org/1999/xlink">
    <title>Group 3 Copy</title>
    <g id="Page-1" stroke="none" stroke-width="1" fill="none" fill-rule="evenodd">
        <g id="Artboard" transform="translate(-494.000000, -378.000000)">
            <g id="Group-3-Copy" transform="translate(494.500000, 378.000000)">
                <path d="M246.163159,88.5 C255.86746,88.5 263.4266,84.9247312 268.431976,77.9784946 L256.173912,70.9301075 C254.130901,73.1774194 250.555632,74.811828 246.36746,74.811828 C240.749181,74.811828 236.050256,72.9731183 234.109396,67.6612903 L270.372837,67.6612903 C270.781439,65.7204301 270.98574,63.6774194 270.98574,61.5322581 C270.98574,46.1075269 259.953482,34.5645161 245.039503,34.5645161 C228.899718,34.5645161 217.86746,46.311828 217.86746,61.5322581 C217.86746,76.7526882 228.695417,88.5 246.163159,88.5 Z M255.76531,56.2204301 L233.802944,56.2204301 C235.233052,51.0107527 239.114772,48.1505376 244.937353,48.1505376 C249.534127,48.1505376 254.130901,50.2956989 255.76531,56.2204301 Z M301.017998,88.5 C307.862084,88.5 312.86746,86.1505376 316.238428,82.2688172 L316.238428,87.0698925 L331.561009,87.0698925 L331.561009,15.5645161 L316.238428,15.5645161 L316.238428,40.7956989 C312.86746,36.9139785 307.862084,34.5645161 301.017998,34.5645161 C287.636278,34.5645161 276.604019,46.311828 276.604019,61.5322581 C276.604019,76.7526882 287.636278,88.5 301.017998,88.5 Z M304.082514,73.9946237 C297.034127,73.9946237 291.9266,69.1935484 291.9266,61.5322581 C291.9266,53.8709677 297.034127,49.0698925 304.082514,49.0698925 C311.130901,49.0698925 316.238428,53.8709677 316.238428,61.5322581 C316.238428,69.1935484 311.130901,73.9946237 304.082514,73.9946237 Z M368.707808,87.0698925 L368.707808,73.1774194 C361.965873,73.5860215 358.186303,73.1774194 358.186303,68.7849462 L358.186303,50.7043011 L368.707808,50.7043011 L368.707808,35.9946237 L358.186303,35.9946237 L358.186303,21.6935484 L342.863722,26.2903226 L342.863722,35.9946237 L342.863722,50.7043011 L342.863722,68.7849462 C342.863722,83.0860215 348.686303,89.1129032 368.707808,87.0698925 Z M398.229314,88.5 C405.0734,88.5 410.078776,86.1505376 413.449744,82.2688172 L413.449744,87.0698925 L428.772325,87.0698925 L428.772325,35.9946237 L413.449744,35.9946237 L413.449744,40.7956989 C410.078776,36.9139785 405.0734,34.5645161 398.229314,34.5645161 C384.847593,34.5645161 373.815335,46.311828 373.815335,61.5322581 C373.815335,76.7526882 384.847593,88.5 398.229314,88.5 Z M401.29383,73.9946237 C394.245443,73.9946237 389.137916,69.1935484 389.137916,61.5322581 C389.137916,53.8709677 394.245443,49.0698925 401.29383,49.0698925 C408.342217,49.0698925 413.449744,53.8709677 413.449744,61.5322581 C413.449744,69.1935484 408.342217,73.9946237 401.29383,73.9946237 Z M455.331464,87.0698925 L455.331464,12.5 L440.008884,12.5 L440.008884,87.0698925 L455.331464,87.0698925 Z M492.309959,88.5 C502.01426,88.5 509.5734,84.9247312 514.578776,77.9784946 L502.320712,70.9301075 C500.277701,73.1774194 496.702432,74.811828 492.51426,74.811828 C486.895981,74.811828 482.197056,72.9731183 480.256196,67.6612903 L516.519636,67.6612903 C516.928239,65.7204301 517.13254,63.6774194 517.13254,61.5322581 C517.13254,46.1075269 506.100282,34.5645161 491.186303,34.5645161 C475.046518,34.5645161 464.01426,46.311828 464.01426,61.5322581 C464.01426,76.7526882 474.842217,88.5 492.309959,88.5 Z M503.533547,56.2204301 L481.571181,56.2204301 C483.001289,51.0107527 486.883009,48.1505376 492.70559,48.1505376 C497.302364,48.1505376 501.899138,50.2956989 503.533547,56.2204301 Z" id="edtale-copy-2" fill="#080D24" fill-rule="nonzero"></path>
                <g id="Group-2">
                    <g id="Group" transform="translate(0.000000, 14.000000)"></g>
                    <polygon id="Rectangle-Copy" fill="#102F76" fill-rule="nonzero" points="0 14.406383 91.3891108 57.73026 182.778222 14.406383 182.778222 77.4229314 91.3891108 120.746809 0 77.4229314"></polygon>
                    <polygon id="Rectangle" fill="#018FFF" fill-rule="nonzero" points="19.9771236 0.614110041 91.3891108 34.4676417 162.801098 0.614110041 162.801098 66.7605784 91.3891108 100.61411 19.9771236 66.7605784"></polygon>
                </g>
            </g>
        </g>
    </g>
</svg>