<?xml version="1.0" encoding="UTF-8"?>
<svg width="1071px" height="98px" viewBox="0 0 1071 98" version="1.1" xmlns="http://www.w3.org/2000/svg" xmlns:xlink="http://www.w3.org/1999/xlink">
    <title>Group</title>
    <defs>
        <polygon id="path-1" points="0 0.366825062 70.5757577 0.366825062 70.5757577 70.9425828 0 70.9425828"></polygon>
    </defs>
    <g id="Page-1" stroke="none" stroke-width="1" fill="none" fill-rule="evenodd">
        <g id="Artboard" transform="translate(0.000000, -96.000000)">
            <g id="Group" transform="translate(0.000000, 96.718802)">
                <g id="usertesting-white-logo" transform="translate(491.000000, 10.500000)" fill="#69696E" fill-rule="nonzero">
                    <path d="M132.261714,0.300107617 C139.592914,0.300107617 145.509779,6.25938744 145.509779,13.5477153 L145.509779,13.5477153 L145.509779,57.1919373 C145.552194,64.4802652 139.592914,70.3966725 132.347459,70.439545 L132.347459,70.439545 L118.113784,70.439545 L122.786888,86.0022686 L99.4642388,70.439545 L13.3762252,70.439545 C6.04502486,70.439545 0.12861755,64.4802652 0.12861755,57.1919373 L0.12861755,57.1919373 L0.12861755,13.5477153 C0.12861755,6.21651493 6.08789738,0.300107617 13.3762252,0.300107617 L13.3762252,0.300107617 Z M91.1898431,23.8371193 C88.4031295,23.8371193 85.873651,24.4802071 83.6014076,25.8521276 C81.3291643,27.2240481 79.5713911,29.0246938 78.2852156,31.3398097 C76.9990401,33.6120531 76.3559523,36.1415316 76.3559523,38.8853727 C76.3559523,41.5863412 77.0419126,44.0729472 78.4138331,46.3880631 C79.7857536,48.703179 81.6292719,50.5038247 83.9443878,51.8757453 C86.2595037,53.2047933 88.7461096,53.8907535 91.3613332,53.8907535 C93.2905964,53.8907535 95.1341146,53.5477734 96.8061428,52.9046857 C98.5210435,52.2187254 100.193072,51.1469125 101.907972,49.6463744 C102.122335,49.4320118 102.250952,49.2176492 102.250952,48.9604141 C102.250952,48.7460515 102.122335,48.5316889 101.950845,48.2744538 L101.950845,48.2744538 L99.5928564,45.4019952 C99.4642388,45.1876326 99.2927488,45.1018876 99.0355137,45.1018876 C98.8640236,45.1018876 98.649661,45.1447601 98.4352984,45.3162502 L98.4352984,45.3162502 L97.7493382,45.8307204 C97.234868,46.2594456 96.6775252,46.6452982 96.07731,46.9882783 C95.5628398,47.288386 94.9197521,47.5456211 94.1480468,47.7599836 C93.3334689,47.9743462 92.4331461,48.1029638 91.3613332,48.1029638 C89.9894126,48.1029638 88.7032371,47.8028562 87.5028067,47.2455134 C86.3023762,46.6881707 85.2734358,45.8735929 84.458858,44.8446525 C83.6442802,43.8157121 83.0440649,42.6152816 82.7439573,41.2433611 L82.7439573,41.2433611 L103.322765,41.2433611 C103.922981,41.2862336 104.394578,41.2433611 104.694686,41.1576161 C104.951921,41.1147436 105.209156,40.900381 105.380646,40.5574008 C105.552136,40.2144207 105.637881,39.657078 105.637881,38.9282452 C105.637881,35.6270614 104.909048,32.8403478 103.451383,30.5681044 C101.993717,28.295861 100.150199,26.6238329 97.9208282,25.5091475 C95.6914574,24.394462 93.4620865,23.8371193 91.1898431,23.8371193 Z M23.3226491,19.2926325 L18.3065646,19.2926325 C18.1779471,19.2926325 18.0493295,19.335505 17.9635845,19.3783776 C17.8778395,19.4212501 17.7920944,19.5069951 17.7063494,19.5927401 C17.5348593,19.7642302 17.4491143,19.9785928 17.4491143,20.2358279 L17.4491143,20.2358279 L17.4491143,39.742823 C17.4491143,42.8725167 18.0922021,45.4877403 19.3783776,47.5884936 C20.6645531,49.6892469 22.3794537,51.27553 24.5659521,52.3044704 C26.7524504,53.3334108 29.1533114,53.847881 31.8114074,53.847881 C34.4695035,53.847881 36.9132369,53.3762833 39.0568627,52.3473429 C41.2004886,51.3612751 42.9153893,49.7749919 44.2015648,47.6742386 C45.4877403,45.5306128 46.130828,42.9153893 46.130828,39.7856955 L46.130828,39.7856955 L46.130828,20.2358279 C46.1737005,20.1072103 46.130828,19.9785928 46.0879555,19.8499752 C46.045083,19.7642302 45.9593379,19.6356127 45.8735929,19.5498676 C45.7021028,19.3783776 45.4448677,19.2926325 45.1447601,19.2926325 L45.1447601,19.2926325 L40.3859108,19.2926325 C40.0858031,19.2926325 39.8714406,19.3783776 39.6999505,19.5498676 C39.5284604,19.7213577 39.4427154,19.9357203 39.4427154,20.2358279 L39.4427154,20.2358279 L39.4427154,39.828568 C39.4427154,41.4148512 39.0997353,42.7867717 38.413775,44.0300747 C37.7706872,45.2305052 36.8274919,46.1737005 35.6699339,46.8596608 C34.512376,47.5027485 33.2262005,47.8457287 31.8114074,47.8457287 C30.3966144,47.8457287 29.1533114,47.5456211 27.9957534,46.9025333 C26.8381955,46.3023181 25.9378726,45.3591227 25.2519124,44.1586922 C24.5659521,42.9582618 24.222972,41.5005962 24.222972,39.828568 L24.222972,39.828568 L24.222972,20.2358279 C24.222972,19.9357203 24.1372269,19.7213577 24.0086094,19.5498676 C23.8799918,19.3783776 23.6227567,19.2926325 23.3226491,19.2926325 L23.3226491,19.2926325 Z M61.6506791,23.6656292 C59.6356708,23.6656292 57.8778976,24.0514819 56.334487,24.8660597 C54.7910764,25.6806375 53.6335184,26.7095779 52.7760681,27.9957534 C51.9614903,29.2819289 51.5327651,30.5681044 51.5327651,31.8971525 C51.5327651,33.5263081 51.8328727,34.9411011 52.4759605,36.0986591 C53.1190482,37.256217 54.0622436,38.2422849 55.3484191,39.0568627 C56.6345946,39.8714406 58.3066228,40.6002734 60.4073761,41.2433611 C61.3076989,41.5005962 61.8650417,41.6720863 61.9936592,41.7149588 C63.0225996,42.0150664 63.7943049,42.2723015 64.2659026,42.4866641 C64.7803728,42.7010267 65.1662254,42.9582618 65.4234605,43.3441144 C65.7235682,43.7299671 65.8521857,44.2444373 65.8521857,44.9303975 C65.8521857,45.5734853 65.5949506,46.1737005 65.1233529,46.6881707 C64.6088827,47.2026409 64.0086675,47.5884936 63.2369622,47.8886012 C62.5081294,48.1458363 61.6935516,48.3173264 60.9218463,48.3173264 C59.6356708,48.3173264 58.5638579,48.0172187 57.7064075,47.4170035 C56.8489572,46.8167883 56.0343794,46.0022105 55.3055466,44.9732701 C55.0483115,44.6302899 54.7910764,44.4587999 54.4909688,44.4587999 C54.3194787,44.4587999 54.1479886,44.5445449 53.9764986,44.6302899 L51.0182949,46.7310432 C50.7610598,46.9882783 50.6324423,47.2455134 50.6324423,47.5456211 C50.6324423,47.6742386 50.6753148,47.8457287 50.7181873,47.9743462 C50.8039323,48.1458363 50.8896774,48.3173264 50.9754224,48.4888164 C52.0472353,50.1608446 53.5049009,51.4898926 55.3055466,52.433088 C57.1061923,53.3762833 59.1640731,53.847881 61.4363165,53.847881 C63.2369622,53.847881 64.9947354,53.5049009 66.6667635,52.8618131 C68.3387917,52.1758529 69.6678397,51.189785 70.7396526,49.8178644 C71.768593,48.4888164 72.2830632,46.8596608 72.2830632,44.9303975 C72.2830632,42.9153893 71.6399755,41.071871 70.3538,39.4855879 C69.0676245,37.8564323 67.1383612,36.6988743 64.5231377,35.8842965 C64.1801576,35.755679 63.8800499,35.6699339 63.5799423,35.5841889 C63.2798347,35.4984439 63.0225996,35.4126988 62.808237,35.3698263 C61.5220615,35.0268462 60.5788661,34.7267386 59.9786509,34.4695035 C59.3784357,34.2122684 58.8639655,33.9121607 58.5209853,33.5691806 C58.1351327,33.183328 57.9636426,32.7117303 57.9636426,32.0686425 C57.9636426,31.2540647 58.3066228,30.610977 58.992583,30.0965067 C59.6785433,29.5820365 60.6217387,29.3248014 61.8221691,29.3248014 C62.9797271,29.3248014 63.9229225,29.539164 64.6946278,29.9250167 C65.4663331,30.3108693 66.1951658,30.9539571 66.9239986,31.7685349 C67.1812337,32.0686425 67.3955963,32.2401326 67.6528314,32.2401326 C67.8243215,32.2401326 68.0386841,32.1543876 68.2530466,31.940025 L70.9540152,29.7106541 C71.2541228,29.453419 71.4256129,29.2390564 71.4256129,29.0246938 C71.4256129,28.8532038 71.2969953,28.5959687 71.0826328,28.2529885 C70.0536923,26.966813 68.7675168,25.8521276 67.2241062,24.9946773 C65.6806956,24.0943544 63.8371774,23.6656292 61.6506791,23.6656292 Z M123.987318,23.7513743 C122.529653,23.7513743 121.200605,24.0943544 120.000174,24.7803147 C118.799744,25.4662749 117.813676,26.4094703 117.041971,27.6527733 L116.570373,25.1232948 C116.484628,24.6516971 116.35601,24.3515895 116.098775,24.222972 C115.884413,24.0943544 115.584305,24.0514819 115.15558,24.0514819 L111.854396,24.0514819 C111.254181,24.0514819 110.954073,24.394462 110.954073,25.0375498 L110.954073,52.3902155 C110.954073,53.0333032 111.254181,53.3334108 111.854396,53.3334108 L116.570373,53.3334108 C117.213461,53.3334108 117.513568,53.0333032 117.513568,52.3902155 L117.513568,36.3558942 C117.513568,34.8982286 117.770803,33.6977982 118.328146,32.7117303 C118.885489,31.7256624 119.571449,30.9968296 120.471772,30.5252319 C121.329222,30.0536342 122.272418,29.7963991 123.258486,29.7963991 C124.244554,29.7963991 125.144876,29.9678892 126.002327,30.3108693 C126.859777,30.696722 127.674355,31.1254472 128.44606,31.6399174 C128.703295,31.8114074 128.96053,31.940025 129.174893,31.940025 C129.432128,31.940025 129.603618,31.8114074 129.817981,31.5541723 L131.961607,28.5102236 C132.133097,28.295861 132.218842,28.0814985 132.218842,27.8671359 C132.218842,27.5670283 132.047352,27.2669206 131.704371,26.9239405 C130.846921,26.1951077 129.732236,25.4662749 128.360315,24.7803147 C127.031267,24.0943544 125.573602,23.7513743 123.987318,23.7513743 Z M90.8625174,29.4072932 L91.1898431,29.4105465 C93.0333613,29.4105465 94.7053895,29.9678892 96.1201825,31.1254472 C97.5349756,32.2830051 98.6067885,33.8264157 99.2927488,35.7128064 L99.2927488,35.7128064 L82.9583199,35.7128064 C83.3870451,34.512376 83.9872603,33.4405631 84.8018381,32.4973677 C85.6164159,31.5541723 86.5596113,30.782467 87.6742967,30.2251243 C88.7889822,29.6677816 89.9894126,29.367674 91.1898431,29.4105465 Z" id="Combined-Shape"></path>
                    <path d="M153.955208,19.2926325 L178.478287,19.2926325 C179.078502,19.2926325 179.37861,19.5927401 179.37861,20.1929554 L179.37861,24.5230796 C179.37861,25.1232948 179.078502,25.4662749 178.478287,25.4662749 L169.432186,25.4662749 L169.432186,52.433088 C169.432186,53.0333032 169.132079,53.3334108 168.531863,53.3334108 L163.601524,53.3334108 C163.001309,53.3334108 162.701201,53.0333032 162.701201,52.433088 L162.701201,25.4234024 L153.912335,25.4234024 C153.31212,25.4234024 153.012012,25.1232948 153.012012,24.4802071 L153.012012,20.1929554 C153.054885,19.5927401 153.354992,19.2926325 153.955208,19.2926325 Z" id="Path"></path>
                    <path d="M201.286466,45.1018876 C201.543701,45.1018876 201.715191,45.1876326 201.843809,45.4019952 L204.201797,48.2744538 C204.373287,48.5316889 204.501905,48.7460515 204.501905,48.9604141 C204.501905,49.2176492 204.373287,49.4320118 204.158925,49.6463744 C202.444024,51.1469125 200.771996,52.2187254 199.057095,52.9046857 C197.342195,53.5906459 195.541549,53.8907535 193.612286,53.8907535 C190.997062,53.8907535 188.510456,53.2047933 186.19534,51.8757453 C183.880224,50.5038247 182.036706,48.703179 180.664786,46.3880631 C179.292865,44.0729472 178.606905,41.5863412 178.606905,38.8853727 C178.606905,36.1415316 179.249992,33.6120531 180.536168,31.3398097 C181.822343,29.0246938 183.580117,27.2240481 185.85236,25.8521276 C188.124603,24.4802071 190.654082,23.8371193 193.440796,23.8371193 C195.713039,23.8371193 197.985282,24.394462 200.171781,25.5091475 C202.401152,26.6238329 204.24467,28.295861 205.702335,30.5681044 C207.160001,32.8403478 207.888834,35.6270614 207.888834,38.9282452 C207.888834,39.657078 207.803089,40.2144207 207.631599,40.5574008 C207.460108,40.900381 207.202873,41.1147436 206.945638,41.1576161 C206.645531,41.2433611 206.173933,41.2862336 205.573718,41.2862336 L185.037782,41.2862336 C185.33789,42.6581542 185.938105,43.8585846 186.752683,44.887525 C187.567261,45.9164654 188.596201,46.7310432 189.796632,47.288386 C190.997062,47.8457287 192.283238,48.1458363 193.698031,48.1458363 C194.769844,48.1458363 195.670166,48.0172187 196.484744,47.8028562 C197.25645,47.5884936 197.899537,47.3312585 198.414007,47.0311509 C199.014223,46.6881707 199.571565,46.3023181 200.086036,45.8735929 L200.771996,45.3591227 C200.857741,45.1447601 201.072103,45.1018876 201.286466,45.1018876 Z M189.882377,30.2251243 C188.767691,30.782467 187.824496,31.5541723 187.009918,32.4973677 C186.19534,33.4405631 185.595125,34.512376 185.1664,35.7128064 L201.543701,35.7128064 C200.857741,33.8264157 199.785928,32.2830051 198.371135,31.1254472 C196.956342,29.9678892 195.284314,29.4105465 193.397923,29.4105465 C192.197493,29.367674 190.95419,29.6677816 189.882377,30.2251243 L189.882377,30.2251243 Z" id="Shape"></path>
                    <path d="M209.860969,47.9743462 C209.818097,47.8457287 209.775224,47.6742386 209.775224,47.5456211 C209.775224,47.2455134 209.903842,46.9882783 210.161077,46.7310432 L213.076408,44.5016724 C213.205026,44.3730548 213.376516,44.2873098 213.590878,44.3301823 C213.890986,44.3301823 214.191094,44.5016724 214.405456,44.8446525 C215.134289,45.8735929 215.948867,46.6881707 216.806317,47.288386 C217.663767,47.8886012 218.73558,48.1887088 220.021756,48.1887088 C220.836334,48.1887088 221.608039,48.0600913 222.336872,47.7599836 C223.108577,47.459876 223.751665,47.0740234 224.223263,46.5595532 C224.69486,46.045083 224.952095,45.4448677 224.952095,44.80178 C224.952095,44.1158197 224.823478,43.6013495 224.52337,43.2154969 C224.223263,42.8296442 223.83741,42.5724091 223.365812,42.3580465 C222.894215,42.143684 222.122509,41.8864489 221.093569,41.5863412 C220.922079,41.5434687 220.407609,41.4148512 219.507286,41.1147436 C217.406532,40.4716558 215.734504,39.742823 214.448329,38.9282452 C213.162153,38.1136674 212.218958,37.1275995 211.57587,35.9700415 C210.932782,34.8124836 210.632675,33.3976905 210.632675,31.7685349 C210.632675,30.4394869 211.0614,29.1533114 211.875978,27.8671359 C212.690556,26.5809604 213.890986,25.55202 215.434397,24.7374422 C216.977807,23.9228643 218.73558,23.5370117 220.750589,23.5370117 C222.894215,23.5370117 224.780605,23.9657369 226.324016,24.8660597 C227.867426,25.7663826 229.153602,26.8381955 230.182542,28.124371 C230.439777,28.4244786 230.525522,28.6817137 230.525522,28.8960763 C230.525522,29.1104389 230.354032,29.367674 230.053925,29.5820365 L227.352956,31.8114074 C227.095721,31.9828975 226.924231,32.111515 226.752741,32.111515 C226.538378,32.111515 226.281143,31.940025 226.023908,31.6399174 C225.337948,30.8253395 224.566243,30.2251243 223.794537,29.7963991 C223.022832,29.4105465 222.036764,29.1961839 220.922079,29.1961839 C219.721648,29.1961839 218.778453,29.453419 218.092493,29.9678892 C217.406532,30.4823594 217.063552,31.1254472 217.063552,31.940025 C217.063552,32.5831127 217.235042,33.0547104 217.620895,33.4405631 C218.006748,33.8264157 218.478345,34.1265233 219.078561,34.3408859 C219.678776,34.598121 220.664844,34.8553561 221.908147,35.2412088 C222.165382,35.2840813 222.422617,35.3698263 222.679852,35.4555713 C222.97996,35.5413164 223.280067,35.6270614 223.623047,35.755679 C226.238271,36.5273843 228.167534,37.7278147 229.45371,39.3569704 C230.739885,40.986126 231.382973,42.7867717 231.382973,44.80178 C231.382973,46.6881707 230.868503,48.3173264 229.839562,49.6892469 C228.810622,51.0182949 227.438701,52.0472353 225.766673,52.7331956 C224.094645,53.4191559 222.336872,53.762136 220.536226,53.7192635 C218.263983,53.7192635 216.206102,53.2476658 214.405456,52.3044704 C212.60481,51.3612751 211.190017,50.032227 210.075332,48.3601989 C210.032459,48.3173264 209.946714,48.1458363 209.860969,47.9743462 L209.860969,47.9743462 Z" id="Path"></path>
                    <path d="M247.117186,24.2658445 C247.760274,24.2658445 248.103254,24.6088246 248.103254,25.2519124 L248.103254,29.0246938 C248.103254,29.3248014 248.017509,29.5820365 247.803147,29.7535266 C247.588784,29.9250167 247.331549,30.0107617 247.031441,30.0107617 L243.730258,30.0107617 L243.730258,44.2873098 C243.730258,45.3162502 243.901748,46.130828 244.2876,46.7739158 C244.673453,47.374131 245.316541,47.7171111 246.216864,47.7599836 L246.945696,47.8028562 C247.460167,47.8457287 247.803147,47.9743462 247.931764,48.2315813 C248.060382,48.4888164 248.146127,48.788924 248.103254,49.0890317 L248.103254,52.3473429 C248.103254,53.1190482 247.503039,53.5049009 246.345481,53.5049009 C244.544835,53.5049009 242.958552,53.1619208 241.586632,52.4759605 C240.171839,51.7900002 239.100026,50.8039323 238.328321,49.5177568 C237.556615,48.2315813 237.170763,46.7310432 237.170763,45.0161426 L237.170763,30.0536342 L234.512667,30.0536342 C234.255431,30.0536342 233.998196,29.9678892 233.826706,29.7963991 C233.612344,29.6249091 233.526599,29.367674 233.526599,29.0675663 L233.526599,25.3376574 C233.526599,24.9946773 233.612344,24.7374422 233.826706,24.5230796 C233.998196,24.3515895 234.255431,24.2658445 234.512667,24.2658445 L237.170763,24.2658445 L237.170763,19.4641226 C237.170763,19.1211425 237.213635,18.9067799 237.342253,18.7352898 C237.47087,18.5637997 237.728105,18.4780547 238.071085,18.3494372 L242.74419,16.9775166 C242.829935,16.9346441 242.91568,16.9346441 243.001425,16.9346441 C243.08717,16.9346441 243.215787,16.9775166 243.301532,17.0203891 C243.387278,17.0632617 243.473023,17.1490067 243.515895,17.2347517 C243.644513,17.4062418 243.687385,17.6634769 243.687385,17.9635845 L243.687385,24.222972 L247.117186,24.2658445 Z" id="Path"></path>
                    <path d="M254.362642,13.5905878 L258.349786,13.5905878 C259.207236,13.5905878 259.635961,14.0621855 259.635961,15.0482534 L259.635961,19.0782699 C259.635961,19.5498676 259.550216,19.8928478 259.335854,20.0643378 C259.121491,20.2358279 258.778511,20.3644455 258.349786,20.3644455 L254.362642,20.3644455 C253.419446,20.3644455 252.947849,19.9357203 252.947849,19.0782699 L252.947849,15.0482534 C252.947849,14.0621855 253.419446,13.5905878 254.362642,13.5905878 Z M253.419446,24.308717 C253.590937,24.1372269 253.805299,24.0514819 254.062534,24.0514819 L258.907129,24.0514819 C259.164364,24.0514819 259.378726,24.1372269 259.550216,24.308717 C259.721706,24.4802071 259.807451,24.6945696 259.807451,24.9946773 L259.807451,52.3902155 C259.807451,52.9904307 259.507344,53.3334108 258.907129,53.3334108 L254.062534,53.3334108 C253.462319,53.3334108 253.162211,53.0333032 253.162211,52.3902155 L253.162211,24.9946773 C253.162211,24.6945696 253.247956,24.4802071 253.419446,24.308717 L253.419446,24.308717 Z" id="Shape"></path>
                    <path d="M271.125796,53.0761757 C270.868561,53.2476658 270.525581,53.3334108 270.225473,53.3334108 L266.023966,53.3334108 C265.380879,53.3334108 265.037898,52.9904307 265.037898,52.3473429 L265.037898,24.9946773 C265.037898,24.3515895 265.380879,24.0086094 266.023966,24.0086094 L269.110788,24.0086094 C269.410895,24.0086094 269.753875,24.1372269 269.968238,24.3515895 C270.225473,24.5659521 270.396963,24.8660597 270.482708,25.1661673 L270.868561,28.4673511 C271.983246,26.881068 273.312294,25.72351 274.898577,24.9518047 C276.48486,24.1800994 278.199761,23.7942468 279.957534,23.7942468 C281.715307,23.7942468 283.430208,24.222972 285.102236,25.1232948 C286.774264,26.0236177 288.146185,27.3955382 289.26087,29.2390564 C290.332683,31.0825746 290.890026,33.3976905 290.890026,36.1415316 L290.890026,52.3044704 C290.890026,52.9475582 290.589918,53.2476658 289.989703,53.2476658 L285.402344,53.2476658 C284.759256,53.2476658 284.416276,52.9475582 284.416276,52.3044704 L284.416276,36.3558942 C284.416276,35.2412088 284.159041,34.2122684 283.601698,33.2262005 C283.044355,32.2401326 282.27265,31.4255548 281.329455,30.8253395 C280.343387,30.2251243 279.271574,29.9250167 278.071144,29.9250167 C277.042203,29.9250167 276.013263,30.1822518 275.027195,30.7395945 C273.998254,31.2969372 273.183677,32.0686425 272.540589,33.0975829 C271.897501,34.1265233 271.554521,35.3269538 271.554521,36.6560018 L271.554521,52.2615979 C271.511648,52.6474506 271.383031,52.8618131 271.125796,53.0761757 Z" id="Path"></path>
                    <path d="M322.701433,56.0772519 C321.415258,58.3923678 319.700357,60.150141 317.470986,61.3505715 C315.241616,62.5510019 312.669265,63.1083446 309.796806,63.1083446 C307.867543,63.1083446 305.981152,62.7653645 304.137634,62.1222768 C302.251243,61.479189 300.66496,60.5788661 299.335912,59.4641807 C299.078677,59.2498181 298.950059,59.0354555 298.950059,58.7782204 C298.950059,58.6067304 299.035804,58.3923678 299.250167,58.0922602 L301.17943,55.3055466 C301.393793,55.005439 301.651028,54.8339489 301.994008,54.8339489 C302.251243,54.8339489 302.508478,54.9196939 302.808586,55.1340565 C304.823594,56.5488496 307.3102,57.2348098 310.354149,57.2348098 C311.897559,57.2348098 313.26948,56.8918297 314.46991,56.2058694 C315.670341,55.5627817 316.656409,54.5767138 317.299496,53.3762833 C317.985457,52.1758529 318.328437,50.8039323 318.328437,49.2605217 L318.328437,49.1747767 C317.042261,50.5466972 315.670341,51.5756376 314.255548,52.2615979 C312.840755,52.9475582 311.168726,53.2905383 309.282336,53.2905383 C306.752857,53.2905383 304.351996,52.6903231 302.165498,51.4041476 C299.936127,50.1608446 298.178354,48.4030714 296.849306,46.1737005 C295.520258,43.9443297 294.834298,41.4148512 294.87717,38.5852651 C294.87717,35.927169 295.520258,33.4405631 296.849306,31.1683197 C298.178354,28.8960763 299.936127,27.0525581 302.165498,25.6806375 C304.394869,24.308717 306.752857,23.6227567 309.282336,23.6227567 C312.9265,23.6227567 316.056193,25.0375498 318.671417,27.8242634 L319.05727,25.1232948 C319.100142,24.6945696 319.22876,24.394462 319.40025,24.222972 C319.57174,24.0514819 319.828975,23.9657369 320.171955,23.9657369 L323.858991,23.9657369 C324.416334,23.9657369 324.716442,24.308717 324.716442,24.9518047 L324.716442,47.459876 C324.587824,50.9325499 323.944736,53.762136 322.701433,56.0772519 Z M317.299496,34.1693958 C316.527791,32.7974753 315.498851,31.6827899 314.169803,30.8682121 C312.840755,30.0536342 311.383089,29.6249091 309.711061,29.6249091 C307.99616,29.6249091 306.495622,30.0536342 305.166574,30.8682121 C303.837526,31.6827899 302.851458,32.7974753 302.079753,34.2122684 C301.35092,35.6270614 300.965067,37.1275995 300.965067,38.7996276 C300.965067,40.5574008 301.35092,42.1008114 302.122625,43.472732 C302.894331,44.8446525 303.966144,45.9164654 305.295192,46.6881707 C306.62424,47.459876 308.124778,47.8457287 309.753933,47.8457287 C311.383089,47.8457287 312.840755,47.459876 314.12693,46.6452982 C315.413106,45.8307204 316.442046,44.716035 317.213751,43.3441144 C317.942584,41.9293214 318.328437,40.4287833 318.328437,38.7996276 C318.414182,37.084727 318.028329,35.5413164 317.299496,34.1693958 L317.299496,34.1693958 Z" id="Shape"></path>
                    <path d="M330.161251,24.0514819 C328.317733,24.0514819 326.817195,25.55202 326.817195,27.3955382 C326.817195,29.2390564 328.317733,30.7395945 330.161251,30.7395945 C332.00477,30.7395945 333.505308,29.2390564 333.505308,27.3955382 C333.505308,25.5948925 332.00477,24.0514819 330.161251,24.0514819 Z M330.161251,30.0536342 C328.746458,30.0536342 327.546028,28.8532038 327.546028,27.3955382 C327.546028,25.9378726 328.746458,24.7374422 330.161251,24.7374422 C331.576044,24.7374422 332.776475,25.8950001 332.776475,27.3955382 C332.776475,28.8532038 331.576044,30.0536342 330.161251,30.0536342 Z" id="Shape"></path>
                    <path d="M328.875076,25.5948925 C328.875076,25.5948925 328.917948,25.55202 328.960821,25.55202 L330.504232,25.55202 C330.718594,25.55202 330.932957,25.5948925 331.104447,25.72351 C331.275937,25.8521276 331.404554,25.9807451 331.533172,26.1522352 C331.618917,26.3237253 331.704662,26.5380879 331.704662,26.7524504 C331.704662,26.966813 331.661789,27.1383031 331.533172,27.3526657 C331.404554,27.5241557 331.275937,27.6956458 331.061574,27.7813908 L331.747535,29.1104389 C331.747535,29.1104389 331.747535,29.1533114 331.747535,29.1533114 C331.747535,29.1533114 331.747535,29.1961839 331.747535,29.1961839 C331.747535,29.1961839 331.704662,29.1961839 331.704662,29.1961839 L331.061574,29.1961839 C331.018702,29.1961839 331.018702,29.1961839 330.975829,29.1961839 C330.975829,29.1961839 330.932957,29.1533114 330.932957,29.1104389 L330.332741,27.9100084 L329.603909,27.9100084 L329.603909,29.0675663 C329.603909,29.1533114 329.561036,29.1533114 329.518164,29.1533114 L329.003693,29.1533114 C328.917948,29.1533114 328.917948,29.1104389 328.917948,29.0675663 L328.917948,25.5948925 C328.832203,25.637765 328.832203,25.5948925 328.875076,25.5948925 Z M329.561036,27.3526657 L330.332741,27.3526657 C330.461359,27.3526657 330.547104,27.3097932 330.632849,27.2669206 C330.718594,27.2240481 330.804339,27.1383031 330.847212,27.0525581 C330.890084,26.966813 330.932957,26.881068 330.932957,26.7524504 C330.932957,26.6667054 330.890084,26.5380879 330.847212,26.4523428 C330.804339,26.3665978 330.718594,26.2808528 330.632849,26.2379802 C330.547104,26.1951077 330.461359,26.1522352 330.332741,26.1522352 L329.561036,26.1522352 L329.561036,27.3526657 Z" id="Shape"></path>
                </g>
                <g id="Invision-01" transform="translate(860.000000, 9.281198)">
                    <g id="Group-3">
                        <mask id="mask-2" fill="white">
                            <use xlink:href="#path-1"></use>
                        </mask>
                        <g id="Clip-2"></g>
                        <path d="M64.1782363,0.366825062 C67.711523,0.366825062 70.5757577,3.23105974 70.5757577,6.76434643 L70.5757577,6.76434643 L70.5757577,64.5450614 C70.5757577,68.0783481 67.711523,70.9431595 64.1782363,70.9431595 L64.1782363,70.9431595 L6.39752137,70.9431595 C2.86423468,70.9431595 3.97903932e-13,68.0783481 3.97903932e-13,64.5450614 L3.97903932e-13,64.5450614 L3.97903932e-13,6.76434643 C3.97903932e-13,3.23105974 2.86423468,0.366825062 6.39752137,0.366825062 L6.39752137,0.366825062 Z M48.7531271,25.9471055 C45.0127804,25.9471055 41.2078355,29.3212039 39.3062282,32.8717937 L40.7008556,26.4984966 L29.8593293,26.4984966 L28.3378128,32.1127657 L33.4099191,32.1127657 L30.2867151,44.6176936 C27.8337167,50.0698907 23.3279976,50.1587131 22.762764,50.0318239 C21.834166,49.8230336 21.2406707,49.4700509 21.2406707,48.264027 C21.2406707,47.5678669 21.3669831,46.5677495 21.684206,45.3617256 L26.4396661,26.4984966 L14.3938463,26.4984966 L12.871753,32.1127657 L17.8804147,32.1127657 L14.6470479,45.3219285 C14.3938463,46.3999097 14.2663804,47.5638295 14.2663804,48.5131912 C14.2663804,52.2546915 16.2954536,54.7382587 20.6068016,54.7382587 C24.1827692,54.7382587 27.08161,52.6151721 29.1683601,49.1862806 L27.8937007,54.3010678 L34.9943034,54.3010678 L39.0530267,38.0252244 C40.0669865,33.9036333 42.0326151,31.764974 45.0127804,31.764974 C47.3584998,31.764974 48.8165717,33.2236227 48.8165717,35.6316332 C48.8165717,36.3295236 48.7531271,37.0902819 48.4993488,37.9144847 L46.406831,45.395755 C46.0901848,46.4731594 45.9638724,47.5522941 45.9638724,48.5656772 C45.9638724,52.1174205 48.0552367,54.7151879 52.4300293,54.7151879 C56.1709528,54.7151879 59.151118,52.3071775 60.7995237,46.5371808 L58.010269,45.4603531 C56.6150649,49.3258587 55.4101945,50.0249027 54.4591025,50.0249027 C53.5080105,50.0249027 53.0004538,49.3916104 53.0004538,48.1232954 C53.0004538,47.5534477 53.1279197,46.9195786 53.3176767,46.15709 L55.3467499,38.8690374 C55.8537299,37.1577638 56.0446404,35.6397079 56.0446404,34.2450806 C56.0446404,28.7928835 52.7472522,25.9471055 48.7531271,25.9471055 Z M23.5863901,14.0760466 C21.2406707,14.0760466 19.2756188,15.9147861 19.2756188,18.3227965 C19.2756188,20.733114 21.2406707,22.5718535 23.5863901,22.5718535 C25.9326862,22.5718535 27.8977381,20.733114 27.8977381,18.3227965 C27.8977381,15.9147861 25.9326862,14.0760466 23.5863901,14.0760466 Z" id="Combined-Shape" fill="#69696E" mask="url(#mask-2)"></path>
                    </g>
                    <path d="M137.393289,55.1564162 L144.148984,55.1564162 L144.148984,25.6823685 L137.393289,25.6823685 L137.393289,55.1564162 Z M200.025784,25.0675328 C195.447392,25.0675328 192.712931,27.4680452 190.814784,30.2590302 L190.814784,25.6823685 L184.060819,25.6823685 L184.060819,55.1564162 L190.814784,55.1564162 L190.814784,38.5200921 C190.814784,33.9428536 193.550399,31.2078152 197.458586,31.2078152 C201.478089,31.2078152 203.766131,33.8309604 203.766131,38.408199 L203.766131,55.1564162 L210.520672,55.1564162 L210.520672,36.3993126 C210.520672,29.5334549 206.668433,25.0675328 200.025784,25.0675328 Z M164.300138,49.9649187 C159.052117,49.9649187 155.31177,45.6662596 155.31177,40.4182388 C155.31177,35.2278949 158.772961,30.9840288 164.188245,30.9840288 C169.490482,30.9840288 173.231982,35.2821112 173.231982,40.530132 C173.231982,45.7216294 169.770215,49.9649187 164.300138,49.9649187 Z M164.300138,25.0675328 C155.257554,25.0675328 148.557229,32.0441302 148.557229,40.530132 C148.557229,48.9590336 155.200454,55.8254682 164.188245,55.8254682 C173.288505,55.8254682 179.987677,48.8477172 179.987677,40.4182388 C179.987677,31.9339673 173.342722,25.0675328 164.300138,25.0675328 Z M80.68075,47.3406199 L72.7542141,25.6823685 L65.4967302,25.6823685 L77.6111855,55.379049 L83.6955214,55.379049 L95.7534534,25.6823685 L88.6638092,25.6823685 L80.68075,47.3406199 Z M123.77462,37.7397237 C120.312853,36.6213687 117.130242,35.7291071 117.130242,33.6083276 L117.130242,33.4964344 C117.130242,31.7661275 118.637339,30.5381864 121.261061,30.5381864 C122.540911,30.5381864 123.973029,30.8311851 125.453594,31.3508539 L125.453018,31.3473933 C125.453018,31.3473933 125.46686,31.3543145 125.495122,31.3670034 C125.622588,31.4119914 125.751207,31.4627471 125.88098,31.5117724 C126.949156,31.8491823 129.831271,32.3007924 132.260045,28.5293001 C129.13338,26.4627369 125.115031,25.1788492 121.428324,25.1788492 C115.567774,25.1788492 110.934589,28.5835164 110.934589,34.16664 L110.934589,34.2791099 C110.934589,39.9164498 115.790984,41.7027033 120.145013,42.9306444 C123.60678,43.9913225 126.732868,44.7728445 126.732868,47.0614637 L126.732868,47.1722034 C126.732868,49.1268734 125.057931,50.3553913 122.155053,50.3553913 C120.225184,50.3553913 118.111326,49.8455275 116.005542,48.8529082 C115.399358,48.5973995 112.246739,47.5194183 109.550344,51.3532016 C113.224362,54.2214737 117.825248,55.7147285 121.988367,55.7147285 C128.126919,55.7147285 132.929097,52.6451641 132.929097,46.4472048 L132.929097,46.3358884 C132.929097,41.0330745 128.072702,39.0789813 123.77462,37.7397237 Z M99.1004437,55.1564162 L105.854985,55.1564162 L105.854985,25.6823685 L99.1004437,25.6823685 L99.1004437,55.1564162 Z" id="Fill-4" fill="#69696E"></path>
                </g>
                <g id="miro-logo-vector" transform="translate(307.500000, 18.500000)" fill="#69696E" fill-rule="nonzero">
                    <path d="M117.469734,13.9982908 C127.322034,13.9982908 133.830793,20.8414044 133.830793,31.1840906 C133.830793,41.5267768 127.299744,48.4367612 117.469734,48.4367612 C107.238499,48.4367612 100.417676,41.5267768 100.417676,31.1840906 C100.417676,20.8414044 107.260789,13.9982908 117.469734,13.9982908 Z M64.9315625,14.6892893 L64.9315625,47.7234725 L57.5757727,46.207734 L57.5757727,16.138157 L64.9315625,14.6892893 Z M94.3993021,13.9091298 L94.3993021,21.6661444 L90.1641505,22.446304 C86.5308361,23.1373024 84.1680673,25.0319755 84.1680673,29.2448369 L84.1680673,47.7234725 L76.8122775,46.207734 L76.8122775,28.1303233 C76.8122775,19.1473437 82.0727817,16.4948013 90.1641505,14.6224185 L94.3993021,13.9091298 Z M16.1827375,13.9982908 C19.0804729,13.9982908 22.6023359,15.6031904 24.6084603,18.5009258 C26.6145848,15.8706737 29.9581256,14.1320325 34.081826,14.0874519 C39.2531691,14.0205811 45.6950577,17.2749608 45.6950577,27.0381 L45.6950577,47.7234725 L38.3392679,46.207734 L38.3392679,27.0381 C38.3392679,23.76143 35.9764991,21.4209514 32.4769264,21.4209514 C28.9773537,21.4209514 26.6145848,23.76143 26.6145848,27.0381 L26.6145848,47.7234725 L19.2587951,46.207734 L19.2587951,27.0381 C19.2587951,23.76143 16.8960262,21.4209514 13.3964535,21.4209514 C9.85230025,21.4209514 7.46724114,23.76143 7.46724114,27.0381 L7.46724114,47.7234725 L0.11145136,46.207734 L0.11145136,16.138157 L7.46724114,14.6892893 L7.46724114,18.0997009 C9.51794617,15.5809002 12.6385843,13.9982908 16.1827375,13.9982908 Z M117.469734,20.975146 C111.763424,20.975146 107.929497,25.0319755 107.929497,31.1840906 C107.929497,37.3362057 111.763424,41.459906 117.469734,41.459906 C122.797109,41.459906 126.318972,37.3362057 126.318972,31.1840906 C126.318972,25.0319755 122.797109,20.975146 117.469734,20.975146 Z M61.4096995,0.178322176 C64.0845322,0.178322176 65.8677539,2.05070503 65.8677539,4.85927931 C65.8677539,7.66785359 64.0845322,9.54023644 61.4096995,9.54023644 C58.6234155,9.54023644 56.7733229,7.66785359 56.7733229,4.85927931 C56.7733229,2.05070503 58.6234155,0.178322176 61.4096995,0.178322176 Z" id="Shape"></path>
                </g>
                <g id="figma-vector-logo" fill-rule="nonzero">
                    <path d="M89.0485857,17.6985025 L89.0485857,64.61797 L95.0863561,64.6640599 L95.0863561,42.3104825 L109.650749,42.3104825 L109.650749,36.4109817 L95.0863561,36.4109817 L95.0863561,23.5980033 L114.029285,23.5980033 L114.029285,17.6985025 L89.0485857,17.6985025 L89.0485857,17.6985025 Z M124.906489,27.2391015 C127.072712,27.2391015 128.870216,25.4876872 128.870216,23.2753744 C128.870216,21.0630616 127.118802,19.3116473 124.906489,19.3116473 C122.740266,19.3116473 120.942762,21.0630616 120.942762,23.2753744 C120.942762,25.4876872 122.694176,27.2391015 124.906489,27.2391015 L124.906489,27.2391015 Z M121.818469,33.1386023 L121.818469,64.6640599 L127.85624,64.6640599 L127.85624,33.1386023 L121.818469,33.1386023 Z M150.255907,32.2168053 C142.236273,32.2168053 136.659401,38.9920133 136.659401,47.0577371 C136.659401,55.1234609 142.236273,61.8986689 150.255907,61.8986689 C153.943095,61.8986689 156.938935,60.5159734 159.151248,58.165391 L159.151248,62.3595674 C159.197338,67.5677205 155.049251,71.9001664 149.795008,71.9462562 C149.748918,71.9462562 149.748918,71.9462562 149.702829,71.9462562 C147.767055,71.9462562 145.877371,71.2088186 144.356406,70.1487521 L141.314476,75.402995 C148.504493,80.0580699 158.091181,77.9840266 162.700166,70.79401 C164.313311,68.2590682 165.189018,65.3554077 165.189018,62.3595674 L165.189018,33.1846922 L159.151248,33.1846922 L159.151248,35.996173 C156.938935,33.6455907 153.943095,32.2168053 150.255907,32.2168053 L150.255907,32.2168053 Z M142.697171,47.0577371 C142.697171,42.0339434 146.522629,38.1163062 150.947255,38.1163062 C155.37188,38.1163062 159.151248,42.0800333 159.151248,47.0577371 C159.151248,52.0815308 155.32579,55.9530782 150.947255,55.9530782 C146.522629,55.9530782 142.697171,52.0354409 142.697171,47.0577371 Z M186.943428,38.1163062 C183.348419,38.162396 180.444759,41.1121464 180.490849,44.7071547 L180.490849,64.61797 L174.453078,64.61797 L174.453078,33.0925125 L180.490849,33.0925125 L180.490849,35.996173 C182.334443,33.553411 185.192013,32.1707155 188.280033,32.2168053 C192.5203,32.2168053 195.792679,34.2908486 197.636273,37.5171381 C199.756406,34.2447587 203.351414,32.2628952 207.222962,32.2168053 C214.090349,32.2168053 218.376705,37.7475874 218.376705,44.614975 L218.376705,64.61797 L212.385025,64.61797 L212.385025,44.7071547 C212.385025,41.1121464 209.527454,38.162396 205.932446,38.1163062 C202.337438,38.162396 199.433777,41.1121464 199.479867,44.7071547 L199.479867,64.61797 L193.396007,64.61797 L193.396007,44.7071547 C193.396007,41.1121464 190.538436,38.162396 186.943428,38.1163062 L186.943428,38.1163062 Z M250.547421,36.6875208 C247.78203,33.7838602 243.910483,32.1707155 239.900666,32.2168053 C230.913145,32.2168053 224.552745,39.8216306 224.552745,48.8552413 C224.552745,57.9349418 230.913145,65.4936772 239.900666,65.4936772 C243.910483,65.4936772 247.73594,63.8805324 250.547421,61.0229617 L250.547421,64.61797 L256.585191,64.61797 L256.585191,33.0925125 L250.547421,33.0925125 L250.547421,36.6875208 L250.547421,36.6875208 Z M230.590516,48.8552413 C230.590516,42.8635607 235.199501,38.0702163 240.592013,38.0702163 C245.938436,38.1163062 250.547421,42.8635607 250.547421,48.8552413 C250.547421,54.8469218 245.938436,59.5941764 240.545923,59.5941764 C235.245591,59.6402662 230.590516,54.8930116 230.590516,48.8552413 Z" id="Shape" fill="#69696E"></path>
                    <path d="M31.0645591,46.781198 C31.0645591,38.2084859 38.0241265,31.2489185 46.5968386,31.2489185 C55.1695507,31.2489185 62.1291181,38.2084859 62.1291181,46.781198 C62.1291181,55.3539101 55.1695507,62.3134775 46.5968386,62.3134775 C38.0241265,62.3134775 31.0645591,55.3539101 31.0645591,46.781198 Z" id="b" fill="#69696E"></path>
                    <path d="M0.0460898502,77.7996672 C0.0460898502,69.2269551 7.00565724,62.2673877 15.5783694,62.2673877 L31.1106489,62.2673877 L31.1106489,77.7996672 C31.1106489,86.3723794 24.1510815,93.3319468 15.5783694,93.3319468 C7.00565724,93.3319468 0.0460898502,86.3723794 0.0460898502,77.7996672 Z" id="c" fill="#69696E"></path>
                    <path d="M31.0645591,0.230449251 L31.0645591,31.2489185 L46.5968386,31.2489185 C55.1695507,31.2489185 62.1291181,24.2893511 62.1291181,15.7166389 C62.1291181,7.14392679 55.1695507,0.184359401 46.5968386,0.184359401 L31.0645591,0.184359401 L31.0645591,0.230449251 Z" id="d" fill="#8B8B90"></path>
                    <path d="M0.0460898502,15.7627288 C0.0460898502,24.3354409 7.00565724,31.2950083 15.5783694,31.2950083 L31.1106489,31.2950083 L31.1106489,0.276311492 L15.5783694,0.276311492 C7.00565724,0.230449251 0.0460898502,7.19001664 0.0460898502,15.7627288 Z" id="e" fill="#69696E"></path>
                    <path d="M0.0460898502,46.781198 C0.0460898502,55.3539101 7.00565724,62.3134775 15.5783694,62.3134775 L31.1106489,62.3134775 L31.1106489,31.2947807 L15.5783694,31.2947807 C7.00565724,31.2489185 0.0460898502,38.2084859 0.0460898502,46.781198 Z" id="e_1_" fill="#4C4C50"></path>
                </g>
            </g>
        </g>
    </g>
</svg>