<svg width="40" height="40" viewBox="0 0 40 40" fill="none" xmlns="http://www.w3.org/2000/svg">
<path d="M23.4633 15.4133C25.3767 17.3266 25.3767 20.4266 23.4633 22.34C21.55 24.2533 18.45 24.2533 16.5367 22.34C14.6233 20.4266 14.6233 17.3266 16.5367 15.4133C18.45 13.5016 21.55 13.5016 23.4633 15.4133Z" stroke="#8A8A8F" stroke-width="2" stroke-linecap="round" stroke-linejoin="round"/>
<path d="M33.3333 18.635C33.3333 26.2033 27.645 33.2816 20 35C12.355 33.2816 6.66667 26.2033 6.66667 18.635V12.0733C6.66667 10.7183 7.48667 9.49998 8.73834 8.98831L17.0717 5.57665C18.9483 4.80665 21.0533 4.80665 22.9267 5.57665L31.26 8.98831C32.515 9.50331 33.3317 10.7183 33.3317 12.0733V18.635H33.3333Z" stroke="#8A8A8F" stroke-width="2" stroke-linecap="round" stroke-linejoin="round"/>
</svg>
